<svg id="DISEÑO" xmlns="http://www.w3.org/2000/svg" viewBox="0 0 55 55"><title>assets</title><path d="M34.53,28.76V24.05H29.61V21.63q0-3.59,3.24-3.59a6.67,6.67,0,0,1,2.44.51v-5A11,11,0,0,0,32,13.18a9,9,0,0,0-6.31,2.21,7.62,7.62,0,0,0-2.4,5.9v2.77H19.69v4.71H23.3V41.65a17,17,0,0,0,6.31-.39V28.76Z" style="fill:#e6a000"/><path d="M27.78,54.49A27,27,0,0,1,8.7,8.42,27,27,0,0,1,46.87,46.58,26.81,26.81,0,0,1,27.78,54.49Zm0-52.41A25.42,25.42,0,1,0,53.2,27.5,25.45,25.45,0,0,0,27.78,2.08Z" style="fill:#e6a000"/></svg>