<svg id="DISEÑO" xmlns="http://www.w3.org/2000/svg" viewBox="0 0 354.11 53.28"><title>assets</title><path d="M6.72,17.19H12L19.4,35.13l7.39-17.94h5.28L21.76,40.72H17Z" style="fill:#fff"/><path d="M36.24,17.19H41V40.72h-4.8Z" style="fill:#fff"/><path d="M48.35,17.19h12.4a16.66,16.66,0,0,1,4.7.59,9,9,0,0,1,3.3,1.69,6.8,6.8,0,0,1,1.95,2.7,9.59,9.59,0,0,1,.64,3.6,9.35,9.35,0,0,1-.63,3.48A7.25,7.25,0,0,1,68.77,32a9.15,9.15,0,0,1-3.29,1.82,15.05,15.05,0,0,1-4.7.66l-7.66,0v6.25H48.35ZM60.88,30.34A7.83,7.83,0,0,0,63.25,30,4.76,4.76,0,0,0,65,29.1a3.7,3.7,0,0,0,1-1.45,5.06,5.06,0,0,0,.34-1.89A4.06,4.06,0,0,0,65,22.51a6.12,6.12,0,0,0-4.07-1.17H53.13v9Z" style="fill:#fff"/><path d="M80.05,28.81A11.6,11.6,0,0,1,81,24.12a10.77,10.77,0,0,1,2.75-3.78,13.07,13.07,0,0,1,4.4-2.52A17.58,17.58,0,0,1,94,16.9a22.52,22.52,0,0,1,5.28.58,16.76,16.76,0,0,1,4.46,1.77l-2.2,3.61a7.68,7.68,0,0,0-1.42-.72,13,13,0,0,0-1.72-.53,17.06,17.06,0,0,0-1.88-.34,15.62,15.62,0,0,0-1.92-.12,13.54,13.54,0,0,0-4.08.56,8.84,8.84,0,0,0-3,1.58,6.73,6.73,0,0,0-1.87,2.42A7.39,7.39,0,0,0,85,28.81,7.67,7.67,0,0,0,85.68,32a7.11,7.11,0,0,0,1.92,2.52,9.09,9.09,0,0,0,3.07,1.66,13.14,13.14,0,0,0,4.1.59,14.13,14.13,0,0,0,2.06-.15,16.48,16.48,0,0,0,2-.41,15.82,15.82,0,0,0,1.84-.63,15,15,0,0,0,1.66-.81l2.2,3.61a16.23,16.23,0,0,1-4.46,1.93,20.06,20.06,0,0,1-5.37.7,19.61,19.61,0,0,1-6.37-.94,13.14,13.14,0,0,1-4.58-2.59A10.62,10.62,0,0,1,81,33.62,12.44,12.44,0,0,1,80.05,28.81Z" style="fill:#fff"/><path d="M118.4,17.19h5.06l11.38,23.53h-5l-1.88-4H114.2l-1.82,4h-5Zm7.66,15.64L121,22.14l-5,10.69Z" style="fill:#fff"/><path d="M139.73,17.19h12.4a16.66,16.66,0,0,1,4.7.59,9,9,0,0,1,3.3,1.69,6.8,6.8,0,0,1,1.95,2.7,9.59,9.59,0,0,1,.64,3.6,9.35,9.35,0,0,1-.63,3.48A7.25,7.25,0,0,1,160.15,32a9.15,9.15,0,0,1-3.29,1.82,15.05,15.05,0,0,1-4.7.66l-7.66,0v6.25h-4.77Zm12.52,13.16a7.83,7.83,0,0,0,2.37-.32,4.76,4.76,0,0,0,1.7-.92,3.7,3.7,0,0,0,1-1.45,5.06,5.06,0,0,0,.34-1.89,4.06,4.06,0,0,0-1.36-3.26,6.12,6.12,0,0,0-4.07-1.17h-7.75v9Z" style="fill:#fff"/><path d="M169.79,17.19h4.8V40.72h-4.8Z" style="fill:#fff"/><path d="M190.23,21.37h-8.69V17.19h22.14v4.18H195V40.72h-4.77Z" style="fill:#fff"/><path d="M216.8,17.19h5.06l11.38,23.53h-5l-1.88-4H212.6l-1.82,4h-5Zm7.66,15.64-5.09-10.69-5,10.69Z" style="fill:#fff"/><path d="M238.13,17.19h4.77V36.53h13.68v4.18H238.13Z" style="fill:#fff"/><path d="M346.19,48a4.11,4.11,0,1,1,1.2-2.91A3.95,3.95,0,0,1,346.19,48Zm-5.4-5.4a3.41,3.41,0,0,0-1,2.5,3.45,3.45,0,0,0,1,2.51,3.52,3.52,0,0,0,5,0,3.57,3.57,0,0,0,0-5,3.51,3.51,0,0,0-5,0Zm2.41.23a3.43,3.43,0,0,1,1.23.16,1.12,1.12,0,0,1,.7,1.14,1,1,0,0,1-.44.89,1.71,1.71,0,0,1-.65.22,1.09,1.09,0,0,1,.77.44,1.24,1.24,0,0,1,.24.7v.33c0,.1,0,.22,0,.33a.72.72,0,0,0,0,.23l0,.06h-.74v-.09l0-.14v-.36a1.1,1.1,0,0,0-.42-1,1.91,1.91,0,0,0-.88-.15h-.63v1.77h-.79v-4.5Zm.86.71a2.07,2.07,0,0,0-1-.17h-.68V45h.72a2.15,2.15,0,0,0,.76-.1.81.81,0,0,0,.17-1.36Z" style="fill:#e6a000"/><path d="M332.42,32l-1.84,1.67a11.39,11.39,0,0,0,2.65,2.14,6.71,6.71,0,0,1-3.64,2.46,10.29,10.29,0,0,1-3.81.62,8.92,8.92,0,0,0-2.82.32c-.6.16-1.4.41-2.37.75a.55.55,0,0,1-.65-.22L318.76,38a20.89,20.89,0,0,0,3.36-8.65,8.2,8.2,0,0,1-2.64.83,20.42,20.42,0,0,1-3.2,7l-.52.69,2.11,3.26a3,3,0,0,0,3.56,1.22c.9-.31,1.66-.56,2.19-.7a6.56,6.56,0,0,1,2.13-.24,12.57,12.57,0,0,0,4.59-.73c4.67-1.43,5.74-4.88,5.78-5l.32-1.1-1.07-.42A8.77,8.77,0,0,1,332.42,32Z" style="fill:#e6a000"/><path d="M344.92,27.85A9.1,9.1,0,0,1,337.26,30c-.26-2.92-1.74-13.35-9.84-19.35-6-4.47-14.27-5.38-24.47-2.69-7,1.85-11.87,5-16.16,7.85-3.68,2.42-6.87,4.51-10.78,5.44-1.62.39-3.34.7-5.12.95a3.79,3.79,0,0,1-3.35-6.27l2.53-2.87.74-.62-.58-.81s-.45-1,.74-2.44c.91-1.13,3.89-1.95,6-2.36a14.49,14.49,0,0,1-1.32,3c-1.7,2.27-3.17,2-3.2,2l-.59,2.42c.12,0,3,.69,5.78-3,.45-.6,2.72-5.44,2.16-6.57L279.39,4h-.77c-.07,0-7.35.77-9.6,3.58a5.19,5.19,0,0,0-1.3,4.32l-2.05,2.32a6.28,6.28,0,0,0,5.55,10.38l1.68-.26-3.56,7.78c-7.12,6-7.1,6.15-7,6.94l.08.67.59.31c2.2,1.16,3.8,5.09,4.23,6.5l.27.88h8.14l.29-.84c.48-1.42.49-4.67-2.89-7l.08-.09c.43-.42,3.57-2.62,7.32-5.17l7.22.85a19.9,19.9,0,0,0,8.91,2.36,12.87,12.87,0,0,0,5.55-1.2,12.29,12.29,0,0,0,1.58-.9l-1.91,4.8,1,.51c3,1.51,4.25,5.72,4.26,5.76l.26.9H317l0-1.2c0-.71.06-4.32-2-5.56l-.16-.1a18.43,18.43,0,0,1-1-2.75l-.19-.59a10.13,10.13,0,0,0,4.6-7.06h0a8.26,8.26,0,0,1-2.43-.37,7.91,7.91,0,0,1-4.25,5.79l-.88.5.78,2.47c1,3.12,1.13,3.59,2.22,4.24a3.31,3.31,0,0,1,.77,2.14h-5.42a12.91,12.91,0,0,0-4.23-5.81l4-10a20.12,20.12,0,0,0,1.38-4.14l-2.43-.53a18.42,18.42,0,0,1-.63,2.2h0l-.62,1.55A11.93,11.93,0,0,1,301,34.15c-3.42,1.62-7.73,1.19-12.47-1.23l-.2-.1-4.8-.57,2-1.38-1.39-2.07c-2,1.32-11.88,8-12.89,9a2.73,2.73,0,0,0-.91,2.19,2.25,2.25,0,0,0,1.07,1.65A4.06,4.06,0,0,1,273.67,45h-4.37a16.4,16.4,0,0,0-3.84-6.17c1.24-1.13,3.56-3.12,5.7-4.91l.22-.18,4.54-9.91.68-.15c4.34-1,7.85-3.34,11.57-5.78,4.33-2.84,8.8-5.78,15.43-7.53,9.42-2.48,16.94-1.72,22.34,2.27,6.41,4.74,8.22,12.9,8.72,16.46a9.06,9.06,0,0,1-2.59-2l-1.86,1.65a11.62,11.62,0,0,0,16.38,1Z" style="fill:#e6a000"/></svg>