<svg id="DISEÑO" xmlns="http://www.w3.org/2000/svg" xmlns:xlink="http://www.w3.org/1999/xlink" viewBox="0 0 1152.81 744.64"><defs><clipPath id="clip-path"><rect x="1409.16" y="-212.22" width="1125.92" height="1080" style="fill:none"/></clipPath></defs><title>assets</title><g style="clip-path:url(#clip-path)"><path d="M2492.77,445.34c-46.52,41.26-107.37,56.08-164.29,45.9-5.58-62.67-37.35-286.18-211.07-414.86-129.49-95.92-306-115.33-524.67-57.73C1442.2,58.33,1338.1,126.71,1246.25,187c-79,51.89-147.22,96.7-231.2,116.69C980.32,312,943.37,318.83,905.22,324c-41.23,5.52-69.67-18.1-82.56-42.17s-16.9-61.07,10.72-92.35l54.25-61.45,15.81-13.37L890.91,97.43c-.41-.83-9.73-20.45,15.91-52.32,19.46-24.2,83.33-41.8,127.63-50.67-8.34,24-19.94,53.09-28.3,64.23-36.48,48.64-68,43.76-68.56,43.73l-12.67,51.8c2.63.65,65.1,14.86,123.89-63.54,9.65-12.87,58.36-116.76,46.32-140.85L1087.61-65h-16.48c-1.44,0-157.51,16.61-205.86,76.73-29.34,36.46-32.66,70.12-27.9,92.74l-44,49.8c-37.65,42.66-44.62,102.64-17.76,152.83s80.49,77.44,136.79,69.82c12.18-1.66,24.19-3.54,36.11-5.51L872.13,538.25C719.41,666,719.85,670.1,721.63,687l1.65,14.38L735.83,708c47.13,25,81.46,109.08,90.71,139.36l5.75,18.91H1006.9l6.15-18.05c10.39-30.47,10.55-100.1-62-149.67.51-.61,1.11-1.29,1.82-2,9.23-9,76.57-56.08,156.95-110.89l154.81,18.21c74.82,37.46,138.5,50.63,191.05,50.63,49.6,0,89.29-11.74,119.06-25.82a263.6,263.6,0,0,0,33.92-19.37l-41,103,21.81,11c64.39,32.44,91.09,122.74,91.33,123.6l5.51,19.36H1895l1-25.65c.58-15.24,1.19-92.62-43.56-119.32a27.18,27.18,0,0,1-3.36-2.18c-3.24-3.72-10.51-26.88-20.57-59l-4-12.64c55.8-37.22,88.8-88.78,98.58-151.46H1923a177.2,177.2,0,0,1-52.19-7.83c-8.53,53.18-38.83,94.78-91.09,124.23l-18.87,10.63,16.74,53c21,66.8,24.18,77.08,47.5,91,8.23,4.91,14.14,24.67,16.52,45.84H1725.42c-11.73-30.32-39.67-88.92-90.81-124.62l85.22-214.12a431.49,431.49,0,0,0,29.62-88.85L1697.36,374a395,395,0,0,1-13.41,47.09l-.31-.12-13.21,33.19C1643.06,512.41,1602,556.8,1552,580.5c-73.27,34.66-165.73,25.59-267.37-26.29l-4.26-2.17-103-12.12c14.7-9.92,29.43-19.83,43.94-29.56l-29.7-44.29c-42.34,28.39-254.7,171.13-276.34,192.77-14.26,14.25-21.18,30.94-19.48,47,1.49,14.14,9.67,26.69,23,35.34,38.09,24.67,45.73,53.48,46,71.8H871c-11.72-31.36-39.11-94.09-82.31-132.41,26.52-24.16,76.33-66.91,122.24-105.28l4.63-3.87,97.33-212.57c4.83-1.08,9.73-2.11,14.48-3.24,93.08-22.17,168.39-71.63,248.12-124,92.76-60.92,188.67-123.92,330.79-161.37,202.05-53.24,363.22-36.83,479,48.78,137.42,101.57,176.33,276.52,187,353a194.22,194.22,0,0,1-55.63-43.27l-39.9,35.39a249.12,249.12,0,0,0,351.29,21.09Z" style="fill:none;stroke:#e6a000;stroke-miterlimit:10;stroke-width:1.25054621696472px"/></g><circle cx="728.34" cy="174.39" r="91.84" style="fill:#4d4d4d"/><path d="M651.11,150.46h2.45L657,158.8l3.43-8.33h2.45l-4.79,10.93h-2.2Z" style="fill:#fff"/><path d="M664.82,150.46h2.23v10.93h-2.23Z" style="fill:#fff"/><path d="M670.45,150.46h5.76a7.75,7.75,0,0,1,2.18.27,4.16,4.16,0,0,1,1.53.79,3.16,3.16,0,0,1,.91,1.25,4.45,4.45,0,0,1,.3,1.67,4.35,4.35,0,0,1-.29,1.62,3.36,3.36,0,0,1-.9,1.28,4.24,4.24,0,0,1-1.53.85,7,7,0,0,1-2.18.3h-3.56v2.9h-2.22Zm5.82,6.11a3.62,3.62,0,0,0,1.1-.15,2.21,2.21,0,0,0,.79-.43,1.72,1.72,0,0,0,.48-.67,2.34,2.34,0,0,0,.16-.88,1.89,1.89,0,0,0-.63-1.51,2.84,2.84,0,0,0-1.89-.54h-3.6v4.18Z" style="fill:#fff"/><path d="M684.12,150.46h5.56a8,8,0,0,1,2.18.26,4.23,4.23,0,0,1,1.53.76,3.06,3.06,0,0,1,.91,1.21,4.16,4.16,0,0,1,.3,1.62,4.47,4.47,0,0,1-.15,1.16,3.39,3.39,0,0,1-1.22,1.83,4.15,4.15,0,0,1-1.08.6l2.38,3.5h-2.71l-2.06-3.1h-3.42v3.11h-2.22Zm5.61,5.9a3.73,3.73,0,0,0,1.1-.15,2.28,2.28,0,0,0,.79-.41,1.66,1.66,0,0,0,.48-.65,2.21,2.21,0,0,0,.16-.85,1.7,1.7,0,0,0-.63-1.42,3,3,0,0,0-1.89-.5h-3.4v4Z" style="fill:#fff"/><path d="M697.15,155.89a5.55,5.55,0,0,1,.45-2.27,5.13,5.13,0,0,1,1.28-1.76,5.8,5.8,0,0,1,2-1.14,8.21,8.21,0,0,1,5.09,0,5.79,5.79,0,0,1,2,1.14,5.14,5.14,0,0,1,1.28,1.76,5.53,5.53,0,0,1,.46,2.27,5.62,5.62,0,0,1-.46,2.28,5.21,5.21,0,0,1-1.28,1.79,5.83,5.83,0,0,1-2,1.17,8,8,0,0,1-5.09,0,5.84,5.84,0,0,1-2-1.17,5.2,5.2,0,0,1-1.28-1.79A5.64,5.64,0,0,1,697.15,155.89Zm2.22,0a3.68,3.68,0,0,0,.3,1.52,3.36,3.36,0,0,0,.85,1.16,3.8,3.8,0,0,0,1.28.74,5.1,5.1,0,0,0,3.21,0,3.77,3.77,0,0,0,1.28-.74,3.43,3.43,0,0,0,.85-1.16,3.65,3.65,0,0,0,.31-1.52,3.6,3.6,0,0,0-.31-1.52,3.3,3.3,0,0,0-.85-1.14,3.74,3.74,0,0,0-1.28-.71,5.39,5.39,0,0,0-3.21,0,3.78,3.78,0,0,0-1.28.71,3.24,3.24,0,0,0-.85,1.14A3.63,3.63,0,0,0,699.36,155.89Z" style="fill:#fff"/><path d="M721.31,152.4h-4v-1.94h10.29v1.94h-4v9h-2.22Z" style="fill:#fff"/><path d="M730.49,150.46h5.56a8,8,0,0,1,2.18.26,4.23,4.23,0,0,1,1.53.76,3.06,3.06,0,0,1,.91,1.21,4.16,4.16,0,0,1,.3,1.62,4.47,4.47,0,0,1-.15,1.16,3.39,3.39,0,0,1-1.22,1.83,4.15,4.15,0,0,1-1.08.6l2.38,3.5h-2.71l-2.06-3.1h-3.42v3.11h-2.22Zm5.61,5.9a3.73,3.73,0,0,0,1.1-.15,2.28,2.28,0,0,0,.79-.41,1.66,1.66,0,0,0,.48-.65,2.21,2.21,0,0,0,.16-.85,1.7,1.7,0,0,0-.63-1.42,3,3,0,0,0-1.89-.5h-3.4v4Z" style="fill:#fff"/><path d="M747.89,150.46h2.35l5.29,10.93h-2.33l-.87-1.84h-6.38l-.85,1.84h-2.34Zm3.56,7.26-2.36-5-2.3,5Z" style="fill:#fff"/><path d="M757.8,150.46h4a10.93,10.93,0,0,1,3,.38,5.9,5.9,0,0,1,2.14,1.08,4.35,4.35,0,0,1,1.27,1.71,5.84,5.84,0,0,1,.42,2.25,5.75,5.75,0,0,1-.41,2.2,4.6,4.6,0,0,1-1.26,1.75,6,6,0,0,1-2.14,1.15,10,10,0,0,1-3,.42h-4Zm4.55,9a5.4,5.4,0,0,0,1.74-.25,3.39,3.39,0,0,0,1.25-.72,3,3,0,0,0,.75-1.13,4.16,4.16,0,0,0,.25-1.48,4,4,0,0,0-.25-1.45,2.84,2.84,0,0,0-.75-1.1,3.42,3.42,0,0,0-1.25-.7,5.6,5.6,0,0,0-1.74-.25H760v7.08Z" style="fill:#fff"/><path d="M771.19,150.46h2.23v10.93h-2.23Z" style="fill:#fff"/><path d="M776.81,150.46H779l6.81,3.57v-3.57H788v10.93h-2.22v-5L779,152.83v8.56h-2.22Z" style="fill:#fff"/><path d="M791,155.82a5.38,5.38,0,0,1,.43-2.16,4.94,4.94,0,0,1,1.27-1.75,6.06,6.06,0,0,1,2-1.17,8.36,8.36,0,0,1,2.78-.43,10.83,10.83,0,0,1,1.14.06,9.5,9.5,0,0,1,1.13.19,9,9,0,0,1,1.08.32,7,7,0,0,1,1,.46l-1,1.68a4.2,4.2,0,0,0-.65-.3,6,6,0,0,0-.78-.23,8,8,0,0,0-.86-.14,8.24,8.24,0,0,0-.89,0,6,6,0,0,0-1.85.26,4,4,0,0,0-1.37.73,3.13,3.13,0,0,0-.85,1.13,3.48,3.48,0,0,0-.29,1.44,3.57,3.57,0,0,0,.31,1.49,3.37,3.37,0,0,0,.87,1.17,4.09,4.09,0,0,0,1.37.77,5.49,5.49,0,0,0,1.8.28,5.55,5.55,0,0,0,1.45-.18,3.87,3.87,0,0,0,1.15-.51,2.86,2.86,0,0,0,.8-.79,2.66,2.66,0,0,0,.41-1H797.6v-1.83h5.82a5.65,5.65,0,0,1,.11,1.63,4.85,4.85,0,0,1-.36,1.5,4.73,4.73,0,0,1-.81,1.29,5,5,0,0,1-1.24,1,6.28,6.28,0,0,1-1.64.66,8.13,8.13,0,0,1-2,.23,7.8,7.8,0,0,1-2.73-.45,6.08,6.08,0,0,1-2-1.22,5.26,5.26,0,0,1-1.28-1.82A5.62,5.62,0,0,1,791,155.82Z" style="fill:#fff"/><path d="M687.36,180.91a3.05,3.05,0,0,1,1.85-2.83,2.82,2.82,0,0,1-1.58-2.53c0-1.77,1.39-3.11,3.62-3.11s3.58,1.34,3.58,3.11a2.78,2.78,0,0,1-1.58,2.53,3,3,0,0,1,1.87,2.83c0,1.81-1.47,3.35-3.86,3.35S687.36,182.72,687.36,180.91Zm3.88-2.32c-1.64,0-2.79,1-2.79,2.32s1.11,2.34,2.79,2.34a2.36,2.36,0,1,0,0-4.65Zm2.49-3.05c0-1.13-.89-2.07-2.49-2.07s-2.53.94-2.53,2.07.9,2.11,2.53,2.11A2.19,2.19,0,0,0,693.73,175.54Z" style="fill:#fff"/><path d="M697.25,180.44l6.39-7.75h.81v7.56h1.94v1h-1.94V184h-1.07v-2.75h-6.12Zm1.45-.19h4.67v-5.73L698.91,180l-.21.19Z" style="fill:#fff"/><path d="M713.21,175.27c0,1.47-.85,2.83-2.37,2.83s-2.36-1.36-2.36-2.83.83-2.83,2.36-2.83S713.21,173.75,713.21,175.27Zm5.65-2.58-9,11.31H708.7l9-11.31Zm-9.42,2.58c0,1.07.47,1.94,1.39,1.94s1.41-.87,1.41-1.94-.49-1.94-1.41-1.94S709.44,174.18,709.44,175.27Zm9.71,6a2.55,2.55,0,0,1-2.39,2.83c-1.51,0-2.36-1.34-2.36-2.83s.85-2.83,2.36-2.83S719.14,179.82,719.14,181.32Zm-3.79,0c0,1.05.49,1.92,1.39,1.92s1.41-.87,1.41-1.92-.49-2-1.41-2S715.36,180.21,715.36,181.32Z" style="fill:#fff"/><path d="M733.22,184h-.74l-.13-1.24h-.08a3.31,3.31,0,0,1-2.88,1.43c-2,0-3-1.13-3-2.49s1.15-2.54,3.56-2.54a6.37,6.37,0,0,1,2.28.4v-.38c0-1.54-.83-2.34-2.45-2.34a4.89,4.89,0,0,0-2.32.64l-.42-.87a5.84,5.84,0,0,1,2.81-.72c2.39,0,3.39,1.32,3.39,3.28Zm-1-3.58a4.67,4.67,0,0,0-2.19-.47c-1.85,0-2.58.72-2.58,1.71s.68,1.68,2.09,1.68a2.53,2.53,0,0,0,2.68-2.22Z" style="fill:#fff"/><path d="M736.51,176.08h.75l.11,1.3h.08a3.09,3.09,0,0,1,2.83-1.49c2.09,0,3.28,1.53,3.28,3.67V184h-1.06v-4.32c0-1.64-.83-2.88-2.43-2.88a2.46,2.46,0,0,0-2.51,2.39V184h-1.05Z" style="fill:#fff"/><path d="M753.74,184H753l-.19-1.28h0a3.1,3.1,0,0,1-2.87,1.47c-2.09,0-3.18-1.53-3.18-3.67v-4.43h1.06v4.32c0,1.64.72,2.88,2.32,2.88a2.5,2.5,0,0,0,2.54-2.39v-4.81h1.05Z" style="fill:#fff"/><path d="M763.29,184h-.74l-.13-1.24h-.08a3.31,3.31,0,0,1-2.88,1.43c-2,0-3-1.13-3-2.49s1.15-2.54,3.56-2.54a6.37,6.37,0,0,1,2.28.4v-.38c0-1.54-.83-2.34-2.45-2.34a4.89,4.89,0,0,0-2.32.64l-.42-.87a5.84,5.84,0,0,1,2.81-.72c2.39,0,3.39,1.32,3.39,3.28Zm-1-3.58a4.67,4.67,0,0,0-2.19-.47c-1.85,0-2.58.72-2.58,1.71s.68,1.68,2.09,1.68a2.53,2.53,0,0,0,2.68-2.22Z" style="fill:#fff"/><path d="M766.64,172.6h1.05V184h-1.05Z" style="fill:#fff"/><path d="M691.75,205.27v4.28H690.7V198.69h.75l.13,1.41h.11a3.27,3.27,0,0,1,3.05-1.6c2.07,0,3.71,1.66,3.71,4.15s-1.64,4.15-3.69,4.15a3,3,0,0,1-3-1.53Zm2.83.62a3.26,3.26,0,1,0-2.88-3.24A2.95,2.95,0,0,0,694.58,205.89Z" style="fill:#fff"/><path d="M705,199.54h-.4a2.27,2.27,0,0,0-2.22,2.32v4.75h-1.05v-7.92h.75l.11,1.47h.06a2.51,2.51,0,0,1,2.34-1.49H705Z" style="fill:#fff"/><path d="M710.43,206.8a3.88,3.88,0,0,1-4-4.11,4,4,0,1,1,7.9,0A3.89,3.89,0,0,1,710.43,206.8Zm2.88-4.11a2.92,2.92,0,1,0-5.79,0,2.91,2.91,0,1,0,5.79,0Z" style="fill:#fff"/><path d="M717.23,198.69H718l.11,1.3h.08a3.36,3.36,0,0,1,5.71.21H724a3.11,3.11,0,0,1,2.94-1.7c2.09,0,3.24,1.53,3.24,3.67v4.43h-1.05v-4.32c0-1.64-.79-2.88-2.39-2.88a2.45,2.45,0,0,0-2.47,2.49v4.71h-1.06v-4.67a2.29,2.29,0,0,0-2.43-2.52,2.39,2.39,0,0,0-2.45,2.39v4.81h-1.05Z" style="fill:#fff"/><path d="M739.63,205.91a4,4,0,0,1-2.79.9,3.79,3.79,0,0,1-3.94-4.13c0-2.49,1.49-4.18,3.67-4.18s3.47,1.68,3.47,3.9v.26H734v0a2.88,2.88,0,0,0,2.92,3.2,3.55,3.55,0,0,0,2.32-.75ZM734,201.8H739a2.31,2.31,0,0,0-2.37-2.39A2.48,2.48,0,0,0,734,201.8Z" style="fill:#fff"/><path d="M749,200v-4.82h1.06v11.4h-.74l-.15-1.49h-.06A3.26,3.26,0,0,1,746,206.8a4.17,4.17,0,0,1,0-8.29,3.09,3.09,0,0,1,3,1.53Zm-2.81-.62a3.26,3.26,0,1,0,2.88,3.24A3,3,0,0,0,746.19,199.41Z" style="fill:#fff"/><path d="M753.26,196a.76.76,0,1,1,1.53,0,.76.76,0,0,1-1.53,0Zm.24,2.71h1.06v7.92H753.5Z" style="fill:#fff"/><path d="M761.4,206.8a3.88,3.88,0,0,1-4-4.11,4,4,0,1,1,7.9,0A3.89,3.89,0,0,1,761.4,206.8Zm2.88-4.11a2.92,2.92,0,1,0-5.79,0,2.91,2.91,0,1,0,5.79,0Z" style="fill:#fff"/><circle cx="934.87" cy="77.43" r="15.52" style="fill:#e6a000"/><path d="M959.82,69.34h6.95v1.38h-5.37v2H966v1.3h-4.56v3.06h-1.58Z" style="fill:#3f3f3f"/><path d="M970.9,73.16l-3-3.82h1.93L971.9,72,974,69.34h1.9l-3,3.81,3.15,4H974l-2.21-2.79-2.26,2.79h-1.9Z" style="fill:#3f3f3f"/><circle cx="934.87" cy="122.86" r="15.52" style="fill:#e6a000"/><path d="M959.34,118.6a3.83,3.83,0,0,1,.31-1.55,3.55,3.55,0,0,1,.91-1.25A4.3,4.3,0,0,1,962,115a5.8,5.8,0,0,1,1.94-.3,7.4,7.4,0,0,1,1.74.19,5.52,5.52,0,0,1,1.47.58l-.73,1.19a2.48,2.48,0,0,0-.47-.24,4.13,4.13,0,0,0-.57-.18,5.64,5.64,0,0,0-.62-.11,5,5,0,0,0-.63,0,4.45,4.45,0,0,0-1.35.19,2.92,2.92,0,0,0-1,.52,2.23,2.23,0,0,0-.62.8,2.45,2.45,0,0,0-.21,1,2.52,2.52,0,0,0,.22,1.06,2.34,2.34,0,0,0,.63.83,3,3,0,0,0,1,.55,4.34,4.34,0,0,0,1.35.2,4.66,4.66,0,0,0,.68,0,5.48,5.48,0,0,0,.65-.14,5.26,5.26,0,0,0,.61-.21,5,5,0,0,0,.55-.27l.73,1.19a5.39,5.39,0,0,1-1.47.64,6.61,6.61,0,0,1-1.77.23,6.48,6.48,0,0,1-2.1-.31,4.34,4.34,0,0,1-1.51-.86,3.51,3.51,0,0,1-.91-1.28A4.12,4.12,0,0,1,959.34,118.6Z" style="fill:#3f3f3f"/><path d="M969.56,114.76h4a5.72,5.72,0,0,1,1.55.19,3,3,0,0,1,1.09.54,2.17,2.17,0,0,1,.64.86,3,3,0,0,1,.21,1.15,3.19,3.19,0,0,1-.1.82,2.4,2.4,0,0,1-.87,1.3,2.94,2.94,0,0,1-.77.42l1.69,2.49H975l-1.46-2.21h-2.43v2.21h-1.58Zm4,4.2a2.65,2.65,0,0,0,.78-.1,1.6,1.6,0,0,0,.56-.29,1.17,1.17,0,0,0,.34-.46,1.56,1.56,0,0,0,.11-.6,1.21,1.21,0,0,0-.45-1,2.14,2.14,0,0,0-1.35-.36h-2.42V119Z" style="fill:#3f3f3f"/><path d="M981.66,120.61l-3.39-5.84H980l2.39,4.42,2.36-4.42h1.78l-3.35,5.83v1.93h-1.58Z" style="fill:#3f3f3f"/><path d="M988.18,114.76h4.1a5.47,5.47,0,0,1,1.55.19,3,3,0,0,1,1.09.56,2.25,2.25,0,0,1,.64.89,3.17,3.17,0,0,1,.21,1.19,3.1,3.1,0,0,1-.21,1.15,2.4,2.4,0,0,1-.64.91,3,3,0,0,1-1.09.6,5,5,0,0,1-1.55.22h-2.53v2.06h-1.58Zm4.13,4.34a2.58,2.58,0,0,0,.78-.11,1.58,1.58,0,0,0,.56-.3,1.22,1.22,0,0,0,.34-.48,1.68,1.68,0,0,0,.11-.62,1.34,1.34,0,0,0-.45-1.08,2,2,0,0,0-1.34-.38h-2.56v3Z" style="fill:#3f3f3f"/><path d="M1000.24,116.15h-2.87v-1.38h7.31v1.38h-2.87v6.39h-1.58Z" style="fill:#3f3f3f"/><path d="M1006.31,118.63a4,4,0,0,1,.32-1.61,3.66,3.66,0,0,1,.91-1.25,4.11,4.11,0,0,1,1.4-.81,5.81,5.81,0,0,1,3.62,0,4.11,4.11,0,0,1,1.4.81,3.66,3.66,0,0,1,.91,1.25,4,4,0,0,1,.32,1.61,4,4,0,0,1-.32,1.62,3.72,3.72,0,0,1-.91,1.27,4.15,4.15,0,0,1-1.4.83,5.69,5.69,0,0,1-3.62,0,4.16,4.16,0,0,1-1.4-.83,3.72,3.72,0,0,1-.91-1.27A4,4,0,0,1,1006.31,118.63Zm1.58,0a2.63,2.63,0,0,0,.22,1.08,2.4,2.4,0,0,0,.6.82,2.71,2.71,0,0,0,.91.52,3.62,3.62,0,0,0,2.28,0,2.68,2.68,0,0,0,.91-.52,2.43,2.43,0,0,0,.6-.82,2.6,2.6,0,0,0,.22-1.08,2.57,2.57,0,0,0-.22-1.08,2.34,2.34,0,0,0-.6-.81,2.66,2.66,0,0,0-.91-.5,3.83,3.83,0,0,0-2.28,0,2.69,2.69,0,0,0-.91.5,2.31,2.31,0,0,0-.6.81A2.6,2.6,0,0,0,1007.89,118.63Z" style="fill:#3f3f3f"/><path d="M1017.2,121.67a.84.84,0,0,1,.08-.37,1,1,0,0,1,.24-.31,1.09,1.09,0,0,1,.37-.21,1.58,1.58,0,0,1,1,0,1.17,1.17,0,0,1,.42.27,1.2,1.2,0,0,1,.27.42,1.56,1.56,0,0,1,.1.56,2.24,2.24,0,0,1-.48,1.35,4.25,4.25,0,0,1-1.41,1.15l-.6-.84a4.3,4.3,0,0,0,.43-.26,2.86,2.86,0,0,0,.32-.26,1.85,1.85,0,0,0,.24-.27,2,2,0,0,0,.18-.3,1.41,1.41,0,0,1-.48-.08,1.2,1.2,0,0,1-.37-.21.88.88,0,0,1-.32-.69Z" style="fill:#3f3f3f"/><path d="M1025.82,114.76h2.85a7.78,7.78,0,0,1,2.17.27,4.2,4.2,0,0,1,1.52.77,3.09,3.09,0,0,1,.9,1.21,4.15,4.15,0,0,1,.3,1.6,4.1,4.1,0,0,1-.29,1.56,3.28,3.28,0,0,1-.89,1.24,4.28,4.28,0,0,1-1.52.82,7.1,7.1,0,0,1-2.17.3h-2.86Zm3.24,6.41a3.83,3.83,0,0,0,1.24-.18,2.43,2.43,0,0,0,.89-.51,2.12,2.12,0,0,0,.53-.8,3,3,0,0,0,.18-1.05,2.82,2.82,0,0,0-.18-1,2,2,0,0,0-.53-.78,2.45,2.45,0,0,0-.89-.49,4,4,0,0,0-1.24-.17h-1.66v5Z" style="fill:#3f3f3f"/><path d="M1035.07,119.58a2.76,2.76,0,0,1,.24-1.14,2.88,2.88,0,0,1,.7-1,3.42,3.42,0,0,1,1.12-.67,4.7,4.7,0,0,1,3,0,3.39,3.39,0,0,1,1.14.69,3,3,0,0,1,.72,1,3.22,3.22,0,0,1,.25,1.27c0,.06,0,.12,0,.18s0,.12,0,.18h-5.55a1.34,1.34,0,0,0,.31.48,1.94,1.94,0,0,0,.53.38,3.06,3.06,0,0,0,.74.25,4.57,4.57,0,0,0,.92.09,4.83,4.83,0,0,0,1-.11,7.38,7.38,0,0,0,1-.27l.5,1.12a6.09,6.09,0,0,1-.58.24,5.23,5.23,0,0,1-.62.17,6.35,6.35,0,0,1-.67.1q-.35,0-.74,0a5.73,5.73,0,0,1-1.73-.24,3.72,3.72,0,0,1-1.25-.65,2.69,2.69,0,0,1-.76-1A2.85,2.85,0,0,1,1035.07,119.58Zm5.64-.57a1.45,1.45,0,0,0-.25-.46,1.63,1.63,0,0,0-.42-.37,2.12,2.12,0,0,0-.58-.25,2.74,2.74,0,0,0-.72-.09,2.88,2.88,0,0,0-.76.09,2.33,2.33,0,0,0-.6.25,1.71,1.71,0,0,0-.43.37,1.4,1.4,0,0,0-.25.44Z" style="fill:#3f3f3f"/><path d="M1044.45,114.76h6.95v1.38H1046v2h4.56v1.3H1046v3.06h-1.58Z" style="fill:#3f3f3f"/><path d="M1053.91,115.87a1.19,1.19,0,0,1-.39-.06.94.94,0,0,1-.3-.17.73.73,0,0,1-.19-.25.69.69,0,0,1-.07-.3.7.7,0,0,1,.07-.31.72.72,0,0,1,.19-.25,1,1,0,0,1,.3-.17,1.17,1.17,0,0,1,.39-.06,1.18,1.18,0,0,1,.4.06,1,1,0,0,1,.3.17.72.72,0,0,1,.19.25.7.7,0,0,1,.07.31.69.69,0,0,1-.07.3.73.73,0,0,1-.19.25.94.94,0,0,1-.3.17A1.21,1.21,0,0,1,1053.91,115.87Zm-.74.8h1.47v5.86h-1.47Z" style="fill:#3f3f3f"/><path d="M1057,121.67a.84.84,0,0,1,.08-.37,1,1,0,0,1,.24-.31,1.09,1.09,0,0,1,.37-.21,1.58,1.58,0,0,1,1,0,1.17,1.17,0,0,1,.42.27,1.2,1.2,0,0,1,.27.42,1.56,1.56,0,0,1,.1.56,2.24,2.24,0,0,1-.48,1.35,4.25,4.25,0,0,1-1.41,1.15l-.6-.84a4.3,4.3,0,0,0,.43-.26,2.86,2.86,0,0,0,.32-.26,1.85,1.85,0,0,0,.24-.27,2,2,0,0,0,.18-.3,1.41,1.41,0,0,1-.48-.08,1.2,1.2,0,0,1-.37-.21.88.88,0,0,1-.32-.69Z" style="fill:#3f3f3f"/><path d="M959.82,127h1.58l2.82,2.83L967,127h1.58v7.77H967v-5.59l-2.82,2.72-2.82-2.72v5.59h-1.58Z" style="fill:#3f3f3f"/><path d="M971.24,127h6.62v1.38h-5v1.55h4.46v1.3h-4.46v2.16H978v1.38h-6.72Z" style="fill:#3f3f3f"/><path d="M982.45,128.36h-2.87V127h7.31v1.38H984v6.39h-1.58Z" style="fill:#3f3f3f"/><path d="M991.63,127h1.67l3.76,7.77H995.4l-.62-1.31h-4.54l-.6,1.31H988Zm2.53,5.16-1.68-3.53-1.64,3.53Z" style="fill:#3f3f3f"/><path d="M997.64,127h1.75l2.44,5.92,2.44-5.92H1006l-3.41,7.77H1001Z" style="fill:#3f3f3f"/><path d="M1007.58,127h6.62v1.38h-5v1.55h4.46v1.3h-4.46v2.16h5.14v1.38h-6.72Z" style="fill:#3f3f3f"/><path d="M1016.46,127h4a5.72,5.72,0,0,1,1.55.19,3,3,0,0,1,1.09.54,2.17,2.17,0,0,1,.64.86,3,3,0,0,1,.21,1.15,3.19,3.19,0,0,1-.1.82,2.4,2.4,0,0,1-.87,1.3,2.94,2.94,0,0,1-.77.42l1.69,2.49h-1.93l-1.46-2.21H1018v2.21h-1.58Zm4,4.2a2.65,2.65,0,0,0,.78-.1,1.6,1.6,0,0,0,.56-.29,1.17,1.17,0,0,0,.34-.46,1.56,1.56,0,0,0,.11-.6,1.21,1.21,0,0,0-.45-1,2.14,2.14,0,0,0-1.35-.36H1018v2.82Z" style="fill:#3f3f3f"/><path d="M1026.54,132.44q.42.24.86.43a6.82,6.82,0,0,0,.9.32,7.21,7.21,0,0,0,1,.2,8.26,8.26,0,0,0,1.1.07,6.59,6.59,0,0,0,1.19-.09,2.93,2.93,0,0,0,.8-.25,1.14,1.14,0,0,0,.45-.38.89.89,0,0,0,.14-.49.78.78,0,0,0-.35-.67,1.92,1.92,0,0,0-1.09-.25,5.78,5.78,0,0,0-.68,0l-.72.09-.72.09a5.62,5.62,0,0,1-.67,0,3.69,3.69,0,0,1-1-.13,2.67,2.67,0,0,1-.85-.4,2,2,0,0,1-.59-.67,1.94,1.94,0,0,1-.22-.94,2.37,2.37,0,0,1,.09-.63,2.05,2.05,0,0,1,.28-.6,2.42,2.42,0,0,1,.49-.53,3,3,0,0,1,.73-.43,4.81,4.81,0,0,1,1-.28,7.24,7.24,0,0,1,1.29-.1,9.7,9.7,0,0,1,1,.06q.53.06,1,.16t1,.25a8.2,8.2,0,0,1,.86.33l-.69,1.27c-.22-.1-.45-.18-.71-.27s-.52-.15-.79-.21-.56-.11-.85-.14a7.55,7.55,0,0,0-.9-.05,5.05,5.05,0,0,0-1.07.09,2.35,2.35,0,0,0-.67.24.88.88,0,0,0-.35.33.76.76,0,0,0-.1.36.67.67,0,0,0,.31.57,1.66,1.66,0,0,0,1,.22,5.32,5.32,0,0,0,.59,0l.71-.08.76-.08q.39,0,.75,0a4.36,4.36,0,0,1,1.21.15,2.54,2.54,0,0,1,.89.44,1.85,1.85,0,0,1,.54.69,2.16,2.16,0,0,1,.18.91,2.3,2.3,0,0,1-.31,1.2,2.62,2.62,0,0,1-.88.88,4.47,4.47,0,0,1-1.38.55,8.07,8.07,0,0,1-1.8.19,9.86,9.86,0,0,1-1.28-.08,9.63,9.63,0,0,1-1.2-.23,9,9,0,0,1-1.09-.36,7.93,7.93,0,0,1-1-.46Z" style="fill:#3f3f3f"/><path d="M1036.76,127h6.62v1.38h-5v1.55h4.46v1.3h-4.46v2.16h5.14v1.38h-6.72Z" style="fill:#3f3f3f"/><circle cx="934.87" cy="168.28" r="15.52" style="fill:#e6a000"/><path d="M959.62,160.19h1.59V168h-1.59Z" style="fill:#3f3f3f"/><path d="M963.61,160.19h1.58l4.84,2.54v-2.54h1.58V168H970v-3.56l-4.84-2.52V168h-1.58Z" style="fill:#3f3f3f"/><path d="M974.2,160.19h2.85a7.78,7.78,0,0,1,2.17.27,4.2,4.2,0,0,1,1.52.77,3.09,3.09,0,0,1,.9,1.21,4.15,4.15,0,0,1,.3,1.6,4.1,4.1,0,0,1-.29,1.56,3.28,3.28,0,0,1-.89,1.24,4.28,4.28,0,0,1-1.52.82,7.1,7.1,0,0,1-2.17.3H974.2Zm3.24,6.41a3.83,3.83,0,0,0,1.24-.18,2.43,2.43,0,0,0,.89-.51,2.12,2.12,0,0,0,.53-.8,3,3,0,0,0,.18-1.05,2.82,2.82,0,0,0-.18-1,2,2,0,0,0-.53-.78,2.45,2.45,0,0,0-.89-.49,4,4,0,0,0-1.24-.17h-1.66v5Z" style="fill:#3f3f3f"/><path d="M983.73,160.19h1.59V168h-1.59Z" style="fill:#3f3f3f"/><path d="M987.25,164a3.83,3.83,0,0,1,.31-1.55,3.55,3.55,0,0,1,.91-1.25,4.3,4.3,0,0,1,1.45-.83,5.8,5.8,0,0,1,1.94-.3,7.4,7.4,0,0,1,1.74.19,5.52,5.52,0,0,1,1.47.58l-.73,1.19a2.48,2.48,0,0,0-.47-.24,4.13,4.13,0,0,0-.57-.18,5.64,5.64,0,0,0-.62-.11,5,5,0,0,0-.63,0,4.45,4.45,0,0,0-1.35.19,2.92,2.92,0,0,0-1,.52,2.23,2.23,0,0,0-.62.8,2.45,2.45,0,0,0-.21,1,2.52,2.52,0,0,0,.22,1.06,2.34,2.34,0,0,0,.63.83,3,3,0,0,0,1,.55,4.34,4.34,0,0,0,1.35.2,4.66,4.66,0,0,0,.68,0,5.48,5.48,0,0,0,.65-.14,5.26,5.26,0,0,0,.61-.21,5,5,0,0,0,.55-.27l.73,1.19a5.39,5.39,0,0,1-1.47.64,6.61,6.61,0,0,1-1.77.23,6.48,6.48,0,0,1-2.1-.31,4.34,4.34,0,0,1-1.51-.86,3.51,3.51,0,0,1-.91-1.28A4.12,4.12,0,0,1,987.25,164Z" style="fill:#3f3f3f"/><path d="M997.47,160.19h6.62v1.38h-5v1.55h4.46v1.3H999v2.16h5.14V168h-6.72Z" style="fill:#3f3f3f"/><path d="M1006.71,165.64q.42.24.86.43a6.82,6.82,0,0,0,.9.32,7.21,7.21,0,0,0,1,.2,8.26,8.26,0,0,0,1.1.07,6.59,6.59,0,0,0,1.19-.09,2.93,2.93,0,0,0,.8-.25,1.14,1.14,0,0,0,.45-.38.89.89,0,0,0,.14-.49.78.78,0,0,0-.35-.67,1.92,1.92,0,0,0-1.09-.25,5.78,5.78,0,0,0-.68,0l-.72.09-.72.09a5.62,5.62,0,0,1-.67,0,3.69,3.69,0,0,1-1-.13,2.67,2.67,0,0,1-.85-.4,2,2,0,0,1-.59-.67,1.94,1.94,0,0,1-.22-.94,2.37,2.37,0,0,1,.09-.63,2.05,2.05,0,0,1,.28-.6,2.42,2.42,0,0,1,.49-.53,3,3,0,0,1,.73-.43,4.81,4.81,0,0,1,1-.28,7.24,7.24,0,0,1,1.29-.1,9.7,9.7,0,0,1,1,.06q.53.06,1,.16t1,.25a8.2,8.2,0,0,1,.86.33l-.69,1.27c-.22-.1-.45-.18-.71-.27s-.52-.15-.79-.21-.56-.11-.85-.14a7.55,7.55,0,0,0-.9-.05,5.05,5.05,0,0,0-1.07.09,2.35,2.35,0,0,0-.67.24.88.88,0,0,0-.35.33.76.76,0,0,0-.1.36.67.67,0,0,0,.31.57,1.66,1.66,0,0,0,1,.22,5.32,5.32,0,0,0,.59,0l.71-.08.76-.08q.39,0,.75,0a4.36,4.36,0,0,1,1.21.15,2.54,2.54,0,0,1,.89.44,1.85,1.85,0,0,1,.54.69,2.16,2.16,0,0,1,.18.91,2.3,2.3,0,0,1-.31,1.2,2.62,2.62,0,0,1-.88.88,4.47,4.47,0,0,1-1.38.55,8.07,8.07,0,0,1-1.8.19,9.86,9.86,0,0,1-1.28-.08,9.63,9.63,0,0,1-1.2-.23,9,9,0,0,1-1.09-.36,7.93,7.93,0,0,1-1-.46Z" style="fill:#3f3f3f"/><path d="M960.18,177.86q.42.24.86.43a6.82,6.82,0,0,0,.9.32,7.21,7.21,0,0,0,1,.2,8.26,8.26,0,0,0,1.1.07,6.59,6.59,0,0,0,1.19-.09,2.93,2.93,0,0,0,.8-.25,1.14,1.14,0,0,0,.45-.38.89.89,0,0,0,.14-.49.78.78,0,0,0-.35-.67,1.92,1.92,0,0,0-1.09-.25,5.78,5.78,0,0,0-.68,0l-.72.09L963,177a5.62,5.62,0,0,1-.67,0,3.69,3.69,0,0,1-1-.13,2.67,2.67,0,0,1-.85-.4,2,2,0,0,1-.59-.67,1.94,1.94,0,0,1-.22-.94,2.37,2.37,0,0,1,.09-.63,2.05,2.05,0,0,1,.28-.6,2.42,2.42,0,0,1,.49-.53,3,3,0,0,1,.73-.43,4.81,4.81,0,0,1,1-.28,7.24,7.24,0,0,1,1.29-.1,9.7,9.7,0,0,1,1,.06q.53.06,1,.16t1,.25a8.2,8.2,0,0,1,.86.33l-.69,1.27c-.22-.1-.45-.18-.71-.27s-.52-.15-.79-.21-.56-.11-.85-.14a7.55,7.55,0,0,0-.9-.05,5.05,5.05,0,0,0-1.07.09,2.35,2.35,0,0,0-.67.24.88.88,0,0,0-.35.33.76.76,0,0,0-.1.36.67.67,0,0,0,.31.57,1.66,1.66,0,0,0,1,.22,5.32,5.32,0,0,0,.59,0l.71-.08.76-.08q.39,0,.75,0a4.36,4.36,0,0,1,1.21.15,2.54,2.54,0,0,1,.89.44,1.85,1.85,0,0,1,.54.69,2.16,2.16,0,0,1,.18.91,2.3,2.3,0,0,1-.31,1.2,2.62,2.62,0,0,1-.88.88,4.47,4.47,0,0,1-1.38.55,8.07,8.07,0,0,1-1.8.19,9.86,9.86,0,0,1-1.28-.08,9.63,9.63,0,0,1-1.2-.23,9,9,0,0,1-1.09-.36,7.93,7.93,0,0,1-1-.46Z" style="fill:#3f3f3f"/><path d="M972.74,173.78h-2.87V172.4h7.31v1.38h-2.87v6.39h-1.58Z" style="fill:#3f3f3f"/><path d="M978.82,176.26a4,4,0,0,1,.32-1.61,3.66,3.66,0,0,1,.91-1.25,4.11,4.11,0,0,1,1.4-.81,5.81,5.81,0,0,1,3.62,0,4.11,4.11,0,0,1,1.4.81,3.66,3.66,0,0,1,.91,1.25,4,4,0,0,1,.32,1.61,4,4,0,0,1-.32,1.62,3.72,3.72,0,0,1-.91,1.27,4.15,4.15,0,0,1-1.4.83,5.69,5.69,0,0,1-3.62,0,4.16,4.16,0,0,1-1.4-.83,3.72,3.72,0,0,1-.91-1.27A4,4,0,0,1,978.82,176.26Zm1.58,0a2.63,2.63,0,0,0,.22,1.08,2.4,2.4,0,0,0,.6.82,2.71,2.71,0,0,0,.91.52,3.62,3.62,0,0,0,2.28,0,2.68,2.68,0,0,0,.91-.52,2.43,2.43,0,0,0,.6-.82,2.6,2.6,0,0,0,.22-1.08,2.57,2.57,0,0,0-.22-1.08,2.34,2.34,0,0,0-.6-.81,2.66,2.66,0,0,0-.91-.5,3.83,3.83,0,0,0-2.28,0,2.69,2.69,0,0,0-.91.5,2.31,2.31,0,0,0-.6.81A2.6,2.6,0,0,0,980.39,176.26Z" style="fill:#3f3f3f"/><path d="M989.39,176.24a3.83,3.83,0,0,1,.31-1.55,3.55,3.55,0,0,1,.91-1.25,4.3,4.3,0,0,1,1.45-.83,5.8,5.8,0,0,1,1.94-.3,7.4,7.4,0,0,1,1.74.19,5.52,5.52,0,0,1,1.47.58l-.73,1.19A2.48,2.48,0,0,0,996,174a4.13,4.13,0,0,0-.57-.18,5.64,5.64,0,0,0-.62-.11,5,5,0,0,0-.63,0,4.45,4.45,0,0,0-1.35.19,2.92,2.92,0,0,0-1,.52,2.23,2.23,0,0,0-.62.8,2.45,2.45,0,0,0-.21,1,2.52,2.52,0,0,0,.22,1.06,2.34,2.34,0,0,0,.63.83,3,3,0,0,0,1,.55,4.34,4.34,0,0,0,1.35.2,4.66,4.66,0,0,0,.68,0,5.48,5.48,0,0,0,.65-.14,5.26,5.26,0,0,0,.61-.21,5,5,0,0,0,.55-.27l.73,1.19A5.39,5.39,0,0,1,996,180a6.61,6.61,0,0,1-1.77.23,6.48,6.48,0,0,1-2.1-.31,4.34,4.34,0,0,1-1.51-.86,3.51,3.51,0,0,1-.91-1.28A4.12,4.12,0,0,1,989.39,176.24Z" style="fill:#3f3f3f"/><path d="M999.61,172.4h1.58v4l4.1-4h2l-3.83,3.71,3.83,4.06h-2.1l-2.86-3-1.16,1.12v1.84h-1.58Z" style="fill:#3f3f3f"/><circle cx="934.87" cy="213.71" r="15.52" style="fill:#e6a000"/><path d="M959.82,205.61h6.62V207h-5v1.55h4.46v1.3h-4.46V212h5.14v1.38h-6.72Z" style="fill:#3f3f3f"/><path d="M971,207h-2.87v-1.38h7.31V207h-2.87v6.39H971Z" style="fill:#3f3f3f"/><path d="M977.56,205.61h6.95V207h-5.37v2h4.56v1.3h-4.56v3.06h-1.58Z" style="fill:#3f3f3f"/><path d="M986.49,211.58a4.57,4.57,0,0,0,1.31.53,6.33,6.33,0,0,0,1.47.17,4.33,4.33,0,0,0,.84-.07,2.08,2.08,0,0,0,.54-.18.73.73,0,0,0,.29-.25.54.54,0,0,0,.08-.28.45.45,0,0,0-.18-.36,1,1,0,0,0-.6-.15l-.42,0-.47.05-.51.05-.54,0a3.45,3.45,0,0,1-1-.13,1.9,1.9,0,0,1-.68-.35,1.31,1.31,0,0,1-.38-.53,1.8,1.8,0,0,1-.12-.66,1.67,1.67,0,0,1,.21-.83,2,2,0,0,1,.6-.65,3,3,0,0,1,.94-.43,4.54,4.54,0,0,1,1.22-.15,6.74,6.74,0,0,1,.74,0l.76.11.72.16a5.71,5.71,0,0,1,.61.2l-.46,1.14a8.33,8.33,0,0,0-1.12-.33,5.41,5.41,0,0,0-1.15-.12,3.37,3.37,0,0,0-.7.06,1.63,1.63,0,0,0-.46.16.71.71,0,0,0-.26.23.51.51,0,0,0-.08.28.42.42,0,0,0,0,.19.37.37,0,0,0,.14.15.77.77,0,0,0,.25.09,2,2,0,0,0,.38,0l.44,0,.49-.05.52-.05.55,0a3.11,3.11,0,0,1,.92.12,1.83,1.83,0,0,1,.65.35,1.43,1.43,0,0,1,.39.53,1.67,1.67,0,0,1,.13.66,1.79,1.79,0,0,1-.21.86,2,2,0,0,1-.64.69,3.31,3.31,0,0,1-1.05.46,5.78,5.78,0,0,1-1.45.16,7.42,7.42,0,0,1-1-.06,7.94,7.94,0,0,1-.9-.17,6.79,6.79,0,0,1-.8-.25,6.14,6.14,0,0,1-.68-.31Z" style="fill:#3f3f3f"/><path d="M959.34,221.67a3.83,3.83,0,0,1,.31-1.55,3.55,3.55,0,0,1,.91-1.25A4.3,4.3,0,0,1,962,218a5.8,5.8,0,0,1,1.94-.3,7.4,7.4,0,0,1,1.74.19,5.52,5.52,0,0,1,1.47.58l-.73,1.19a2.48,2.48,0,0,0-.47-.24,4.13,4.13,0,0,0-.57-.18,5.64,5.64,0,0,0-.62-.11,5,5,0,0,0-.63,0,4.45,4.45,0,0,0-1.35.19,2.92,2.92,0,0,0-1,.52,2.23,2.23,0,0,0-.62.8,2.45,2.45,0,0,0-.21,1,2.52,2.52,0,0,0,.22,1.06,2.34,2.34,0,0,0,.63.83,3,3,0,0,0,1,.55,4.34,4.34,0,0,0,1.35.2,4.66,4.66,0,0,0,.68,0,5.48,5.48,0,0,0,.65-.14,5.26,5.26,0,0,0,.61-.21,5,5,0,0,0,.55-.27l.73,1.19a5.39,5.39,0,0,1-1.47.64,6.61,6.61,0,0,1-1.77.23,6.48,6.48,0,0,1-2.1-.31,4.34,4.34,0,0,1-1.51-.86,3.51,3.51,0,0,1-.91-1.28A4.12,4.12,0,0,1,959.34,221.67Z" style="fill:#3f3f3f"/><path d="M969.11,221.69a4,4,0,0,1,.32-1.61,3.66,3.66,0,0,1,.91-1.25,4.11,4.11,0,0,1,1.4-.81,5.81,5.81,0,0,1,3.62,0,4.11,4.11,0,0,1,1.4.81,3.66,3.66,0,0,1,.91,1.25,4,4,0,0,1,.32,1.61,4,4,0,0,1-.32,1.62,3.72,3.72,0,0,1-.91,1.27,4.15,4.15,0,0,1-1.4.83,5.69,5.69,0,0,1-3.62,0,4.16,4.16,0,0,1-1.4-.83,3.72,3.72,0,0,1-.91-1.27A4,4,0,0,1,969.11,221.69Zm1.58,0a2.63,2.63,0,0,0,.22,1.08,2.4,2.4,0,0,0,.6.82,2.71,2.71,0,0,0,.91.52,3.62,3.62,0,0,0,2.28,0,2.68,2.68,0,0,0,.91-.52,2.43,2.43,0,0,0,.6-.82,2.6,2.6,0,0,0,.22-1.08,2.57,2.57,0,0,0-.22-1.08,2.34,2.34,0,0,0-.6-.81,2.66,2.66,0,0,0-.91-.5,3.83,3.83,0,0,0-2.28,0,2.69,2.69,0,0,0-.91.5,2.31,2.31,0,0,0-.6.81A2.6,2.6,0,0,0,970.68,221.69Z" style="fill:#3f3f3f"/><path d="M980.15,217.83h1.58l2.82,2.83,2.82-2.83h1.58v7.77h-1.58V220l-2.82,2.72L981.73,220v5.59h-1.58Z" style="fill:#3f3f3f"/><path d="M991.57,217.83h1.58l2.82,2.83,2.82-2.83h1.58v7.77H998.8V220L996,222.73,993.15,220v5.59h-1.58Z" style="fill:#3f3f3f"/><path d="M1002.53,221.69a4,4,0,0,1,.32-1.61,3.66,3.66,0,0,1,.91-1.25,4.11,4.11,0,0,1,1.4-.81,5.81,5.81,0,0,1,3.62,0,4.11,4.11,0,0,1,1.4.81,3.66,3.66,0,0,1,.91,1.25,4,4,0,0,1,.32,1.61,4,4,0,0,1-.32,1.62,3.72,3.72,0,0,1-.91,1.27,4.15,4.15,0,0,1-1.4.83,5.69,5.69,0,0,1-3.62,0,4.16,4.16,0,0,1-1.4-.83,3.72,3.72,0,0,1-.91-1.27A4,4,0,0,1,1002.53,221.69Zm1.58,0a2.63,2.63,0,0,0,.22,1.08,2.4,2.4,0,0,0,.6.82,2.71,2.71,0,0,0,.91.52,3.62,3.62,0,0,0,2.28,0,2.68,2.68,0,0,0,.91-.52,2.43,2.43,0,0,0,.6-.82,2.6,2.6,0,0,0,.22-1.08,2.57,2.57,0,0,0-.22-1.08,2.34,2.34,0,0,0-.6-.81,2.66,2.66,0,0,0-.91-.5,3.83,3.83,0,0,0-2.28,0,2.69,2.69,0,0,0-.91.5,2.31,2.31,0,0,0-.6.81A2.6,2.6,0,0,0,1004.11,221.69Z" style="fill:#3f3f3f"/><path d="M1013.58,217.83h2.85a7.78,7.78,0,0,1,2.17.27,4.2,4.2,0,0,1,1.52.77,3.09,3.09,0,0,1,.9,1.21,4.15,4.15,0,0,1,.3,1.6,4.1,4.1,0,0,1-.29,1.56,3.28,3.28,0,0,1-.89,1.24,4.28,4.28,0,0,1-1.52.82,7.1,7.1,0,0,1-2.17.3h-2.86Zm3.24,6.41a3.83,3.83,0,0,0,1.24-.18,2.43,2.43,0,0,0,.89-.51,2.12,2.12,0,0,0,.53-.8,3,3,0,0,0,.18-1.05,2.82,2.82,0,0,0-.18-1,2,2,0,0,0-.53-.78,2.45,2.45,0,0,0-.89-.49,4,4,0,0,0-1.24-.17h-1.66v5Z" style="fill:#3f3f3f"/><path d="M1023.1,217.83h1.59v7.77h-1.59Z" style="fill:#3f3f3f"/><path d="M1029.44,219.21h-2.87v-1.38h7.31v1.38H1031v6.39h-1.58Z" style="fill:#3f3f3f"/><path d="M1035.77,217.83h1.59v7.77h-1.59Z" style="fill:#3f3f3f"/><path d="M1039.77,217.83h6.62v1.38h-5v1.55h4.46v1.3h-4.46v2.16h5.14v1.38h-6.72Z" style="fill:#3f3f3f"/><path d="M1049,223.29q.42.24.86.43a6.82,6.82,0,0,0,.9.32,7.21,7.21,0,0,0,1,.2,8.26,8.26,0,0,0,1.1.07,6.59,6.59,0,0,0,1.19-.09,2.93,2.93,0,0,0,.8-.25,1.14,1.14,0,0,0,.45-.38.89.89,0,0,0,.14-.49.78.78,0,0,0-.35-.67,1.92,1.92,0,0,0-1.09-.25,5.78,5.78,0,0,0-.68,0l-.72.09-.72.09a5.62,5.62,0,0,1-.67,0,3.69,3.69,0,0,1-1-.13,2.67,2.67,0,0,1-.85-.4,2,2,0,0,1-.59-.67,1.94,1.94,0,0,1-.22-.94,2.37,2.37,0,0,1,.09-.63,2.05,2.05,0,0,1,.28-.6,2.42,2.42,0,0,1,.49-.53,3,3,0,0,1,.73-.43,4.81,4.81,0,0,1,1-.28,7.24,7.24,0,0,1,1.29-.1,9.7,9.7,0,0,1,1,.06q.53.06,1,.16t1,.25a8.2,8.2,0,0,1,.86.33l-.69,1.27c-.22-.1-.45-.18-.71-.27s-.52-.15-.79-.21-.56-.11-.85-.14a7.55,7.55,0,0,0-.9-.05,5.05,5.05,0,0,0-1.07.09,2.35,2.35,0,0,0-.67.24.88.88,0,0,0-.35.33.76.76,0,0,0-.1.36.67.67,0,0,0,.31.57,1.66,1.66,0,0,0,1,.22,5.32,5.32,0,0,0,.59,0l.71-.08.76-.08q.39,0,.75,0a4.36,4.36,0,0,1,1.21.15,2.54,2.54,0,0,1,.89.44,1.85,1.85,0,0,1,.54.69,2.16,2.16,0,0,1,.18.91,2.3,2.3,0,0,1-.31,1.2,2.62,2.62,0,0,1-.88.88,4.47,4.47,0,0,1-1.38.55,8.07,8.07,0,0,1-1.8.19,9.86,9.86,0,0,1-1.28-.08,9.63,9.63,0,0,1-1.2-.23,9,9,0,0,1-1.09-.36,7.93,7.93,0,0,1-1-.46Z" style="fill:#3f3f3f"/><circle cx="728.34" cy="382.64" r="91.84" style="fill:#666"/><path d="M668.72,370.53h9.77v1.94h-7.56v2.86h6.42v1.83h-6.42v4.3h-2.22Z" style="fill:#fff"/><path d="M680.56,376a5.55,5.55,0,0,1,.45-2.27,5.13,5.13,0,0,1,1.28-1.76,5.8,5.8,0,0,1,2-1.14,8.21,8.21,0,0,1,5.09,0,5.79,5.79,0,0,1,2,1.14,5.14,5.14,0,0,1,1.28,1.76,5.53,5.53,0,0,1,.46,2.27,5.62,5.62,0,0,1-.46,2.28,5.21,5.21,0,0,1-1.28,1.79,5.83,5.83,0,0,1-2,1.17,8,8,0,0,1-5.09,0,5.84,5.84,0,0,1-2-1.17,5.2,5.2,0,0,1-1.28-1.79A5.64,5.64,0,0,1,680.56,376Zm2.22,0a3.68,3.68,0,0,0,.3,1.52,3.36,3.36,0,0,0,.85,1.16,3.8,3.8,0,0,0,1.28.74,5.1,5.1,0,0,0,3.21,0,3.77,3.77,0,0,0,1.28-.74,3.43,3.43,0,0,0,.85-1.16,3.65,3.65,0,0,0,.31-1.52,3.6,3.6,0,0,0-.31-1.52,3.3,3.3,0,0,0-.85-1.14,3.74,3.74,0,0,0-1.28-.71,5.39,5.39,0,0,0-3.21,0,3.78,3.78,0,0,0-1.28.71,3.24,3.24,0,0,0-.85,1.14A3.63,3.63,0,0,0,682.78,376Z" style="fill:#fff"/><path d="M696.08,370.53h2.22l6.81,3.57v-3.57h2.22v10.93h-2.22v-5l-6.81-3.54v8.56h-2.22Z" style="fill:#fff"/><path d="M711,370.53h4a10.93,10.93,0,0,1,3,.38,5.9,5.9,0,0,1,2.14,1.08,4.35,4.35,0,0,1,1.27,1.71,5.84,5.84,0,0,1,.42,2.25,5.75,5.75,0,0,1-.41,2.2,4.6,4.6,0,0,1-1.26,1.75,6,6,0,0,1-2.14,1.15,10,10,0,0,1-3,.42h-4Zm4.55,9a5.4,5.4,0,0,0,1.74-.25,3.39,3.39,0,0,0,1.25-.72,3,3,0,0,0,.75-1.13,4.16,4.16,0,0,0,.25-1.48,4,4,0,0,0-.25-1.45,2.84,2.84,0,0,0-.75-1.1,3.42,3.42,0,0,0-1.25-.7,5.6,5.6,0,0,0-1.74-.25h-2.34v7.08Z" style="fill:#fff"/><path d="M724,376a5.55,5.55,0,0,1,.45-2.27,5.13,5.13,0,0,1,1.28-1.76,5.8,5.8,0,0,1,2-1.14,8.21,8.21,0,0,1,5.09,0,5.79,5.79,0,0,1,2,1.14,5.14,5.14,0,0,1,1.28,1.76,5.53,5.53,0,0,1,.46,2.27,5.62,5.62,0,0,1-.46,2.28,5.21,5.21,0,0,1-1.28,1.79,5.83,5.83,0,0,1-2,1.17,8,8,0,0,1-5.09,0,5.84,5.84,0,0,1-2-1.17,5.2,5.2,0,0,1-1.28-1.79A5.64,5.64,0,0,1,724,376Zm2.22,0a3.68,3.68,0,0,0,.3,1.52,3.36,3.36,0,0,0,.85,1.16,3.8,3.8,0,0,0,1.28.74,5.1,5.1,0,0,0,3.21,0,3.77,3.77,0,0,0,1.28-.74,3.43,3.43,0,0,0,.85-1.16,3.65,3.65,0,0,0,.31-1.52,3.6,3.6,0,0,0-.31-1.52,3.3,3.3,0,0,0-.85-1.14,3.74,3.74,0,0,0-1.28-.71,5.39,5.39,0,0,0-3.21,0,3.78,3.78,0,0,0-1.28.71,3.24,3.24,0,0,0-.85,1.14A3.63,3.63,0,0,0,726.24,376Z" style="fill:#fff"/><path d="M740.07,378.21q.59.34,1.21.6a9.55,9.55,0,0,0,1.27.45,9.84,9.84,0,0,0,1.38.28,11.48,11.48,0,0,0,1.54.1,9.32,9.32,0,0,0,1.68-.13,4.09,4.09,0,0,0,1.13-.36,1.6,1.6,0,0,0,.64-.54,1.26,1.26,0,0,0,.2-.69,1.09,1.09,0,0,0-.5-.94,2.71,2.71,0,0,0-1.53-.35,8.08,8.08,0,0,0-1,.06l-1,.13-1,.13a8.13,8.13,0,0,1-.94.06,5.21,5.21,0,0,1-1.41-.19,3.71,3.71,0,0,1-1.2-.57,2.8,2.8,0,0,1-.83-.94,2.73,2.73,0,0,1-.31-1.32,3.33,3.33,0,0,1,.12-.89,2.94,2.94,0,0,1,.39-.84,3.46,3.46,0,0,1,.7-.75,4.17,4.17,0,0,1,1-.6,6.72,6.72,0,0,1,1.4-.39,10.23,10.23,0,0,1,1.81-.14,13.63,13.63,0,0,1,1.47.08q.74.08,1.44.23a13.89,13.89,0,0,1,1.35.35,11.43,11.43,0,0,1,1.21.46l-1,1.79a10.51,10.51,0,0,0-1-.37q-.53-.17-1.11-.3t-1.2-.2a10.74,10.74,0,0,0-1.26-.07,7,7,0,0,0-1.51.13,3.31,3.31,0,0,0-.94.34,1.24,1.24,0,0,0-.49.46,1.07,1.07,0,0,0-.14.51,1,1,0,0,0,.44.8,2.34,2.34,0,0,0,1.34.31,7.64,7.64,0,0,0,.84-.05l1-.12,1.06-.12q.54-.05,1.05-.05a6.17,6.17,0,0,1,1.71.22,3.59,3.59,0,0,1,1.25.62,2.61,2.61,0,0,1,.76,1,3,3,0,0,1,.26,1.28,3.24,3.24,0,0,1-.44,1.68,3.69,3.69,0,0,1-1.25,1.24,6.27,6.27,0,0,1-1.95.77,11.34,11.34,0,0,1-2.54.26,13.83,13.83,0,0,1-1.8-.12,13.22,13.22,0,0,1-1.69-.33,12.62,12.62,0,0,1-1.54-.51,11.31,11.31,0,0,1-1.35-.65Z" style="fill:#fff"/><path d="M759.78,370.53h4a10.93,10.93,0,0,1,3,.38A5.9,5.9,0,0,1,769,372a4.35,4.35,0,0,1,1.27,1.71,5.84,5.84,0,0,1,.42,2.25,5.75,5.75,0,0,1-.41,2.2A4.6,4.6,0,0,1,769,379.9a6,6,0,0,1-2.14,1.15,10,10,0,0,1-3,.42h-4Zm4.55,9a5.4,5.4,0,0,0,1.74-.25,3.39,3.39,0,0,0,1.25-.72,3,3,0,0,0,.75-1.13,4.16,4.16,0,0,0,.25-1.48,4,4,0,0,0-.25-1.45,2.84,2.84,0,0,0-.75-1.1,3.42,3.42,0,0,0-1.25-.7,5.6,5.6,0,0,0-1.74-.25H762v7.08Z" style="fill:#fff"/><path d="M773.46,370.53h9.31v1.94h-7.09v2.18H782v1.83h-6.28v3h7.24v1.94h-9.45Z" style="fill:#fff"/><path d="M672.57,387.72h2.23v10.93h-2.23Z" style="fill:#fff"/><path d="M678.19,387.72h2.22l6.81,3.57v-3.57h2.22v10.93h-2.22v-5l-6.81-3.54v8.56h-2.22Z" style="fill:#fff"/><path d="M691.63,387.72h2.45l3.43,8.33,3.43-8.33h2.45l-4.79,10.93h-2.2Z" style="fill:#fff"/><path d="M705.62,387.72h9.31v1.94h-7.09v2.18h6.28v1.83h-6.28v3h7.24v1.94h-9.45Z" style="fill:#fff"/><path d="M718.11,387.72h5.56a8,8,0,0,1,2.18.26,4.23,4.23,0,0,1,1.53.76,3.06,3.06,0,0,1,.91,1.21,4.16,4.16,0,0,1,.3,1.62,4.47,4.47,0,0,1-.15,1.16,3.39,3.39,0,0,1-1.22,1.83,4.15,4.15,0,0,1-1.08.6l2.38,3.5H725.8l-2.06-3.1h-3.42v3.11h-2.22Zm5.61,5.9a3.73,3.73,0,0,0,1.1-.15,2.28,2.28,0,0,0,.79-.41,1.66,1.66,0,0,0,.48-.65,2.21,2.21,0,0,0,.16-.85,1.7,1.7,0,0,0-.63-1.42,3,3,0,0,0-1.89-.5h-3.4v4Z" style="fill:#fff"/><path d="M732.29,395.4q.59.34,1.21.6a9.55,9.55,0,0,0,1.27.45,9.84,9.84,0,0,0,1.38.28,11.48,11.48,0,0,0,1.54.1,9.32,9.32,0,0,0,1.68-.13,4.09,4.09,0,0,0,1.13-.36,1.6,1.6,0,0,0,.64-.54,1.26,1.26,0,0,0,.2-.69,1.09,1.09,0,0,0-.5-.94,2.71,2.71,0,0,0-1.53-.35,8.08,8.08,0,0,0-1,.06l-1,.13-1,.13a8.13,8.13,0,0,1-.94.06A5.21,5.21,0,0,1,734,394a3.71,3.71,0,0,1-1.2-.57,2.8,2.8,0,0,1-.83-.94,2.73,2.73,0,0,1-.31-1.32,3.33,3.33,0,0,1,.12-.89,2.94,2.94,0,0,1,.39-.84,3.46,3.46,0,0,1,.7-.75,4.17,4.17,0,0,1,1-.6,6.72,6.72,0,0,1,1.4-.39,10.23,10.23,0,0,1,1.81-.14,13.63,13.63,0,0,1,1.47.08q.74.08,1.44.23a13.89,13.89,0,0,1,1.35.35,11.43,11.43,0,0,1,1.21.46l-1,1.79a10.51,10.51,0,0,0-1-.37q-.53-.17-1.11-.3t-1.2-.2a10.74,10.74,0,0,0-1.26-.07,7,7,0,0,0-1.51.13,3.31,3.31,0,0,0-.94.34,1.24,1.24,0,0,0-.49.46,1.07,1.07,0,0,0-.14.51,1,1,0,0,0,.44.8,2.34,2.34,0,0,0,1.34.31,7.64,7.64,0,0,0,.84-.05l1-.12,1.06-.12q.54-.05,1.05-.05a6.17,6.17,0,0,1,1.71.22,3.59,3.59,0,0,1,1.25.62,2.61,2.61,0,0,1,.76,1,3,3,0,0,1,.26,1.28,3.24,3.24,0,0,1-.44,1.68,3.69,3.69,0,0,1-1.25,1.24,6.27,6.27,0,0,1-1.95.77,11.34,11.34,0,0,1-2.54.26,13.83,13.83,0,0,1-1.8-.12,13.22,13.22,0,0,1-1.69-.33,12.62,12.62,0,0,1-1.54-.51,11.31,11.31,0,0,1-1.35-.65Z" style="fill:#fff"/><path d="M746.39,387.72h2.23v10.93h-2.23Z" style="fill:#fff"/><path d="M751.38,393.15a5.55,5.55,0,0,1,.45-2.27,5.13,5.13,0,0,1,1.28-1.76,5.8,5.8,0,0,1,2-1.14,8.21,8.21,0,0,1,5.09,0,5.79,5.79,0,0,1,2,1.14,5.14,5.14,0,0,1,1.28,1.76,5.53,5.53,0,0,1,.46,2.27,5.62,5.62,0,0,1-.46,2.28,5.21,5.21,0,0,1-1.28,1.79,5.83,5.83,0,0,1-2,1.17,8,8,0,0,1-5.09,0,5.84,5.84,0,0,1-2-1.17,5.2,5.2,0,0,1-1.28-1.79A5.64,5.64,0,0,1,751.38,393.15Zm2.22,0a3.68,3.68,0,0,0,.3,1.52,3.36,3.36,0,0,0,.85,1.16,3.8,3.8,0,0,0,1.28.74,5.1,5.1,0,0,0,3.21,0,3.77,3.77,0,0,0,1.28-.74,3.43,3.43,0,0,0,.85-1.16,3.65,3.65,0,0,0,.31-1.52,3.6,3.6,0,0,0-.31-1.52,3.3,3.3,0,0,0-.85-1.14,3.74,3.74,0,0,0-1.28-.71,5.39,5.39,0,0,0-3.21,0,3.78,3.78,0,0,0-1.28.71,3.24,3.24,0,0,0-.85,1.14A3.63,3.63,0,0,0,753.59,393.15Zm1.43-7.38,4.71-1.32.49,1.73-4.77,1.11Z" style="fill:#fff"/><path d="M766.9,387.72h2.22l6.81,3.57v-3.57h2.22v10.93h-2.22v-5l-6.81-3.54v8.56H766.9Z" style="fill:#fff"/><circle cx="1018.5" cy="382.64" r="81.19" style="fill:#666"/><path d="M962.77,365.87a5.55,5.55,0,0,1,.45-2.27,5.13,5.13,0,0,1,1.28-1.76,5.8,5.8,0,0,1,2-1.14,8.21,8.21,0,0,1,5.09,0,5.79,5.79,0,0,1,2,1.14,5.14,5.14,0,0,1,1.28,1.76,5.53,5.53,0,0,1,.46,2.27,5.62,5.62,0,0,1-.46,2.28,5.21,5.21,0,0,1-1.28,1.79,5.83,5.83,0,0,1-2,1.17,8,8,0,0,1-5.09,0,5.84,5.84,0,0,1-2-1.17,5.2,5.2,0,0,1-1.28-1.79A5.64,5.64,0,0,1,962.77,365.87Zm2.22,0a3.68,3.68,0,0,0,.3,1.52,3.36,3.36,0,0,0,.85,1.16,3.8,3.8,0,0,0,1.28.74,5.1,5.1,0,0,0,3.21,0,3.77,3.77,0,0,0,1.28-.74,3.43,3.43,0,0,0,.85-1.16,3.65,3.65,0,0,0,.31-1.52,3.6,3.6,0,0,0-.31-1.52,3.3,3.3,0,0,0-.85-1.14,3.74,3.74,0,0,0-1.28-.71,5.39,5.39,0,0,0-3.21,0,3.78,3.78,0,0,0-1.28.71,3.24,3.24,0,0,0-.85,1.14A3.63,3.63,0,0,0,965,365.87Z" style="fill:#fff"/><path d="M978.31,360.43h5.76a7.75,7.75,0,0,1,2.18.27,4.16,4.16,0,0,1,1.53.79,3.16,3.16,0,0,1,.91,1.25,4.45,4.45,0,0,1,.3,1.67,4.35,4.35,0,0,1-.29,1.62,3.36,3.36,0,0,1-.9,1.28,4.24,4.24,0,0,1-1.53.85,7,7,0,0,1-2.18.3h-3.56v2.9h-2.22Zm5.82,6.11a3.62,3.62,0,0,0,1.1-.15A2.21,2.21,0,0,0,986,366a1.72,1.72,0,0,0,.48-.67,2.34,2.34,0,0,0,.16-.88,1.89,1.89,0,0,0-.63-1.51,2.84,2.84,0,0,0-1.89-.54h-3.6v4.18Z" style="fill:#fff"/><path d="M992,360.43h9.31v1.94h-7.09v2.18h6.28v1.83h-6.28v3h7.24v1.94H992Z" style="fill:#fff"/><path d="M1004.47,360.43H1010a8,8,0,0,1,2.18.26,4.23,4.23,0,0,1,1.53.76,3.06,3.06,0,0,1,.91,1.21,4.16,4.16,0,0,1,.3,1.62,4.47,4.47,0,0,1-.15,1.16,3.39,3.39,0,0,1-1.22,1.83,4.15,4.15,0,0,1-1.08.6l2.38,3.5h-2.71l-2.06-3.1h-3.42v3.11h-2.22Zm5.61,5.9a3.73,3.73,0,0,0,1.1-.15,2.28,2.28,0,0,0,.79-.41,1.66,1.66,0,0,0,.48-.65,2.21,2.21,0,0,0,.16-.85,1.7,1.7,0,0,0-.63-1.42,3,3,0,0,0-1.89-.5h-3.4v4Z" style="fill:#fff"/><path d="M1021.86,360.43h2.35l5.29,10.93h-2.33l-.87-1.84h-6.38l-.85,1.84h-2.34Zm3.56,7.26-2.36-5-2.3,5Z" style="fill:#fff"/><path d="M1031.11,365.83a5.4,5.4,0,0,1,.44-2.18,5,5,0,0,1,1.28-1.75,6.06,6.06,0,0,1,2-1.17,8.16,8.16,0,0,1,2.73-.43,10.43,10.43,0,0,1,2.45.27,7.75,7.75,0,0,1,2.07.82l-1,1.68a3.54,3.54,0,0,0-.66-.33,6,6,0,0,0-.8-.25,8.19,8.19,0,0,0-.87-.16,7.27,7.27,0,0,0-.89-.06,6.3,6.3,0,0,0-1.89.26,4.11,4.11,0,0,0-1.4.73,3.14,3.14,0,0,0-.87,1.13,3.43,3.43,0,0,0-.3,1.44,3.57,3.57,0,0,0,.31,1.49,3.3,3.3,0,0,0,.89,1.17,4.22,4.22,0,0,0,1.43.77,6.09,6.09,0,0,0,1.91.28,6.69,6.69,0,0,0,1-.07,7.81,7.81,0,0,0,.92-.19,7.3,7.3,0,0,0,.86-.29,7,7,0,0,0,.77-.37l1,1.68a7.52,7.52,0,0,1-2.07.9,9.32,9.32,0,0,1-2.5.33,9.11,9.11,0,0,1-3-.44,6.1,6.1,0,0,1-2.13-1.2,4.92,4.92,0,0,1-1.28-1.8A5.77,5.77,0,0,1,1031.11,365.83Z" style="fill:#fff"/><path d="M1045.2,360.43h2.23v10.93h-2.23Z" style="fill:#fff"/><path d="M1050.19,365.87a5.55,5.55,0,0,1,.45-2.27,5.13,5.13,0,0,1,1.28-1.76,5.8,5.8,0,0,1,2-1.14,8.21,8.21,0,0,1,5.09,0,5.79,5.79,0,0,1,2,1.14,5.14,5.14,0,0,1,1.28,1.76,5.53,5.53,0,0,1,.46,2.27,5.62,5.62,0,0,1-.46,2.28,5.21,5.21,0,0,1-1.28,1.79,5.83,5.83,0,0,1-2,1.17,8,8,0,0,1-5.09,0,5.84,5.84,0,0,1-2-1.17,5.2,5.2,0,0,1-1.28-1.79A5.64,5.64,0,0,1,1050.19,365.87Zm2.22,0a3.68,3.68,0,0,0,.3,1.52,3.36,3.36,0,0,0,.85,1.16,3.8,3.8,0,0,0,1.28.74,5.1,5.1,0,0,0,3.21,0,3.77,3.77,0,0,0,1.28-.74,3.43,3.43,0,0,0,.85-1.16,3.65,3.65,0,0,0,.31-1.52,3.6,3.6,0,0,0-.31-1.52,3.3,3.3,0,0,0-.85-1.14,3.74,3.74,0,0,0-1.28-.71,5.39,5.39,0,0,0-3.21,0,3.78,3.78,0,0,0-1.28.71,3.24,3.24,0,0,0-.85,1.14A3.63,3.63,0,0,0,1052.4,365.87Zm1.43-7.38,4.71-1.32.49,1.73-4.77,1.11Z" style="fill:#fff"/><path d="M1065.71,360.43h2.22l6.81,3.57v-3.57H1077v10.93h-2.22v-5l-6.81-3.54v8.56h-2.22Z" style="fill:#fff"/><path d="M972.67,377.62h5.84a6.81,6.81,0,0,1,1.86.23,3.94,3.94,0,0,1,1.32.63,2.51,2.51,0,0,1,.78.95,2.87,2.87,0,0,1-.4,3,2.89,2.89,0,0,1,1.13,1.16,3.46,3.46,0,0,1,.37,1.62,3.55,3.55,0,0,1-.26,1.38,2.72,2.72,0,0,1-.78,1.05,3.62,3.62,0,0,1-1.31.67,6.65,6.65,0,0,1-1.87.23h-6.68Zm6.69,4.2.56,0a1.37,1.37,0,0,0,.47-1,1.06,1.06,0,0,0-.46-.92,2.37,2.37,0,0,0-1.36-.33h-3.68v2.24Zm0,4.8a2.08,2.08,0,0,0,1.36-.38,1.32,1.32,0,0,0,.46-1.08,1.35,1.35,0,0,0-.46-1.09,2.06,2.06,0,0,0-1.36-.39h-4.52v3Z" style="fill:#fff"/><path d="M986,377.62h2.22v6a4,4,0,0,0,.2,1.32,2.53,2.53,0,0,0,.61,1,2.6,2.6,0,0,0,1,.61,4.74,4.74,0,0,0,2.77,0,2.61,2.61,0,0,0,1-.61,2.54,2.54,0,0,0,.6-1,4,4,0,0,0,.2-1.32v-6h2.22v6.29a5.09,5.09,0,0,1-.36,2,4.16,4.16,0,0,1-1.06,1.51,4.77,4.77,0,0,1-1.7,1,7.82,7.82,0,0,1-4.58,0,4.75,4.75,0,0,1-1.7-1,4.16,4.16,0,0,1-1.06-1.51,5.09,5.09,0,0,1-.36-2Z" style="fill:#fff"/><path d="M1000,377.62h5.56a8,8,0,0,1,2.18.26,4.23,4.23,0,0,1,1.53.76,3.06,3.06,0,0,1,.91,1.21,4.16,4.16,0,0,1,.3,1.62,4.47,4.47,0,0,1-.15,1.16,3.39,3.39,0,0,1-1.22,1.83,4.15,4.15,0,0,1-1.08.6l2.38,3.5h-2.71l-2.06-3.1h-3.42v3.11H1000Zm5.61,5.9a3.73,3.73,0,0,0,1.1-.15,2.28,2.28,0,0,0,.79-.41,1.66,1.66,0,0,0,.48-.65,2.21,2.21,0,0,0,.16-.85,1.7,1.7,0,0,0-.63-1.42,3,3,0,0,0-1.89-.5h-3.4v4Z" style="fill:#fff"/><path d="M1014.23,385.3q.59.34,1.21.6a9.55,9.55,0,0,0,1.27.45,9.84,9.84,0,0,0,1.38.28,11.48,11.48,0,0,0,1.54.1,9.32,9.32,0,0,0,1.68-.13,4.09,4.09,0,0,0,1.13-.36,1.6,1.6,0,0,0,.64-.54,1.26,1.26,0,0,0,.2-.69,1.09,1.09,0,0,0-.5-.94,2.71,2.71,0,0,0-1.53-.35,8.08,8.08,0,0,0-1,.06l-1,.13-1,.13a8.13,8.13,0,0,1-.94.06,5.21,5.21,0,0,1-1.41-.19,3.71,3.71,0,0,1-1.2-.57,2.8,2.8,0,0,1-.83-.94,2.73,2.73,0,0,1-.31-1.32,3.33,3.33,0,0,1,.12-.89,2.94,2.94,0,0,1,.39-.84,3.46,3.46,0,0,1,.7-.75,4.17,4.17,0,0,1,1-.6,6.72,6.72,0,0,1,1.4-.39,10.23,10.23,0,0,1,1.81-.14,13.63,13.63,0,0,1,1.47.08q.74.08,1.44.23a13.89,13.89,0,0,1,1.35.35,11.43,11.43,0,0,1,1.21.46l-1,1.79a10.51,10.51,0,0,0-1-.37q-.53-.17-1.11-.3t-1.2-.2a10.74,10.74,0,0,0-1.26-.07,7,7,0,0,0-1.51.13,3.31,3.31,0,0,0-.94.34,1.24,1.24,0,0,0-.49.46,1.07,1.07,0,0,0-.14.51,1,1,0,0,0,.44.8,2.34,2.34,0,0,0,1.34.31,7.64,7.64,0,0,0,.84-.05l1-.12,1.06-.12q.54-.05,1.05-.05a6.17,6.17,0,0,1,1.71.22,3.59,3.59,0,0,1,1.25.62,2.61,2.61,0,0,1,.76,1,3,3,0,0,1,.26,1.28,3.24,3.24,0,0,1-.44,1.68,3.69,3.69,0,0,1-1.25,1.24,6.27,6.27,0,0,1-1.95.77,11.34,11.34,0,0,1-2.54.26,13.83,13.83,0,0,1-1.8-.12,13.22,13.22,0,0,1-1.69-.33,12.62,12.62,0,0,1-1.54-.51,11.31,11.31,0,0,1-1.35-.65Z" style="fill:#fff"/><path d="M1032.34,377.62h2.35l5.29,10.93h-2.33l-.87-1.84h-6.38l-.85,1.84h-2.34Zm-1.41-1.94,4.71-1.32.49,1.73-4.77,1.11Zm5,9.21-2.36-5-2.3,5Z" style="fill:#fff"/><path d="M1045.54,379.56h-4v-1.94h10.29v1.94h-4v9h-2.22Z" style="fill:#fff"/><path d="M1054.44,377.62h2.23v10.93h-2.23Z" style="fill:#fff"/><path d="M1060.07,377.62h2.22v9h6.36v1.94h-8.57Z" style="fill:#fff"/><path d="M983.65,405.94h-5.8v4.22h6.75v1h-7.82V399.85h7.82v1h-6.75v4.09h5.8Z" style="fill:#fff"/><path d="M986.23,413.21h.17c.75,0,1.09-.45,1.09-1.19v-8.78h1.06v8.82c0,1.28-.58,2-1.94,2h-.38Zm1-12.68a.76.76,0,1,1,1.53,0,.76.76,0,0,1-1.53,0Z" style="fill:#fff"/><path d="M991.74,410.57a.77.77,0,1,1,1.54,0,.77.77,0,0,1-1.54,0Z" style="fill:#fff"/><path d="M1001.59,409.29a5,5,0,0,0,3.3,1.11c2.09,0,3-.85,3-2.11s-.9-1.81-3.09-2.45c-2.41-.73-3.75-1.47-3.75-3.24s1.54-3,3.94-3a5.26,5.26,0,0,1,3.67,1.07l-.58.9a4.65,4.65,0,0,0-3.09-1c-1.6,0-2.85.68-2.85,2,0,1.11.94,1.58,3.09,2.22,2.6.75,3.75,1.66,3.75,3.45s-1.32,3.15-4.07,3.15a5.59,5.59,0,0,1-3.9-1.3Z" style="fill:#fff"/><path d="M1012.08,399.85h4.33c2.68,0,4.26,1.39,4.26,3.73s-1.66,3.88-4.32,3.88h-3.2v3.69h-1.07Zm4.32,1h-3.24v5.62h3.24c1.94,0,3.2-.94,3.2-2.85S1018.32,400.85,1016.4,400.85Z" style="fill:#fff"/><path d="M1027.52,405.35l3.84,5.8h-1.28l-2.92-4.41-.41-.74-.43.74-2.88,4.41h-1.26l3.81-5.8-3.66-5.5h1.28l2.81,4.24.36.64.36-.64,2.81-4.24h1.26Z" style="fill:#fff"/><path d="M1034.88,400.85l-.09,3.77a6.62,6.62,0,0,1,1.85-.23c2.56,0,4,1.38,4,3.41,0,2.19-1.51,3.62-3.9,3.62a4.41,4.41,0,0,1-3.52-1.54l.66-.77a3.68,3.68,0,0,0,2.86,1.3,2.5,2.5,0,0,0,2.81-2.6c0-1.49-1.13-2.41-2.88-2.41a6.35,6.35,0,0,0-2.62.47l-.25-.19.17-5.82h6.14v1Z" style="fill:#fff"/><path d="M1043.08,405.52c0-3.3,1.7-5.92,4.65-5.92s4.64,2.62,4.64,5.92-1.68,5.9-4.64,5.9S1043.08,408.8,1043.08,405.52Zm8.22,0c0-2.68-1.22-4.9-3.56-4.9s-3.56,2.22-3.56,4.9,1.21,4.88,3.56,4.88S1051.3,408.18,1051.3,405.52Z" style="fill:#fff"/><path d="M1055,405.52c0-3.3,1.7-5.92,4.65-5.92s4.64,2.62,4.64,5.92-1.68,5.9-4.64,5.9S1055,408.8,1055,405.52Zm8.22,0c0-2.68-1.22-4.9-3.56-4.9s-3.56,2.22-3.56,4.9,1.21,4.88,3.56,4.88S1063.19,408.18,1063.19,405.52Z" style="fill:#fff"/><circle cx="728.34" cy="590.88" r="91.84" style="fill:#a0a0a0"/><path d="M649.5,563.44h9.26v1.84H651.6V568h6.08v1.73H651.6v4.07h-2.1Z" style="fill:#fff"/><path d="M661.06,563.44h2.11v10.35h-2.11Z" style="fill:#fff"/><path d="M666.38,563.44h2.1l6.45,3.38v-3.38H677v10.35h-2.1V569l-6.45-3.36v8.11h-2.1Z" style="fill:#fff"/><path d="M684,563.44h2.23l5,10.35h-2.21l-.83-1.74h-6l-.8,1.74h-2.21Zm3.37,6.88-2.24-4.7-2.18,4.7Z" style="fill:#fff"/><path d="M693.41,563.44h2.1l6.45,3.38v-3.38h2.1v10.35H702V569l-6.45-3.36v8.11h-2.1Z" style="fill:#fff"/><path d="M706.9,568.55a5.1,5.1,0,0,1,.42-2.06,4.74,4.74,0,0,1,1.21-1.66,5.74,5.74,0,0,1,1.93-1.11,7.73,7.73,0,0,1,2.59-.4,9.91,9.91,0,0,1,2.32.25,7.38,7.38,0,0,1,2,.78l-1,1.59a3.38,3.38,0,0,0-.63-.32,5.55,5.55,0,0,0-.75-.24,7.35,7.35,0,0,0-.83-.15,6.88,6.88,0,0,0-.84-.05,6,6,0,0,0-1.79.25,3.89,3.89,0,0,0-1.33.7,3,3,0,0,0-.82,1.07,3.25,3.25,0,0,0-.28,1.36,3.37,3.37,0,0,0,.29,1.41,3.14,3.14,0,0,0,.84,1.11,4,4,0,0,0,1.35.73,5.8,5.8,0,0,0,1.8.26,6.27,6.27,0,0,0,.91-.07,7.28,7.28,0,0,0,.87-.18,6.84,6.84,0,0,0,.81-.28,6.39,6.39,0,0,0,.73-.35l1,1.59a7.13,7.13,0,0,1-2,.85,8.84,8.84,0,0,1-2.36.31,8.65,8.65,0,0,1-2.8-.41,5.8,5.8,0,0,1-2-1.14,4.68,4.68,0,0,1-1.21-1.71A5.48,5.48,0,0,1,706.9,568.55Z" style="fill:#fff"/><path d="M720.25,563.44h2.11v10.35h-2.11Z" style="fill:#fff"/><path d="M729.12,563.44h2.23l5,10.35h-2.21l-.83-1.74h-6l-.8,1.74h-2.21Zm3.37,6.88-2.24-4.7-2.18,4.7Z" style="fill:#fff"/><path d="M738.51,563.44h2.1l3.76,3.78,3.76-3.78h2.1v10.35h-2.1v-7.45L744.37,570l-3.76-3.62v7.45h-2.1Z" style="fill:#fff"/><path d="M753.46,563.44h2.11v10.35h-2.11Z" style="fill:#fff"/><path d="M758.79,563.44h8.82v1.84h-6.72v2.07h5.95v1.73h-5.95V572h6.86v1.83h-9Z" style="fill:#fff"/><path d="M770.61,563.44h2.1l6.45,3.38v-3.38h2.1v10.35h-2.1V569l-6.45-3.36v8.11h-2.1Z" style="fill:#fff"/><path d="M787.85,565.28H784v-1.84h9.74v1.84h-3.82v8.51h-2.1Z" style="fill:#fff"/><path d="M795.94,568.59a5.25,5.25,0,0,1,.43-2.15,4.85,4.85,0,0,1,1.21-1.67,5.49,5.49,0,0,1,1.87-1.08,7.78,7.78,0,0,1,4.83,0,5.48,5.48,0,0,1,1.87,1.08,4.87,4.87,0,0,1,1.21,1.67,5.25,5.25,0,0,1,.43,2.15,5.33,5.33,0,0,1-.43,2.16,4.94,4.94,0,0,1-1.21,1.69,5.52,5.52,0,0,1-1.87,1.1,7.59,7.59,0,0,1-4.83,0,5.53,5.53,0,0,1-1.87-1.1,4.93,4.93,0,0,1-1.21-1.69A5.33,5.33,0,0,1,795.94,568.59Zm2.1,0a3.48,3.48,0,0,0,.29,1.44,3.18,3.18,0,0,0,.8,1.1,3.6,3.6,0,0,0,1.21.7,4.84,4.84,0,0,0,3,0,3.57,3.57,0,0,0,1.21-.7,3.24,3.24,0,0,0,.8-1.1,3.45,3.45,0,0,0,.29-1.44,3.41,3.41,0,0,0-.29-1.44,3.12,3.12,0,0,0-.8-1.08,3.54,3.54,0,0,0-1.21-.67,5.09,5.09,0,0,0-3,0,3.56,3.56,0,0,0-1.21.67,3.06,3.06,0,0,0-.8,1.08A3.44,3.44,0,0,0,798,568.59Z" style="fill:#fff"/><path d="M663.88,585.1h4.33c2.68,0,4.26,1.39,4.26,3.73s-1.66,3.88-4.32,3.88H665v3.69h-1.07Zm4.32,1H665v5.62h3.24c1.94,0,3.2-.94,3.2-2.85S670.12,586.1,668.2,586.1Z" style="fill:#fff"/><path d="M681.12,595.71a4,4,0,0,1-2.79.9,3.79,3.79,0,0,1-3.94-4.13c0-2.49,1.49-4.18,3.67-4.18s3.47,1.68,3.47,3.9v.26h-6.07v0a2.88,2.88,0,0,0,2.92,3.2,3.55,3.55,0,0,0,2.32-.75Zm-5.6-4.11h4.92a2.31,2.31,0,0,0-2.37-2.39A2.48,2.48,0,0,0,675.53,591.6Z" style="fill:#fff"/><path d="M688,589.34h-.4a2.27,2.27,0,0,0-2.22,2.32v4.75h-1.05v-7.92h.75l.11,1.47h.06a2.51,2.51,0,0,1,2.34-1.49H688Z" style="fill:#fff"/><path d="M690.19,594.93a5,5,0,0,0,2.66.73c1.45,0,2-.56,2-1.34,0-2-5.16-1-5.16-3.83,0-1.26.92-2.21,2.9-2.21a6.08,6.08,0,0,1,3,.64l-.41.91a4.77,4.77,0,0,0-2.47-.64c-1.32,0-2,.41-2,1.26,0,1.9,5.16.77,5.16,3.83,0,1.22-.83,2.3-3,2.3a4.7,4.7,0,0,1-3.13-.92Z" style="fill:#fff"/><path d="M702,596.59a3.88,3.88,0,0,1-4-4.11,4,4,0,1,1,7.9,0A3.89,3.89,0,0,1,702,596.59Zm2.88-4.11a2.92,2.92,0,1,0-5.79,0,2.91,2.91,0,1,0,5.79,0Z" style="fill:#fff"/><path d="M708.84,588.49h.75l.11,1.3h.08a3.09,3.09,0,0,1,2.83-1.49c2.09,0,3.28,1.53,3.28,3.67v4.43h-1.06v-4.32c0-1.64-.83-2.88-2.43-2.88a2.46,2.46,0,0,0-2.51,2.39v4.81h-1.05Z" style="fill:#fff"/><path d="M725.35,596.4h-.74l-.13-1.24h-.08a3.31,3.31,0,0,1-2.88,1.43c-2,0-3-1.13-3-2.49s1.15-2.54,3.56-2.54a6.37,6.37,0,0,1,2.28.4v-.38c0-1.54-.83-2.34-2.45-2.34a4.89,4.89,0,0,0-2.32.64l-.42-.87a5.84,5.84,0,0,1,2.81-.72c2.39,0,3.39,1.32,3.39,3.28Zm-1-3.58a4.67,4.67,0,0,0-2.19-.47c-1.85,0-2.58.72-2.58,1.71s.68,1.68,2.09,1.68a2.53,2.53,0,0,0,2.68-2.22Z" style="fill:#fff"/><path d="M728.57,594.93a5,5,0,0,0,2.66.73c1.45,0,2-.56,2-1.34,0-2-5.16-1-5.16-3.83,0-1.26.92-2.21,2.9-2.21a6.08,6.08,0,0,1,3,.64l-.41.91a4.77,4.77,0,0,0-2.47-.64c-1.32,0-2,.41-2,1.26,0,1.9,5.16.77,5.16,3.83,0,1.22-.83,2.3-3,2.3a4.7,4.7,0,0,1-3.13-.92Z" style="fill:#fff"/><path d="M743.47,589.37v7h-1.06v-7h-1.51v-.89h1.51v-.94a2.45,2.45,0,0,1,2.6-2.68,3.14,3.14,0,0,1,1.53.32l-.32.87a3,3,0,0,0-1.21-.25,1.51,1.51,0,0,0-1.54,1.71v1h2.47v.89Z" style="fill:#fff"/><path d="M748.2,588.49h1.06v7.92H748.2Zm.91-1.45h-.75l1-2.71,1.32.19Z" style="fill:#fff"/><path d="M752.61,594.93a5,5,0,0,0,2.66.73c1.45,0,2-.56,2-1.34,0-2-5.16-1-5.16-3.83,0-1.26.92-2.21,2.9-2.21a6.09,6.09,0,0,1,3,.64l-.42.91a4.77,4.77,0,0,0-2.47-.64c-1.32,0-2,.41-2,1.26,0,1.9,5.16.77,5.16,3.83,0,1.22-.83,2.3-3,2.3a4.7,4.7,0,0,1-3.13-.92Z" style="fill:#fff"/><path d="M760.84,585.78a.76.76,0,1,1,1.53,0,.76.76,0,0,1-1.53,0Zm.24,2.71h1.06v7.92h-1.06Z" style="fill:#fff"/><path d="M765,592.48a3.87,3.87,0,0,1,3.9-4.18,3.55,3.55,0,0,1,2.41.7l-.34.81a3.57,3.57,0,0,0-2-.6,3,3,0,0,0-2.88,3.28,2.89,2.89,0,0,0,2.88,3.2,3.56,3.56,0,0,0,2-.6l.3.81a3.38,3.38,0,0,1-2.37.7A3.82,3.82,0,0,1,765,592.48Z" style="fill:#fff"/><path d="M780.31,596.4h-.74l-.13-1.24h-.08a3.31,3.31,0,0,1-2.88,1.43c-2,0-3-1.13-3-2.49s1.15-2.54,3.56-2.54a6.37,6.37,0,0,1,2.28.4v-.38c0-1.54-.83-2.34-2.45-2.34a4.89,4.89,0,0,0-2.32.64l-.42-.87a5.84,5.84,0,0,1,2.81-.72c2.39,0,3.39,1.32,3.39,3.28Zm-1-3.58a4.67,4.67,0,0,0-2.19-.47c-1.85,0-2.58.72-2.58,1.71s.68,1.68,2.09,1.68a2.53,2.53,0,0,0,2.68-2.22Z" style="fill:#fff"/><path d="M783.53,594.93a5,5,0,0,0,2.66.73c1.45,0,2-.56,2-1.34,0-2-5.16-1-5.16-3.83,0-1.26.92-2.21,2.9-2.21a6.08,6.08,0,0,1,3,.64l-.41.91a4.77,4.77,0,0,0-2.47-.64c-1.32,0-2,.41-2,1.26,0,1.9,5.16.77,5.16,3.83,0,1.22-.83,2.3-3,2.3a4.7,4.7,0,0,1-3.13-.92Z" style="fill:#fff"/><path d="M792.42,596.57a.74.74,0,0,1-.68-.75.78.78,0,0,1,.77-.79.8.8,0,0,1,.79.79V596a2.51,2.51,0,0,1-2.15,2.62L791,598A1.67,1.67,0,0,0,792.42,596.57Z" style="fill:#fff"/><path d="M683.19,607.71h4.33c2.68,0,4.26,1.39,4.26,3.73s-1.66,3.88-4.32,3.88h-3.2V619h-1.07Zm4.32,1h-3.24v5.62h3.24c1.94,0,3.2-.94,3.2-2.85S689.43,608.71,687.51,608.71Z" style="fill:#fff"/><path d="M701.34,607.71h1.24l-4.2,7V619h-1.07v-4.35l-4.2-7h1.26l3.15,5.31.32.68h.06l.34-.68Z" style="fill:#fff"/><path d="M714.57,609.65l-3.94,5.13h-.38l-4-5.07V619h-1.07V607.71h.83l4.39,5.65,4.39-5.65h.79V619h-1.06Z" style="fill:#fff"/><path d="M726.48,613.79h-5.8V618h6.75v1H719.6V607.71h7.82v1h-6.75v4.09h5.8Z" style="fill:#fff"/><path d="M730.21,617.54a5,5,0,0,0,2.66.73c1.45,0,2-.56,2-1.34,0-2-5.16-1-5.16-3.83,0-1.26.92-2.21,2.9-2.21a6.09,6.09,0,0,1,3,.64l-.42.91a4.77,4.77,0,0,0-2.47-.64c-1.32,0-2,.41-2,1.26,0,1.9,5.16.77,5.16,3.83,0,1.22-.83,2.3-3,2.3a4.7,4.7,0,0,1-3.13-.92Z" style="fill:#fff"/><path d="M739.1,619.18a.74.74,0,0,1-.68-.75.78.78,0,0,1,.77-.79.8.8,0,0,1,.79.79v.17a2.51,2.51,0,0,1-2.15,2.62l-.19-.64A1.67,1.67,0,0,0,739.1,619.18Z" style="fill:#fff"/><path d="M754.42,618.32a4,4,0,0,1-2.79.9,3.79,3.79,0,0,1-3.94-4.13c0-2.49,1.49-4.18,3.67-4.18s3.47,1.68,3.47,3.9v.26h-6.07v0a2.88,2.88,0,0,0,2.92,3.2,3.55,3.55,0,0,0,2.32-.75Zm-5.6-4.11h4.92a2.31,2.31,0,0,0-2.37-2.39A2.48,2.48,0,0,0,748.82,614.21Z" style="fill:#fff"/><path d="M758.09,611.1v-2.41h1v2.41h2.39V612h-2.39v4.94c0,.94.45,1.39,1.26,1.39a2.41,2.41,0,0,0,1.17-.36l.34.77a2.69,2.69,0,0,1-1.6.49,2,2,0,0,1-2.2-2.28v-5h-1.53v-.87Z" style="fill:#fff"/><path d="M763.61,615.09a3.87,3.87,0,0,1,3.9-4.18,3.55,3.55,0,0,1,2.41.7l-.34.81a3.57,3.57,0,0,0-2-.6,3,3,0,0,0-2.88,3.28,2.89,2.89,0,0,0,2.88,3.2,3.56,3.56,0,0,0,2-.6l.3.81a3.38,3.38,0,0,1-2.37.7A3.82,3.82,0,0,1,763.61,615.09Z" style="fill:#fff"/><path d="M772.47,618.43a.77.77,0,1,1,1.54,0,.77.77,0,0,1-1.54,0Z" style="fill:#fff"/><path d="M696,636.35a3.58,3.58,0,0,1,3.18-1.68,3.54,3.54,0,0,1,3.73,3.52,3.65,3.65,0,0,1-3.81,3.62c-2.36,0-4.18-1.62-4.18-5.77s2-6,4.41-6a3.6,3.6,0,0,1,3.22,1.6l-.64.77a3.17,3.17,0,0,0-2.58-1.36c-1.87,0-3.34,1.34-3.34,4.94Zm.19,1.71c.42,2,1.58,2.73,2.92,2.73a2.61,2.61,0,0,0,2.73-2.6,2.49,2.49,0,0,0-2.68-2.51A2.9,2.9,0,0,0,696.21,638.06Z" style="fill:#fff"/><path d="M705,630.32h7.31v.73l-5,10.57H706l5-10.31h-6Z" style="fill:#fff"/><path d="M718.86,632.9c0,1.47-.85,2.83-2.37,2.83s-2.36-1.36-2.36-2.83.83-2.83,2.36-2.83S718.86,631.37,718.86,632.9Zm5.65-2.58-9,11.31h-1.17l9-11.31Zm-9.42,2.58c0,1.07.47,1.94,1.39,1.94s1.41-.87,1.41-1.94-.49-1.94-1.41-1.94S715.09,631.81,715.09,632.9Zm9.71,6a2.55,2.55,0,0,1-2.39,2.83c-1.51,0-2.36-1.34-2.36-2.83s.85-2.83,2.36-2.83S724.8,637.44,724.8,638.95Zm-3.79,0c0,1.05.49,1.92,1.39,1.92s1.41-.87,1.41-1.92-.49-2-1.41-2S721,637.84,721,638.95Z" style="fill:#fff"/><path d="M741.55,640.4a4.9,4.9,0,0,1-3.73,1.49,5.92,5.92,0,0,1,0-11.82,4.93,4.93,0,0,1,3.73,1.47l-.6.83a4.42,4.42,0,0,0-3.11-1.28,4.9,4.9,0,0,0,0,9.78,4.42,4.42,0,0,0,3.11-1.28Z" style="fill:#fff"/><path d="M753.64,641.62h-1.11l-1.15-2.73h-6l-1.15,2.73h-1.09l4.77-11.31h1Zm-7.9-3.73H751l-2.6-6.24Z" style="fill:#fff"/><path d="M753.94,630.32h8.73v1h-3.83v10.31h-1.07V631.32h-3.83Z" style="fill:#fff"/><polygon points="913.57 161.99 905.69 157.74 905.69 161.05 838.84 161.05 838.84 162.37 905.69 162.37 905.69 166.23 913.57 161.99" style="fill:#093169"/><polygon points="838.84 179.39 846.72 183.64 846.72 180.33 913.57 180.33 913.57 179.01 846.72 179.01 846.72 175.15 838.84 179.39" style="fill:#278a2a"/><polygon points="913.57 373.93 905.69 369.69 905.69 373 838.84 373 838.84 374.32 905.69 374.32 905.69 378.18 913.57 373.93" style="fill:#093169"/><polygon points="838.84 391.34 846.72 395.58 846.72 392.28 913.57 392.28 913.57 390.95 846.72 390.95 846.72 387.09 838.84 391.34" style="fill:#278a2a"/><circle cx="436.65" cy="382.64" r="91.84" style="fill:#093169"/><polygon points="621.88 373.93 614 369.69 614 373 547.15 373 547.15 374.32 614 374.32 614 378.18 621.88 373.93" style="fill:#093169"/><polygon points="547.15 391.34 555.03 395.58 555.03 392.28 621.88 392.28 621.88 390.95 555.03 390.95 555.03 387.09 547.15 391.34" style="fill:#278a2a"/><polygon points="599.08 204.7 590.5 207.27 592.84 209.61 518.02 284.43 518.96 285.37 593.78 210.54 596.51 213.27 599.08 204.7" style="fill:#093169"/><polygon points="530.99 297.4 539.57 294.83 537.23 292.49 612.05 217.67 611.12 216.73 536.29 291.56 533.56 288.83 530.99 297.4" style="fill:#278a2a"/><polygon points="611.39 549.83 608.82 541.26 606.48 543.6 531.65 468.77 530.72 469.71 605.54 544.53 602.81 547.26 611.39 549.83" style="fill:#093169"/><polygon points="518.68 481.74 521.26 490.32 523.59 487.98 598.42 562.8 599.35 561.87 524.53 487.05 527.26 484.32 518.68 481.74" style="fill:#278a2a"/><circle cx="144.97" cy="382.64" r="91.84" style="fill:#e6a000"/><path d="M68.28,370.53h2.23v10.93H68.28Z" style="fill:#093169"/><path d="M73.9,370.53h2.22l6.81,3.57v-3.57h2.22v10.93H82.92v-5l-6.81-3.54v8.56H73.9Z" style="fill:#093169"/><path d="M87.34,370.53H89.8l3.43,8.33,3.43-8.33h2.45l-4.79,10.93h-2.2Z" style="fill:#093169"/><path d="M101.33,370.53h9.31v1.94h-7.09v2.18h6.28v1.83h-6.28v3h7.24v1.94h-9.45Z" style="fill:#093169"/><path d="M113.82,370.53h5.56a8,8,0,0,1,2.18.26,4.22,4.22,0,0,1,1.53.76,3.06,3.06,0,0,1,.91,1.21,4.18,4.18,0,0,1,.3,1.62,4.43,4.43,0,0,1-.15,1.16,3.38,3.38,0,0,1-1.22,1.83,4.15,4.15,0,0,1-1.08.6l2.38,3.5h-2.71l-2.06-3.1H116v3.11h-2.22Zm5.62,5.9a3.72,3.72,0,0,0,1.1-.15,2.26,2.26,0,0,0,.79-.41,1.64,1.64,0,0,0,.48-.65,2.19,2.19,0,0,0,.16-.85,1.7,1.7,0,0,0-.63-1.42,3,3,0,0,0-1.89-.5H116v4Z" style="fill:#093169"/><path d="M128,378.21q.59.34,1.21.6a9.55,9.55,0,0,0,1.27.45,9.84,9.84,0,0,0,1.38.28,11.48,11.48,0,0,0,1.54.1,9.33,9.33,0,0,0,1.68-.13,4.1,4.1,0,0,0,1.13-.36,1.6,1.6,0,0,0,.64-.54,1.26,1.26,0,0,0,.2-.69,1.09,1.09,0,0,0-.5-.94,2.71,2.71,0,0,0-1.53-.35,8.1,8.1,0,0,0-1,.06l-1,.13-1,.13a8.1,8.1,0,0,1-.94.06,5.19,5.19,0,0,1-1.41-.19,3.73,3.73,0,0,1-1.2-.57,2.81,2.81,0,0,1-.83-.94,2.73,2.73,0,0,1-.31-1.32,3.33,3.33,0,0,1,.12-.89,2.92,2.92,0,0,1,.39-.84,3.43,3.43,0,0,1,.7-.75,4.17,4.17,0,0,1,1-.6,6.71,6.71,0,0,1,1.4-.39,10.21,10.21,0,0,1,1.81-.14,13.64,13.64,0,0,1,1.48.08q.74.08,1.44.23t1.35.35a11.43,11.43,0,0,1,1.21.46l-1,1.79a10.51,10.51,0,0,0-1-.37q-.53-.17-1.11-.3t-1.2-.2a10.75,10.75,0,0,0-1.26-.07,7,7,0,0,0-1.51.13,3.31,3.31,0,0,0-.94.34,1.24,1.24,0,0,0-.49.46,1.07,1.07,0,0,0-.14.51.94.94,0,0,0,.44.8,2.34,2.34,0,0,0,1.34.31,7.61,7.61,0,0,0,.83-.05l1-.12,1.06-.12q.54-.05,1.05-.05a6.17,6.17,0,0,1,1.71.22,3.59,3.59,0,0,1,1.25.62,2.63,2.63,0,0,1,.76,1,3,3,0,0,1,.26,1.28,3.23,3.23,0,0,1-.44,1.68,3.69,3.69,0,0,1-1.24,1.24,6.27,6.27,0,0,1-1.95.77,11.34,11.34,0,0,1-2.54.26,13.83,13.83,0,0,1-1.8-.12,13.22,13.22,0,0,1-1.69-.33,12.69,12.69,0,0,1-1.54-.51,11.37,11.37,0,0,1-1.35-.65Z" style="fill:#093169"/><path d="M142.1,370.53h2.23v10.93H142.1Z" style="fill:#093169"/><path d="M147.09,376a5.55,5.55,0,0,1,.45-2.27,5.13,5.13,0,0,1,1.28-1.76,5.78,5.78,0,0,1,2-1.14,8.21,8.21,0,0,1,5.09,0,5.79,5.79,0,0,1,2,1.14,5.13,5.13,0,0,1,1.28,1.76,5.55,5.55,0,0,1,.46,2.27,5.64,5.64,0,0,1-.46,2.28,5.2,5.2,0,0,1-1.28,1.79,5.83,5.83,0,0,1-2,1.17,8,8,0,0,1-5.09,0,5.82,5.82,0,0,1-2-1.17,5.2,5.2,0,0,1-1.28-1.79A5.64,5.64,0,0,1,147.09,376Zm2.22,0a3.68,3.68,0,0,0,.3,1.52,3.35,3.35,0,0,0,.85,1.16,3.81,3.81,0,0,0,1.28.74,5.11,5.11,0,0,0,3.21,0,3.76,3.76,0,0,0,1.28-.74,3.41,3.41,0,0,0,.85-1.16,3.65,3.65,0,0,0,.31-1.52,3.6,3.6,0,0,0-.31-1.52,3.29,3.29,0,0,0-.85-1.14,3.74,3.74,0,0,0-1.28-.71,5.4,5.4,0,0,0-3.21,0,3.78,3.78,0,0,0-1.28.71,3.23,3.23,0,0,0-.85,1.14A3.63,3.63,0,0,0,149.3,376Z" style="fill:#093169"/><path d="M162.61,370.53h2.22l6.81,3.57v-3.57h2.22v10.93h-2.22v-5l-6.81-3.54v8.56h-2.22Z" style="fill:#093169"/><path d="M177.24,370.53h2.23v10.93h-2.23Z" style="fill:#093169"/><path d="M183.37,378.21q.59.34,1.21.6a9.49,9.49,0,0,0,1.27.45,9.87,9.87,0,0,0,1.38.28,11.48,11.48,0,0,0,1.54.1,9.31,9.31,0,0,0,1.68-.13,4.11,4.11,0,0,0,1.13-.36,1.6,1.6,0,0,0,.64-.54,1.26,1.26,0,0,0,.2-.69,1.09,1.09,0,0,0-.5-.94,2.71,2.71,0,0,0-1.53-.35,8.1,8.1,0,0,0-1,.06l-1,.13-1,.13a8.1,8.1,0,0,1-.94.06,5.21,5.21,0,0,1-1.41-.19,3.72,3.72,0,0,1-1.2-.57,2.8,2.8,0,0,1-.83-.94,2.73,2.73,0,0,1-.31-1.32,3.29,3.29,0,0,1,.12-.89,2.89,2.89,0,0,1,.39-.84,3.43,3.43,0,0,1,.7-.75,4.17,4.17,0,0,1,1-.6,6.72,6.72,0,0,1,1.4-.39,10.23,10.23,0,0,1,1.81-.14,13.65,13.65,0,0,1,1.48.08q.74.08,1.44.23a14,14,0,0,1,1.35.35,11.41,11.41,0,0,1,1.21.46l-1,1.79a10.51,10.51,0,0,0-1-.37q-.53-.17-1.11-.3t-1.2-.2a10.72,10.72,0,0,0-1.26-.07,7,7,0,0,0-1.51.13,3.29,3.29,0,0,0-.94.34,1.24,1.24,0,0,0-.49.46,1.07,1.07,0,0,0-.14.51.94.94,0,0,0,.44.8,2.34,2.34,0,0,0,1.34.31,7.63,7.63,0,0,0,.84-.05l1-.12,1.06-.12q.54-.05,1.05-.05a6.16,6.16,0,0,1,1.71.22,3.59,3.59,0,0,1,1.25.62,2.62,2.62,0,0,1,.76,1,3.06,3.06,0,0,1,.26,1.28,3.24,3.24,0,0,1-.44,1.68,3.69,3.69,0,0,1-1.24,1.24,6.29,6.29,0,0,1-1.95.77,11.34,11.34,0,0,1-2.54.26,13.84,13.84,0,0,1-1.8-.12,13.25,13.25,0,0,1-1.69-.33,12.73,12.73,0,0,1-1.54-.51,11.31,11.31,0,0,1-1.35-.65Z" style="fill:#093169"/><path d="M201.05,372.48h-4v-1.94H207.3v1.94h-4v9h-2.22Z" style="fill:#093169"/><path d="M214,370.53h2.35l5.29,10.93h-2.33l-.87-1.84H212l-.85,1.84h-2.33Zm3.56,7.26-2.36-5-2.3,5Z" style="fill:#093169"/><polygon points="330.2 373.93 322.31 369.69 322.31 373 255.46 373 255.46 374.32 322.31 374.32 322.31 378.18 330.2 373.93" style="fill:#093169"/><polygon points="255.46 391.34 263.35 395.58 263.35 392.28 330.2 392.28 330.2 390.95 263.35 390.95 263.35 387.09 255.46 391.34" style="fill:#278a2a"/><path d="M507.54,399.59a2.21,2.21,0,1,1,.65-1.56A2.12,2.12,0,0,1,507.54,399.59Zm-2.9-2.9a1.83,1.83,0,0,0-.55,1.34,1.86,1.86,0,0,0,.55,1.35,1.89,1.89,0,0,0,2.69,0,1.92,1.92,0,0,0,0-2.69,1.89,1.89,0,0,0-2.68,0Zm1.3.12a1.84,1.84,0,0,1,.66.09.6.6,0,0,1,.38.61.53.53,0,0,1-.24.48.92.92,0,0,1-.35.12.59.59,0,0,1,.42.24.66.66,0,0,1,.13.38v.18c0,.06,0,.12,0,.18a.39.39,0,0,0,0,.13l0,0h-.4v-.32a.59.59,0,0,0-.23-.55,1,1,0,0,0-.47-.08h-.34v1h-.43v-2.42Zm.46.38a1.11,1.11,0,0,0-.52-.09h-.36V398h.39a1.16,1.16,0,0,0,.41-.05.44.44,0,0,0,.09-.73Z" style="fill:#fff"/><path d="M368.93,396.16h2.84l4,9.65,4-9.65h2.84L377,408.81h-2.54Z" style="fill:#fff"/><path d="M384.8,396.16h2.58v12.65H384.8Z" style="fill:#fff"/><path d="M391.31,396.16H398a9,9,0,0,1,2.53.32,4.83,4.83,0,0,1,1.77.91,3.65,3.65,0,0,1,1,1.45,5.16,5.16,0,0,1,.34,1.93,5,5,0,0,1-.34,1.87,3.9,3.9,0,0,1-1,1.49,4.92,4.92,0,0,1-1.77,1,8.09,8.09,0,0,1-2.53.35h-4.12v3.36h-2.57Zm6.73,7.07a4.21,4.21,0,0,0,1.27-.17,2.56,2.56,0,0,0,.91-.49,2,2,0,0,0,.55-.78,2.72,2.72,0,0,0,.18-1,2.18,2.18,0,0,0-.73-1.75,3.29,3.29,0,0,0-2.19-.63h-4.17v4.84Z" style="fill:#fff"/><path d="M408.35,402.41a6.24,6.24,0,0,1,.51-2.52,5.79,5.79,0,0,1,1.48-2,7,7,0,0,1,2.36-1.36,9.45,9.45,0,0,1,3.16-.49,12.11,12.11,0,0,1,2.84.31,9,9,0,0,1,2.4,1l-1.18,1.94a4.13,4.13,0,0,0-.76-.39,7,7,0,0,0-.92-.29,9.18,9.18,0,0,0-1-.18,8.4,8.4,0,0,0-1-.06,7.28,7.28,0,0,0-2.19.3,4.75,4.75,0,0,0-1.62.85,3.62,3.62,0,0,0-1,1.3,4,4,0,0,0-.34,1.66,4.12,4.12,0,0,0,.36,1.72,3.82,3.82,0,0,0,1,1.36,4.89,4.89,0,0,0,1.65.89,7.06,7.06,0,0,0,2.21.32,7.6,7.6,0,0,0,1.11-.08,8.86,8.86,0,0,0,1.06-.22,8.5,8.5,0,0,0,1-.34,8,8,0,0,0,.89-.43l1.18,1.94a8.73,8.73,0,0,1-2.4,1,10.79,10.79,0,0,1-2.89.38,10.54,10.54,0,0,1-3.42-.51,7.07,7.07,0,0,1-2.46-1.39,5.71,5.71,0,0,1-1.49-2.09A6.69,6.69,0,0,1,408.35,402.41Z" style="fill:#fff"/><path d="M429,396.16h2.72l6.12,12.65h-2.7l-1-2.13h-7.39l-1,2.13H423Zm4.12,8.41-2.74-5.75-2.66,5.75Z" style="fill:#fff"/><path d="M440.45,396.16h6.67a9,9,0,0,1,2.53.32,4.83,4.83,0,0,1,1.77.91,3.65,3.65,0,0,1,1,1.45,5.16,5.16,0,0,1,.34,1.93,5,5,0,0,1-.34,1.87,3.9,3.9,0,0,1-1,1.49,4.92,4.92,0,0,1-1.77,1,8.09,8.09,0,0,1-2.53.35H443v3.36h-2.57Zm6.73,7.07a4.21,4.21,0,0,0,1.27-.17,2.56,2.56,0,0,0,.91-.49,2,2,0,0,0,.55-.78,2.72,2.72,0,0,0,.18-1,2.18,2.18,0,0,0-.73-1.75,3.29,3.29,0,0,0-2.19-.63H443v4.84Z" style="fill:#fff"/><path d="M456.61,396.16h2.58v12.65h-2.58Z" style="fill:#fff"/><path d="M467.6,398.41h-4.67v-2.25h11.91v2.25h-4.67v10.4H467.6Z" style="fill:#fff"/><path d="M481.88,396.16h2.72l6.12,12.65H488l-1-2.13h-7.39l-1,2.13h-2.7Zm4.12,8.41-2.74-5.75-2.66,5.75Z" style="fill:#fff"/><path d="M493.35,396.16h2.57v10.4h7.36v2.25h-9.92Z" style="fill:#fff"/><path d="M470.37,371.08l-1.86,1.68a11.48,11.48,0,0,0,2.67,2.16,6.75,6.75,0,0,1-3.67,2.48,10.36,10.36,0,0,1-3.84.63,9,9,0,0,0-2.84.32c-.6.16-1.41.42-2.39.76a.56.56,0,0,1-.65-.23L456.61,377a21,21,0,0,0,3.38-8.71,8.26,8.26,0,0,1-2.66.83,20.57,20.57,0,0,1-3.23,7.1l-.52.7,2.12,3.29a3.05,3.05,0,0,0,3.58,1.23c.91-.32,1.67-.56,2.21-.7a6.6,6.6,0,0,1,2.15-.24,12.66,12.66,0,0,0,4.62-.74c4.7-1.44,5.78-4.91,5.83-5.06l.32-1.11-1.08-.42A8.83,8.83,0,0,1,470.37,371.08Z" style="fill:#e6a000"/><path d="M483,366.86a9.16,9.16,0,0,1-7.72,2.16c-.26-2.94-1.75-13.44-9.91-19.49-6.08-4.51-14.37-5.42-24.65-2.71-7.07,1.86-12,5.08-16.28,7.91-3.71,2.44-6.92,4.54-10.86,5.48-1.63.39-3.37.71-5.16,1a3.82,3.82,0,0,1-3.37-6.32l2.55-2.89.74-.63-.59-.81s-.46-1,.75-2.46c.91-1.14,3.91-2,6-2.38a14.6,14.6,0,0,1-1.33,3c-1.71,2.28-3.2,2.06-3.22,2.05l-.59,2.43c.12,0,3.06.7,5.82-3,.45-.6,2.74-5.48,2.18-6.62l-.35-.7h-.77c-.07,0-7.4.78-9.67,3.6a5.23,5.23,0,0,0-1.31,4.36l-2.07,2.34a6.33,6.33,0,0,0,5.59,10.46l1.7-.26-3.59,7.84c-7.17,6-7.15,6.19-7.07,7l.08.68.59.31c2.21,1.17,3.83,5.12,4.26,6.55l.27.89h8.2l.29-.85c.49-1.43.5-4.7-2.91-7l.09-.09c.43-.42,3.6-2.63,7.37-5.21l7.27.86a20,20,0,0,0,9,2.38,13,13,0,0,0,5.59-1.21,12.38,12.38,0,0,0,1.59-.91l-1.93,4.84,1,.52c3,1.52,4.28,5.77,4.29,5.81l.26.91h9.8l0-1.21c0-.72.06-4.35-2-5.6l-.16-.1a18.56,18.56,0,0,1-1-2.77l-.19-.59a10.21,10.21,0,0,0,4.63-7.11h0a8.32,8.32,0,0,1-2.45-.37,8,8,0,0,1-4.28,5.84l-.89.5.79,2.49c1,3.14,1.14,3.62,2.23,4.27a3.34,3.34,0,0,1,.78,2.15h-5.46a13,13,0,0,0-4.27-5.85l4-10.06A20.27,20.27,0,0,0,448,364l-2.45-.53a18.55,18.55,0,0,1-.63,2.21h0l-.62,1.56a12,12,0,0,1-5.57,5.93c-3.44,1.63-7.78,1.2-12.56-1.24l-.2-.1-4.84-.57,2.06-1.39-1.4-2.08c-2,1.33-12,8-13,9.06a2.75,2.75,0,0,0-.91,2.21,2.26,2.26,0,0,0,1.08,1.66,4.09,4.09,0,0,1,2.16,3.37h-4.4a16.52,16.52,0,0,0-3.87-6.22c1.25-1.13,3.59-3.14,5.74-4.95l.22-.18,4.57-10,.68-.15c4.37-1,7.91-3.36,11.66-5.82,4.36-2.86,8.86-5.82,15.54-7.58,9.49-2.5,17.06-1.73,22.5,2.29,6.45,4.77,8.28,13,8.79,16.58a9.12,9.12,0,0,1-2.61-2l-1.87,1.66a11.7,11.7,0,0,0,16.5,1Z" style="fill:#e6a000"/><path d="M76.25,152.51h4.44l8,8,8-8H101v21.88H96.59V158.66l-8,7.66-8-7.66v15.74H76.25Z" style="fill:#093169"/><path d="M107.11,163.39a11.1,11.1,0,0,1,.91-4.54,10.27,10.27,0,0,1,2.55-3.53,11.59,11.59,0,0,1,3.95-2.29,16.41,16.41,0,0,1,10.2,0,11.58,11.58,0,0,1,4,2.29,10.28,10.28,0,0,1,2.56,3.53,11.1,11.1,0,0,1,.91,4.54,11.28,11.28,0,0,1-.91,4.57,10.46,10.46,0,0,1-2.56,3.58,11.67,11.67,0,0,1-4,2.33,16,16,0,0,1-10.2,0,11.69,11.69,0,0,1-3.95-2.33A10.44,10.44,0,0,1,108,168,11.28,11.28,0,0,1,107.11,163.39Zm4.44,0a7.38,7.38,0,0,0,.61,3.05,6.72,6.72,0,0,0,1.69,2.32,7.61,7.61,0,0,0,2.56,1.48,10.21,10.21,0,0,0,6.43,0,7.54,7.54,0,0,0,2.55-1.48,6.83,6.83,0,0,0,1.69-2.32,7.3,7.3,0,0,0,.62-3.05,7.2,7.2,0,0,0-.62-3,6.58,6.58,0,0,0-1.69-2.27,7.43,7.43,0,0,0-2.55-1.42,10.77,10.77,0,0,0-6.43,0,7.5,7.5,0,0,0-2.56,1.42,6.48,6.48,0,0,0-1.69,2.27A7.28,7.28,0,0,0,111.55,163.39Z" style="fill:#093169"/><path d="M138.22,152.51h8a21.91,21.91,0,0,1,6.1.76,11.87,11.87,0,0,1,4.29,2.16,8.71,8.71,0,0,1,2.53,3.42,11.7,11.7,0,0,1,.83,4.51,11.53,11.53,0,0,1-.83,4.4,9.22,9.22,0,0,1-2.52,3.5,12,12,0,0,1-4.28,2.31,20,20,0,0,1-6.1.83h-8Zm9.11,18a10.79,10.79,0,0,0,3.49-.51,6.8,6.8,0,0,0,2.5-1.45,6,6,0,0,0,1.5-2.27,8.32,8.32,0,0,0,.5-3,8,8,0,0,0-.5-2.91,5.7,5.7,0,0,0-1.5-2.2,6.83,6.83,0,0,0-2.5-1.39,11.21,11.21,0,0,0-3.49-.49h-4.68v14.18Z" style="fill:#093169"/><path d="M165.6,152.51h18.63v3.89H170v4.37h12.57v3.65H170v6.09h14.49v3.88H165.6Z" style="fill:#093169"/><path d="M190.6,152.51H195v18h12.73v3.89H190.6Z" style="fill:#093169"/><path d="M211.92,163.39a11.1,11.1,0,0,1,.91-4.54,10.27,10.27,0,0,1,2.55-3.53,11.59,11.59,0,0,1,3.95-2.29,16.41,16.41,0,0,1,10.2,0,11.58,11.58,0,0,1,4,2.29,10.28,10.28,0,0,1,2.56,3.53,11.1,11.1,0,0,1,.91,4.54A11.28,11.28,0,0,1,236,168a10.46,10.46,0,0,1-2.56,3.58,11.67,11.67,0,0,1-4,2.33,16,16,0,0,1-10.2,0,11.69,11.69,0,0,1-3.95-2.33,10.44,10.44,0,0,1-2.55-3.58A11.28,11.28,0,0,1,211.92,163.39Zm4.44,0a7.38,7.38,0,0,0,.61,3.05,6.72,6.72,0,0,0,1.69,2.32,7.61,7.61,0,0,0,2.56,1.48,10.21,10.21,0,0,0,6.43,0,7.54,7.54,0,0,0,2.55-1.48,6.83,6.83,0,0,0,1.69-2.32,7.3,7.3,0,0,0,.62-3.05,7.2,7.2,0,0,0-.62-3,6.58,6.58,0,0,0-1.69-2.27,7.43,7.43,0,0,0-2.55-1.42,10.77,10.77,0,0,0-6.43,0,7.5,7.5,0,0,0-2.56,1.42,6.48,6.48,0,0,0-1.69,2.27A7.28,7.28,0,0,0,216.36,163.39Z" style="fill:#093169"/><path d="M253.69,152.51h8a21.91,21.91,0,0,1,6.1.76,11.87,11.87,0,0,1,4.29,2.16,8.71,8.71,0,0,1,2.53,3.42,11.7,11.7,0,0,1,.83,4.51,11.53,11.53,0,0,1-.83,4.4,9.22,9.22,0,0,1-2.52,3.5,12,12,0,0,1-4.28,2.31,20,20,0,0,1-6.1.83h-8Zm9.11,18a10.79,10.79,0,0,0,3.49-.51,6.8,6.8,0,0,0,2.5-1.45,6,6,0,0,0,1.5-2.27,8.32,8.32,0,0,0,.5-3,8,8,0,0,0-.5-2.91,5.7,5.7,0,0,0-1.5-2.2,6.83,6.83,0,0,0-2.5-1.39,11.21,11.21,0,0,0-3.49-.49h-4.68v14.18Z" style="fill:#093169"/><path d="M281.07,152.51h18.63v3.89h-14.2v4.37h12.57v3.65H285.51v6.09H300v3.88H281.07Z" style="fill:#093169"/><path d="M316.71,152.51h4.44l13.63,7.14v-7.14h4.44v21.88h-4.44v-10l-13.63-7.1v17.13h-4.44Z" style="fill:#093169"/><path d="M346.56,152.51h18.63v3.89H351v4.37h12.57v3.65H351v6.09h14.49v3.88H346.56Z" style="fill:#093169"/><path d="M370.06,163.25a10.78,10.78,0,0,1,.87-4.32,9.89,9.89,0,0,1,2.53-3.49,12.13,12.13,0,0,1,4.09-2.34,16.76,16.76,0,0,1,5.56-.85,22,22,0,0,1,2.28.12,19.18,19.18,0,0,1,2.25.37,17.78,17.78,0,0,1,2.17.64,13.79,13.79,0,0,1,2,.92l-2,3.36a8.46,8.46,0,0,0-1.3-.61,11.9,11.9,0,0,0-1.56-.46,15.44,15.44,0,0,0-1.72-.29,16.25,16.25,0,0,0-1.79-.1,12,12,0,0,0-3.7.53,8,8,0,0,0-2.74,1.47,6.28,6.28,0,0,0-1.71,2.26,7,7,0,0,0-.59,2.88,7.13,7.13,0,0,0,.62,3,6.73,6.73,0,0,0,1.75,2.34,8.22,8.22,0,0,0,2.74,1.53,11.95,11.95,0,0,0,6.5.2,7.72,7.72,0,0,0,2.3-1,5.7,5.7,0,0,0,1.6-1.59,5.38,5.38,0,0,0,.81-2.09h-7.64V162H395a11.32,11.32,0,0,1,.22,3.27,9.73,9.73,0,0,1-.73,3,9.46,9.46,0,0,1-1.63,2.58,10.05,10.05,0,0,1-2.48,2,12.57,12.57,0,0,1-3.28,1.32,16.2,16.2,0,0,1-4,.47,15.66,15.66,0,0,1-5.47-.9,12.2,12.2,0,0,1-4.09-2.45,10.53,10.53,0,0,1-2.57-3.64A11.24,11.24,0,0,1,370.06,163.25Z" style="fill:#093169"/><path d="M400.09,163.39a11.1,11.1,0,0,1,.91-4.54,10.27,10.27,0,0,1,2.55-3.53A11.59,11.59,0,0,1,407.5,153a16.41,16.41,0,0,1,10.2,0,11.58,11.58,0,0,1,4,2.29,10.29,10.29,0,0,1,2.55,3.53,11.1,11.1,0,0,1,.91,4.54,11.28,11.28,0,0,1-.91,4.57,10.47,10.47,0,0,1-2.55,3.58,11.68,11.68,0,0,1-4,2.33,16,16,0,0,1-10.2,0,11.69,11.69,0,0,1-3.95-2.33A10.44,10.44,0,0,1,401,168,11.28,11.28,0,0,1,400.09,163.39Zm4.44,0a7.39,7.39,0,0,0,.61,3.05,6.72,6.72,0,0,0,1.69,2.32,7.61,7.61,0,0,0,2.56,1.48,10.21,10.21,0,0,0,6.43,0,7.54,7.54,0,0,0,2.55-1.48,6.84,6.84,0,0,0,1.69-2.32,7.32,7.32,0,0,0,.62-3.05,7.22,7.22,0,0,0-.62-3,6.6,6.6,0,0,0-1.69-2.27,7.43,7.43,0,0,0-2.55-1.42,10.77,10.77,0,0,0-6.43,0,7.5,7.5,0,0,0-2.56,1.42,6.48,6.48,0,0,0-1.69,2.27A7.29,7.29,0,0,0,404.52,163.39Z" style="fill:#093169"/><path d="M429.86,163.32a10.79,10.79,0,0,1,.88-4.36,10,10,0,0,1,2.55-3.51,12.14,12.14,0,0,1,4.09-2.35,16.35,16.35,0,0,1,5.47-.85,20.91,20.91,0,0,1,4.91.54,15.58,15.58,0,0,1,4.15,1.64l-2,3.36a7.12,7.12,0,0,0-1.32-.67,11.93,11.93,0,0,0-1.6-.5,15.92,15.92,0,0,0-1.75-.32,14.59,14.59,0,0,0-1.79-.11,12.62,12.62,0,0,0-3.79.53,8.21,8.21,0,0,0-2.81,1.47,6.27,6.27,0,0,0-1.74,2.25,6.88,6.88,0,0,0-.59,2.88,7.12,7.12,0,0,0,.62,3,6.6,6.6,0,0,0,1.79,2.34,8.42,8.42,0,0,0,2.86,1.54,12.2,12.2,0,0,0,3.81.55,13.1,13.1,0,0,0,1.92-.14,15.24,15.24,0,0,0,1.84-.38,14.52,14.52,0,0,0,1.71-.59,13.84,13.84,0,0,0,1.54-.75l2,3.36a15.08,15.08,0,0,1-4.14,1.8,18.64,18.64,0,0,1-5,.65,18.24,18.24,0,0,1-5.92-.87,12.2,12.2,0,0,1-4.25-2.41,9.88,9.88,0,0,1-2.57-3.61A11.57,11.57,0,0,1,429.86,163.32Z" style="fill:#093169"/><path d="M458.08,152.51h4.47v21.88h-4.47Z" style="fill:#093169"/><path d="M468.06,163.39a11.1,11.1,0,0,1,.91-4.54,10.27,10.27,0,0,1,2.55-3.53,11.59,11.59,0,0,1,3.95-2.29,16.41,16.41,0,0,1,10.2,0,11.58,11.58,0,0,1,4,2.29,10.29,10.29,0,0,1,2.55,3.53,11.1,11.1,0,0,1,.91,4.54,11.28,11.28,0,0,1-.91,4.57,10.47,10.47,0,0,1-2.55,3.58,11.68,11.68,0,0,1-4,2.33,16,16,0,0,1-10.2,0,11.69,11.69,0,0,1-3.95-2.33A10.44,10.44,0,0,1,469,168,11.28,11.28,0,0,1,468.06,163.39Zm4.44,0a7.39,7.39,0,0,0,.61,3.05,6.72,6.72,0,0,0,1.69,2.32,7.61,7.61,0,0,0,2.56,1.48,10.21,10.21,0,0,0,6.43,0,7.54,7.54,0,0,0,2.55-1.48,6.84,6.84,0,0,0,1.69-2.32,7.32,7.32,0,0,0,.62-3.05,7.22,7.22,0,0,0-.62-3,6.6,6.6,0,0,0-1.69-2.27,7.43,7.43,0,0,0-2.55-1.42,10.77,10.77,0,0,0-6.43,0,7.5,7.5,0,0,0-2.56,1.42,6.48,6.48,0,0,0-1.69,2.27A7.29,7.29,0,0,0,472.5,163.39Z" style="fill:#093169"/></svg>