<svg id="DISEÑO" xmlns="http://www.w3.org/2000/svg" viewBox="0 0 250 250"><title>assets</title><path d="M117.46,101.47s2.31-21.23,10.88-30.31c5.23-5.54,18.33-6.36,26.32-8.18,9.91-2.25,16.33-3.82,30.71-3.82h14.2" style="fill:none;stroke:#093169;stroke-linecap:round;stroke-miterlimit:10;stroke-width:4.41650994531948px"/><line x1="186.33" y1="84.48" x2="199.57" y2="84.48" style="fill:none;stroke:#093169;stroke-linecap:round;stroke-miterlimit:10;stroke-width:4.41650994531948px"/><path d="M229,48.77h-26.1a3.34,3.34,0,0,0-3.34,3.34V90.82a3.34,3.34,0,0,0,3.34,3.34H229" style="fill:none;stroke:#093169;stroke-linecap:round;stroke-miterlimit:10;stroke-width:4.41650994531948px"/><path d="M121.92,132a7.09,7.09,0,0,0,14.18,0c0-3.92-2.91-5.72-7.09-7.09-3.72-1.21-7.09-3.17-7.09-7.09a7.08,7.08,0,0,1,2.64-5.52" style="fill:none;stroke:#093169;stroke-linecap:round;stroke-miterlimit:10;stroke-width:4.41650994531948px"/><line x1="129.01" y1="139.06" x2="129.01" y2="143.06" style="fill:none;stroke:#093169;stroke-linecap:round;stroke-miterlimit:10;stroke-width:4.41650994531948px"/><path d="M134.86,99.44a26.09,26.09,0,1,0,19.19,18" style="fill:none;stroke:#093169;stroke-linecap:round;stroke-miterlimit:10;stroke-width:4.41650994531948px"/><path d="M186.34,84.48h0a8.5,8.5,0,0,0-7.88,5.24C176.58,94.32,172.2,100.9,162,105a55.32,55.32,0,0,0-9.27,4.61c-2.88,1.82-6.63,4.76-10,7-3.81,2.5-6.16,2.79-8.6,0l-.14-.17a5.37,5.37,0,0,1,.93-7.72c4-3,9.59-7.13,14.93-14.39a3.66,3.66,0,0,0-3-5.81,12.73,12.73,0,0,0-10.05,4.7" style="fill:none;stroke:#093169;stroke-linecap:round;stroke-miterlimit:10;stroke-width:4.41650994531948px"/><path d="M160.87,143l27,15.58,4.71,2.72c5.16,3,5.16,7.85,0,10.83L142.45,201c-5.27,3-13.9,3-19.18,0L24.83,144.16c-5.1-2.95-5.1-7.77,0-10.71l50.51-29.16a15,15,0,0,1,3-1.3A18,18,0,0,1,93,105l4.89,2.95" style="fill:none;stroke:#093169;stroke-linecap:round;stroke-linejoin:round;stroke-width:4.41650994531948px"/><path d="M196.44,183.76c0,2-1.29,3.92-3.88,5.41L142.45,218.1c-5.3,3.06-13.88,3.06-19.18,0L24.83,161.26c-2.56-1.48-3.84-3.42-3.84-5.36" style="fill:none;stroke:#093169;stroke-linecap:round;stroke-linejoin:round;stroke-width:4.41650994531948px"/><path d="M33,128.71,40.38,133a11.68,11.68,0,0,0,10.57,0l23.54-13.59c2.92-1.69,2.92-4.42,0-6.1L67.14,109" style="fill:none;stroke:#093169;stroke-linecap:round;stroke-linejoin:round;stroke-width:4.41650994531948px"/><line x1="196.42" y1="166.32" x2="196.44" y2="183.76" style="fill:none;stroke:#093169;stroke-linecap:round;stroke-linejoin:round;stroke-width:4.41650994531948px"/><path d="M132.86,194.46a10.91,10.91,0,0,0,5.17-1.11l46.23-26.69-.83-.48L170,158.4l-20,11.69a33.31,33.31,0,0,1-34.33-.4L69.26,141.06l-15.94,9.35,74.38,42.94A10.91,10.91,0,0,0,132.86,194.46Z" style="fill:#e6a000"/></svg>