<svg id="DISEÑO" xmlns="http://www.w3.org/2000/svg" viewBox="0 0 55 55"><title>assets</title><path d="M27.51,54.49A27,27,0,0,1,8.43,8.42,27,27,0,0,1,46.6,46.58,26.81,26.81,0,0,1,27.51,54.49Zm0-52.41A25.42,25.42,0,1,0,52.93,27.5,25.45,25.45,0,0,0,27.51,2.08Z" style="fill:#e6a000"/><path d="M14.53,16.5c3.69,4,7.71,6.65,12.45,6.39-.07-6.06,4.42-9.56,10.77-5.25l3.57-1.55-2,3,2.76-.47-2.76,2.56C38.62,38.38,23.81,42.55,13,36.9c3.65-.23,6.52-.93,8.21-2.36a6.89,6.89,0,0,1-5.11-4.24l2.22-.13c-2.44-.83-3.85-2.89-4.44-5.92l2.36.2C13.87,22.47,13.58,19.72,14.53,16.5Z" style="fill:#e6a000"/></svg>