<svg id="DISEÑO" xmlns="http://www.w3.org/2000/svg" viewBox="0 0 55 55"><title>assets</title><circle cx="34.8" cy="20.25" r="1.96" style="fill:#e6a000"/><path d="M27.56,20.25A7.25,7.25,0,1,0,34.8,27.5,7.25,7.25,0,0,0,27.56,20.25Zm0,11.86a4.61,4.61,0,1,1,4.61-4.61A4.61,4.61,0,0,1,27.56,32.11Z" style="fill:#e6a000"/><path d="M33.45,13.63H21.66a8,8,0,0,0-8,8V33.39a8,8,0,0,0,8,8H33.45a8,8,0,0,0,8-8V21.61A8,8,0,0,0,33.45,13.63Zm5.28,19.81a5.24,5.24,0,0,1-5.24,5.24H21.61a5.24,5.24,0,0,1-5.24-5.24V21.56a5.24,5.24,0,0,1,5.24-5.24H33.5a5.24,5.24,0,0,1,5.24,5.24Z" style="fill:#e6a000"/><path d="M27.5,54.49A27,27,0,0,1,8.42,8.42,27,27,0,0,1,46.58,46.58,26.81,26.81,0,0,1,27.5,54.49Zm0-52.41A25.42,25.42,0,1,0,52.92,27.5,25.45,25.45,0,0,0,27.5,2.08Z" style="fill:#e6a000"/></svg>