<svg id="DISEÑO" xmlns="http://www.w3.org/2000/svg" viewBox="0 0 250 250"><title>assets</title><path d="M171.71,139s1.66-15.26,7.82-21.78c3.76-4,13.17-4.57,18.91-5.88,7.12-1.62,11.73-2.74,22.07-2.74h10.21" style="fill:none;stroke:#093169;stroke-linecap:round;stroke-miterlimit:10;stroke-width:3.17347509539751px"/><line x1="221.19" y1="126.81" x2="230.71" y2="126.81" style="fill:none;stroke:#093169;stroke-linecap:round;stroke-miterlimit:10;stroke-width:3.17347509539751px"/><path d="M243.52,101.15h-10.4a2.4,2.4,0,0,0-2.4,2.4v27.81a2.4,2.4,0,0,0,2.4,2.4h10.4" style="fill:none;stroke:#093169;stroke-linecap:round;stroke-miterlimit:10;stroke-width:3.17347509539751px"/><path d="M174.91,160.94a5.09,5.09,0,0,0,10.19,0c0-2.81-2.09-4.11-5.09-5.09-2.67-.87-5.09-2.28-5.09-5.09a5.08,5.08,0,0,1,1.9-4" style="fill:none;stroke:#093169;stroke-linecap:round;stroke-miterlimit:10;stroke-width:3.17347509539751px"/><line x1="180.01" y1="166.03" x2="180.01" y2="168.9" style="fill:none;stroke:#093169;stroke-linecap:round;stroke-miterlimit:10;stroke-width:3.17347509539751px"/><path d="M184.21,137.57a18.75,18.75,0,1,0,13.79,13" style="fill:none;stroke:#093169;stroke-linecap:round;stroke-miterlimit:10;stroke-width:3.17347509539751px"/><path d="M221.2,126.81h0a6.1,6.1,0,0,0-5.66,3.76c-1.34,3.31-4.49,8-11.83,11a39.75,39.75,0,0,0-6.66,3.31c-2.07,1.31-4.77,3.42-7.21,5-2.73,1.8-4.43,2-6.18,0l-.1-.12a3.86,3.86,0,0,1,.66-5.54,48.32,48.32,0,0,0,10.73-10.34,2.63,2.63,0,0,0-2.15-4.18,9.15,9.15,0,0,0-7.22,3.38" style="fill:none;stroke:#093169;stroke-linecap:round;stroke-miterlimit:10;stroke-width:3.17347509539751px"/><path d="M169.68,177.59a96.76,96.76,0,0,1-2.2,16.32,106.56,106.56,0,0,1-4.35,14.54l-2.86,7.44" style="fill:none;stroke:#093169;stroke-linecap:round;stroke-linejoin:round;stroke-width:3.17347509539751px"/><path d="M126.22,215.89l-2.86-7.44c-22.7-60.2,19.88-102.17,19.88-102.17S155.11,118,163,137.89" style="fill:none;stroke:#093169;stroke-linecap:round;stroke-linejoin:round;stroke-width:3.17347509539751px"/><path d="M118.6,192c-18.26,18.26-1.79,43.14-1.79,43.14l2-2A34.53,34.53,0,0,1,143.24,223h0a34.53,34.53,0,0,1,24.42,10.11l2,2s16.47-24.88-1.79-43.14" style="fill:none;stroke:#093169;stroke-linecap:round;stroke-linejoin:round;stroke-width:3.17347509539751px"/><circle cx="143.24" cy="170.83" r="12.09" style="fill:none;stroke:#093169;stroke-linecap:round;stroke-linejoin:round;stroke-width:3.17347509539751px"/><circle cx="143.24" cy="170.83" r="5.74" style="fill:#ffc524"/><path d="M158.5,128.52a24.69,24.69,0,0,1-30.52,0" style="fill:none;stroke:#093169;stroke-linecap:round;stroke-linejoin:round;stroke-width:3.17347509539751px"/><path d="M99.52,156a66.35,66.35,0,1,1,45.45-48" style="fill:none;stroke:#093169;stroke-linecap:round;stroke-linejoin:round;stroke-width:3.17347509539751px"/><path d="M79.91,158.31c-27.13,0-49.13-29.54-49.13-66s22-66,49.13-66S129,55.91,129,92.34" style="fill:none;stroke:#093169;stroke-linecap:round;stroke-linejoin:round;stroke-width:3.17347509539751px"/><ellipse cx="79.91" cy="92.34" rx="23.71" ry="65.97" style="fill:none;stroke:#093169;stroke-linecap:round;stroke-linejoin:round;stroke-width:3.17347509539751px"/><ellipse cx="79.91" cy="92.34" rx="65.97" ry="27.36" style="fill:none;stroke:#093169;stroke-linecap:round;stroke-linejoin:round;stroke-width:3.17347509539751px"/><path d="M45.16,107.82a3,3,0,0,1-2.79-2A40.38,40.38,0,0,1,69.65,53.45a3,3,0,0,1,1.57,5.71,34.46,34.46,0,0,0-23.28,44.72,3,3,0,0,1-2.79,4Z" style="fill:#e6a000"/></svg>