<svg id="DISEÑO" xmlns="http://www.w3.org/2000/svg" viewBox="0 0 250 250"><title>assets</title><path d="M173.45,37.74h19.42a0,0,0,0,1,0,0v92.21a3.53,3.53,0,0,1-3.53,3.53H177a3.53,3.53,0,0,1-3.53-3.53V37.74A0,0,0,0,1,173.45,37.74Z" transform="translate(252.14 275.66) rotate(-135)" style="fill:none;stroke:#093169;stroke-linecap:round;stroke-miterlimit:10;stroke-width:3.3853184154364px"/><polyline points="156.18 126.33 151.23 131.28 138.55 136.47 135.43 133.35 132.3 130.23 137.49 117.55 142.45 112.59" style="fill:none;stroke:#093169;stroke-linecap:round;stroke-miterlimit:10;stroke-width:3.3853184154364px"/><line x1="135.42" y1="133.35" x2="128.87" y2="139.91" style="fill:none;stroke:#093169;stroke-linecap:round;stroke-miterlimit:10;stroke-width:3.3853184154364px"/><path d="M212.64,69.87l3.24,3.24a8.06,8.06,0,0,1,0,11.39l-11,11" style="fill:none;stroke:#093169;stroke-linecap:round;stroke-miterlimit:10;stroke-width:3.3853184154364px"/><line x1="200.66" y1="81.85" x2="186.93" y2="68.11" style="fill:none;stroke:#093169;stroke-linecap:round;stroke-miterlimit:10;stroke-width:3.3853184154364px"/><path d="M59.18,168.87c7.86-1.32,14.24,4.33,14.24,4.33v-81A11.37,11.37,0,0,0,62.05,80.78h0A11.37,11.37,0,0,0,50.68,92.15v83.07a13.1,13.1,0,0,0,13.1,13.1H175.64v-70" style="fill:none;stroke:#093169;stroke-linecap:round;stroke-miterlimit:10;stroke-width:3.3853184154364px"/><line x1="79.77" y1="92.61" x2="152.66" y2="92.61" style="fill:none;stroke:#093169;stroke-linecap:round;stroke-miterlimit:10;stroke-width:3.3853184154364px"/><path d="M92.69,142.66a8.13,8.13,0,0,0,16.27,0c0-4.49-3.33-6.57-8.13-8.13-4.27-1.39-8.13-3.64-8.13-8.13a8.13,8.13,0,0,1,16.27,0" style="fill:none;stroke:#093169;stroke-linecap:round;stroke-miterlimit:10;stroke-width:3.3853184154364px"/><line x1="100.82" y1="113.72" x2="100.82" y2="118.31" style="fill:none;stroke:#093169;stroke-linecap:round;stroke-miterlimit:10;stroke-width:3.3853184154364px"/><line x1="100.82" y1="150.79" x2="100.82" y2="155.38" style="fill:none;stroke:#093169;stroke-linecap:round;stroke-miterlimit:10;stroke-width:3.3853184154364px"/><polygon points="167.7 151.78 139.1 180.38 167.7 180.38 167.7 151.78" style="fill:#e6a000"/></svg>