<svg id="DISEÑO" xmlns="http://www.w3.org/2000/svg" viewBox="0 0 55 55"><title>assets</title><path d="M27.63,54.49A27,27,0,0,1,8.55,8.42,27,27,0,0,1,46.72,46.58,26.81,26.81,0,0,1,27.63,54.49Zm0-52.41A25.42,25.42,0,1,0,53,27.5,25.45,25.45,0,0,0,27.63,2.08Z" style="fill:#e6a000"/><path d="M16.27,16.23a2.44,2.44,0,0,1,.83-1.91,3.1,3.1,0,0,1,2.14-.74,3.08,3.08,0,0,1,2.16.75,2.46,2.46,0,0,1,.83,1.9,2.5,2.5,0,0,1-.84,1.93,3.05,3.05,0,0,1-2.14.77,3,3,0,0,1-2.13-.78A2.51,2.51,0,0,1,16.27,16.23Zm.38,23.22V21.9h5.11V39.46Z" style="fill:#e6a000"/><path d="M42,39.46H36.9V29.66q0-4.25-3.06-4.25a3.06,3.06,0,0,0-2.43,1.13,4.31,4.31,0,0,0-1,2.9v10H25.31V21.9h5.13v2.79h.06a6.19,6.19,0,0,1,5.65-3.22q5.84,0,5.84,7.24Z" style="fill:#e6a000"/></svg>