<svg id="DISEÑO" xmlns="http://www.w3.org/2000/svg" xmlns:xlink="http://www.w3.org/1999/xlink" viewBox="0 0 111.27 113.12"><defs><clipPath id="clip-path"><rect y="-4.07" width="111.27" height="117.26" style="fill:none"/></clipPath></defs><title>assets</title><g style="clip-path:url(#clip-path)"><path d="M-1.52,9.77A12.36,12.36,0,0,0,9.39,3.23h-3a9.78,9.78,0,0,1-7.88,4,9.78,9.78,0,0,1-7.88-4h-3A12.36,12.36,0,0,0-1.52,9.77Z" style="fill:#e6a000"/><path d="M9.74,9.76h3a9.78,9.78,0,0,1,15.9,0h3a12.35,12.35,0,0,0-21.91,0Z" style="fill:#e6a000"/><path d="M42.75,7.21a9.78,9.78,0,0,1-7.88-4h-3a12.36,12.36,0,0,0,10.9,6.55,12.36,12.36,0,0,0,10.9-6.55h-3A9.78,9.78,0,0,1,42.75,7.21Z" style="fill:#e6a000"/><path d="M54,9.76h3a9.78,9.78,0,0,1,15.9,0h3A12.35,12.35,0,0,0,54,9.76Z" style="fill:#e6a000"/><path d="M87,7.21a9.78,9.78,0,0,1-7.88-4h-3A12.36,12.36,0,0,0,87,9.77a12.36,12.36,0,0,0,10.9-6.55h-3A9.78,9.78,0,0,1,87,7.21Z" style="fill:#e6a000"/><path d="M98.27,9.76h3a9.78,9.78,0,0,1,15.9,0h3a12.35,12.35,0,0,0-21.91,0Z" style="fill:#e6a000"/><path d="M9.83,16.33a9.78,9.78,0,0,1,8,4.09h3a12.35,12.35,0,0,0-21.91,0h3A9.78,9.78,0,0,1,9.83,16.33Z" style="fill:#e6a000"/><path d="M42.79,13.89h-3a9.78,9.78,0,0,1-15.75,0H21a12.35,12.35,0,0,0,21.8,0Z" style="fill:#e6a000"/><path d="M54.1,16.33a9.78,9.78,0,0,1,8,4.09h3a12.35,12.35,0,0,0-21.91,0h3A9.78,9.78,0,0,1,54.1,16.33Z" style="fill:#e6a000"/><path d="M87,13.89H84a9.78,9.78,0,0,1-15.75,0h-3a12.35,12.35,0,0,0,21.8,0Z" style="fill:#e6a000"/><path d="M98.36,16.33a9.78,9.78,0,0,1,8,4.09h3a12.35,12.35,0,0,0-21.91,0h3A9.78,9.78,0,0,1,98.36,16.33Z" style="fill:#e6a000"/><path d="M131.31,13.89h-3a9.78,9.78,0,0,1-15.75,0h-3a12.35,12.35,0,0,0,21.8,0Z" style="fill:#e6a000"/><path d="M-1.52,32.4a12.36,12.36,0,0,0,10.9-6.55h-3a9.78,9.78,0,0,1-7.88,4,9.78,9.78,0,0,1-7.88-4h-3A12.36,12.36,0,0,0-1.52,32.4Z" style="fill:#e6a000"/><path d="M9.74,32.38h3a9.78,9.78,0,0,1,15.9,0h3a12.35,12.35,0,0,0-21.91,0Z" style="fill:#e6a000"/><path d="M42.75,29.83a9.78,9.78,0,0,1-7.88-4h-3a12.35,12.35,0,0,0,21.8,0h-3A9.78,9.78,0,0,1,42.75,29.83Z" style="fill:#e6a000"/><path d="M54,32.38h3a9.78,9.78,0,0,1,15.9,0h3a12.35,12.35,0,0,0-21.91,0Z" style="fill:#e6a000"/><path d="M87,29.83a9.78,9.78,0,0,1-7.88-4h-3a12.35,12.35,0,0,0,21.8,0h-3A9.78,9.78,0,0,1,87,29.83Z" style="fill:#e6a000"/><path d="M98.27,32.38h3a9.78,9.78,0,0,1,15.9,0h3a12.35,12.35,0,0,0-21.91,0Z" style="fill:#e6a000"/><path d="M9.83,39a9.78,9.78,0,0,1,8,4.09h3A12.35,12.35,0,0,0-1.12,43h3A9.78,9.78,0,0,1,9.83,39Z" style="fill:#e6a000"/><path d="M42.79,36.51h-3a9.78,9.78,0,0,1-15.75,0H21a12.35,12.35,0,0,0,21.8,0Z" style="fill:#e6a000"/><path d="M54.1,39A9.78,9.78,0,0,1,62,43h3a12.35,12.35,0,0,0-21.91,0h3A9.78,9.78,0,0,1,54.1,39Z" style="fill:#e6a000"/><path d="M87,36.51H84a9.78,9.78,0,0,1-15.75,0h-3a12.35,12.35,0,0,0,21.8,0Z" style="fill:#e6a000"/><path d="M98.36,39a9.78,9.78,0,0,1,8,4.09h3a12.35,12.35,0,0,0-21.91,0h3A9.78,9.78,0,0,1,98.36,39Z" style="fill:#e6a000"/><path d="M131.31,36.51h-3a9.78,9.78,0,0,1-15.75,0h-3a12.35,12.35,0,0,0,21.8,0Z" style="fill:#e6a000"/><path d="M-1.52,55a12.36,12.36,0,0,0,10.9-6.55h-3a9.78,9.78,0,0,1-7.88,4,9.78,9.78,0,0,1-7.88-4h-3A12.36,12.36,0,0,0-1.52,55Z" style="fill:#e6a000"/><path d="M9.74,55h3a9.78,9.78,0,0,1,15.9,0h3A12.35,12.35,0,0,0,9.74,55Z" style="fill:#e6a000"/><path d="M42.75,52.46a9.78,9.78,0,0,1-7.88-4h-3a12.35,12.35,0,0,0,21.8,0h-3A9.78,9.78,0,0,1,42.75,52.46Z" style="fill:#e6a000"/><path d="M54,55h3a9.78,9.78,0,0,1,15.9,0h3A12.35,12.35,0,0,0,54,55Z" style="fill:#e6a000"/><path d="M87,52.46a9.78,9.78,0,0,1-7.88-4h-3a12.35,12.35,0,0,0,21.8,0h-3A9.78,9.78,0,0,1,87,52.46Z" style="fill:#e6a000"/><path d="M98.27,55h3a9.78,9.78,0,0,1,15.9,0h3a12.35,12.35,0,0,0-21.91,0Z" style="fill:#e6a000"/><path d="M9.83,61.57a9.78,9.78,0,0,1,8,4.09h3a12.35,12.35,0,0,0-21.91,0h3A9.78,9.78,0,0,1,9.83,61.57Z" style="fill:#e6a000"/><path d="M42.79,59.13h-3a9.78,9.78,0,0,1-15.75,0H21a12.35,12.35,0,0,0,21.8,0Z" style="fill:#e6a000"/><path d="M54.1,61.57a9.78,9.78,0,0,1,8,4.09h3a12.35,12.35,0,0,0-21.91,0h3A9.78,9.78,0,0,1,54.1,61.57Z" style="fill:#e6a000"/><path d="M87,59.13H84a9.78,9.78,0,0,1-15.75,0h-3a12.35,12.35,0,0,0,21.8,0Z" style="fill:#e6a000"/><path d="M98.36,61.57a9.78,9.78,0,0,1,8,4.09h3a12.35,12.35,0,0,0-21.91,0h3A9.78,9.78,0,0,1,98.36,61.57Z" style="fill:#e6a000"/><path d="M131.31,59.13h-3a9.78,9.78,0,0,1-15.75,0h-3a12.35,12.35,0,0,0,21.8,0Z" style="fill:#e6a000"/><path d="M-1.52,77.64a12.36,12.36,0,0,0,10.9-6.55h-3a9.78,9.78,0,0,1-7.88,4,9.78,9.78,0,0,1-7.88-4h-3A12.36,12.36,0,0,0-1.52,77.64Z" style="fill:#e6a000"/><path d="M9.74,77.62h3a9.78,9.78,0,0,1,15.9,0h3a12.35,12.35,0,0,0-21.91,0Z" style="fill:#e6a000"/><path d="M42.75,75.08a9.78,9.78,0,0,1-7.88-4h-3a12.35,12.35,0,0,0,21.8,0h-3A9.78,9.78,0,0,1,42.75,75.08Z" style="fill:#e6a000"/><path d="M54,77.62h3a9.78,9.78,0,0,1,15.9,0h3a12.35,12.35,0,0,0-21.91,0Z" style="fill:#e6a000"/><path d="M87,75.08a9.78,9.78,0,0,1-7.88-4h-3a12.35,12.35,0,0,0,21.8,0h-3A9.78,9.78,0,0,1,87,75.08Z" style="fill:#e6a000"/><path d="M98.27,77.62h3a9.78,9.78,0,0,1,15.9,0h3a12.35,12.35,0,0,0-21.91,0Z" style="fill:#e6a000"/><path d="M9.83,84.2a9.78,9.78,0,0,1,8,4.09h3a12.35,12.35,0,0,0-21.91,0h3A9.78,9.78,0,0,1,9.83,84.2Z" style="fill:#e6a000"/><path d="M42.79,81.75h-3a9.78,9.78,0,0,1-15.75,0H21a12.35,12.35,0,0,0,21.8,0Z" style="fill:#e6a000"/><path d="M54.1,84.2a9.78,9.78,0,0,1,8,4.09h3a12.35,12.35,0,0,0-21.91,0h3A9.78,9.78,0,0,1,54.1,84.2Z" style="fill:#e6a000"/><path d="M87,81.75H84a9.78,9.78,0,0,1-15.75,0h-3a12.35,12.35,0,0,0,21.8,0Z" style="fill:#e6a000"/><path d="M98.36,84.2a9.78,9.78,0,0,1,8,4.09h3a12.35,12.35,0,0,0-21.91,0h3A9.78,9.78,0,0,1,98.36,84.2Z" style="fill:#e6a000"/><path d="M131.31,81.75h-3a9.78,9.78,0,0,1-15.75,0h-3a12.35,12.35,0,0,0,21.8,0Z" style="fill:#e6a000"/><path d="M-1.52,100.26a12.36,12.36,0,0,0,10.9-6.55h-3a9.78,9.78,0,0,1-7.88,4,9.78,9.78,0,0,1-7.88-4h-3A12.36,12.36,0,0,0-1.52,100.26Z" style="fill:#e6a000"/><path d="M9.74,100.25h3a9.78,9.78,0,0,1,15.9,0h3a12.35,12.35,0,0,0-21.91,0Z" style="fill:#e6a000"/><path d="M42.75,97.7a9.78,9.78,0,0,1-7.88-4h-3a12.35,12.35,0,0,0,21.8,0h-3A9.78,9.78,0,0,1,42.75,97.7Z" style="fill:#e6a000"/><path d="M54,100.25h3a9.78,9.78,0,0,1,15.9,0h3a12.35,12.35,0,0,0-21.91,0Z" style="fill:#e6a000"/><path d="M87,97.7a9.78,9.78,0,0,1-7.88-4h-3a12.35,12.35,0,0,0,21.8,0h-3A9.78,9.78,0,0,1,87,97.7Z" style="fill:#e6a000"/><path d="M98.27,100.25h3a9.78,9.78,0,0,1,15.9,0h3a12.35,12.35,0,0,0-21.91,0Z" style="fill:#e6a000"/><path d="M9.83,106.82a9.78,9.78,0,0,1,8,4.09h3a12.35,12.35,0,0,0-21.91,0h3A9.78,9.78,0,0,1,9.83,106.82Z" style="fill:#e6a000"/><path d="M42.79,104.38h-3a9.78,9.78,0,0,1-15.75,0H21a12.35,12.35,0,0,0,21.8,0Z" style="fill:#e6a000"/><path d="M54.1,106.82a9.78,9.78,0,0,1,8,4.09h3a12.35,12.35,0,0,0-21.91,0h3A9.78,9.78,0,0,1,54.1,106.82Z" style="fill:#e6a000"/><path d="M87,104.38H84a9.78,9.78,0,0,1-15.75,0h-3a12.35,12.35,0,0,0,21.8,0Z" style="fill:#e6a000"/><path d="M98.36,106.82a9.78,9.78,0,0,1,8,4.09h3a12.35,12.35,0,0,0-21.91,0h3A9.78,9.78,0,0,1,98.36,106.82Z" style="fill:#e6a000"/><path d="M131.31,104.38h-3a9.78,9.78,0,0,1-15.75,0h-3a12.35,12.35,0,0,0,21.8,0Z" style="fill:#e6a000"/></g></svg>