<svg id="DISEÑO" xmlns="http://www.w3.org/2000/svg" xmlns:xlink="http://www.w3.org/1999/xlink" viewBox="0 0 250 250"><defs><clipPath id="clip-path"><rect x="-256.22" y="-154.76" width="111.27" height="117.26" style="fill:none"/></clipPath></defs><title>assets</title><path d="M129.53,91.53s2-18.43,9.44-26.31c4.54-4.81,15.91-5.52,22.84-7.1,8.6-2,14.17-3.31,26.65-3.31h12.33" style="fill:none;stroke:#093169;stroke-linecap:round;stroke-miterlimit:10;stroke-width:3.3853184154364px"/><line x1="189.29" y1="76.78" x2="200.79" y2="76.78" style="fill:none;stroke:#093169;stroke-linecap:round;stroke-miterlimit:10;stroke-width:3.3853184154364px"/><path d="M218.94,45.79H203.69a2.9,2.9,0,0,0-2.9,2.9V82.28a2.9,2.9,0,0,0,2.9,2.9h15.25" style="fill:none;stroke:#093169;stroke-linecap:round;stroke-miterlimit:10;stroke-width:3.3853184154364px"/><path d="M133.39,118a6.15,6.15,0,0,0,12.31,0c0-3.4-2.52-5-6.15-6.15-3.23-1.05-6.15-2.75-6.15-6.15a6.14,6.14,0,0,1,2.29-4.79" style="fill:none;stroke:#093169;stroke-linecap:round;stroke-miterlimit:10;stroke-width:3.3853184154364px"/><line x1="139.55" y1="124.15" x2="139.55" y2="127.62" style="fill:none;stroke:#093169;stroke-linecap:round;stroke-miterlimit:10;stroke-width:3.8330750385932px"/><path d="M144.63,89.77a22.64,22.64,0,1,0,16.66,15.65" style="fill:none;stroke:#093169;stroke-linecap:round;stroke-miterlimit:10;stroke-width:3.3853184154364px"/><path d="M189.31,76.78h0a7.37,7.37,0,0,0-6.84,4.55c-1.62,4-5.42,9.7-14.28,13.27a48,48,0,0,0-8,4c-2.5,1.58-5.76,4.13-8.71,6.07-3.3,2.17-5.35,2.42-7.46,0l-.12-.15a4.66,4.66,0,0,1,.8-6.7,58.37,58.37,0,0,0,13-12.49,3.17,3.17,0,0,0-2.6-5,11,11,0,0,0-8.72,4.08" style="fill:none;stroke:#093169;stroke-linecap:round;stroke-miterlimit:10;stroke-width:3.3853184154364px"/><circle cx="54.83" cy="163.27" r="5.96" style="fill:none;stroke:#093169;stroke-linecap:round;stroke-miterlimit:10;stroke-width:3.3853184154364px"/><path d="M139.72,143.15a26.86,26.86,0,0,1,8.91,20.12c0,14.62-11.39,26.47-25.45,26.47s-25.45-11.85-25.45-26.47c0-13.28,9.41-24.28,21.67-26.18" style="fill:none;stroke:#093169;stroke-linecap:round;stroke-miterlimit:10;stroke-width:3.3853184154364px"/><path d="M123.18,145.71a15.61,15.61,0,0,0-6.31,1.33,18,18,0,0,1,0,32.45,15.61,15.61,0,0,0,6.31,1.33c9.12,0,16.53-7.88,16.53-17.56S132.3,145.71,123.18,145.71Z" style="fill:#e6a000"/><line x1="164.04" y1="163.27" x2="185.58" y2="163.27" style="fill:none;stroke:#093169;stroke-linecap:round;stroke-miterlimit:10;stroke-width:3.3853184154364px"/><line x1="160.29" y1="145.48" x2="174.81" y2="145.48" style="fill:none;stroke:#093169;stroke-linecap:round;stroke-miterlimit:10;stroke-width:3.3853184154364px"/><line x1="160.34" y1="180.89" x2="174.51" y2="180.89" style="fill:none;stroke:#093169;stroke-linecap:round;stroke-miterlimit:10;stroke-width:3.3853184154364px"/><circle cx="191.54" cy="163.27" r="5.96" style="fill:none;stroke:#093169;stroke-linecap:round;stroke-miterlimit:10;stroke-width:3.3853184154364px"/><circle cx="180.77" cy="145.48" r="5.96" style="fill:none;stroke:#093169;stroke-linecap:round;stroke-miterlimit:10;stroke-width:3.3853184154364px"/><circle cx="180.47" cy="180.89" r="5.96" style="fill:none;stroke:#093169;stroke-linecap:round;stroke-miterlimit:10;stroke-width:3.3853184154364px"/><line x1="82.33" y1="163.27" x2="60.79" y2="163.27" style="fill:none;stroke:#093169;stroke-linecap:round;stroke-miterlimit:10;stroke-width:3.3853184154364px"/><line x1="86.08" y1="145.48" x2="71.56" y2="145.48" style="fill:none;stroke:#093169;stroke-linecap:round;stroke-miterlimit:10;stroke-width:3.3853184154364px"/><line x1="86.03" y1="180.89" x2="71.86" y2="180.89" style="fill:none;stroke:#093169;stroke-linecap:round;stroke-linejoin:round;stroke-width:3.8330750385932px"/><circle cx="65.6" cy="145.48" r="5.96" style="fill:none;stroke:#093169;stroke-linecap:round;stroke-miterlimit:10;stroke-width:3.3853184154364px"/><circle cx="65.9" cy="180.89" r="5.96" style="fill:none;stroke:#093169;stroke-linecap:round;stroke-miterlimit:10;stroke-width:3.3853184154364px"/><path d="M86,180.92c6.44,14.66,20.67,24.85,37.17,24.85h0c16.51,0,30.73-10.19,37.17-24.85" style="fill:none;stroke:#093169;stroke-linecap:round;stroke-miterlimit:10;stroke-width:3.3853184154364px"/><path d="M86.07,145.48a43.79,43.79,0,0,0-3.74,17.78" style="fill:none;stroke:#093169;stroke-linecap:round;stroke-miterlimit:10;stroke-width:3.3853184154364px"/><path d="M109.53,123.2a41,41,0,0,0-18.31,13.6" style="fill:none;stroke:#093169;stroke-linecap:round;stroke-miterlimit:10;stroke-width:3.3853184154364px"/><path d="M164,163.27a43.78,43.78,0,0,0-3.74-17.78" style="fill:none;stroke:#093169;stroke-linecap:round;stroke-miterlimit:10;stroke-width:3.3853184154364px"/><g style="clip-path:url(#clip-path)"><path d="M7.88-1.06h-3A9.78,9.78,0,0,1-3,2.92a9.78,9.78,0,0,1-7.88-4h-3A12.36,12.36,0,0,0-3,5.49,12.36,12.36,0,0,0,7.88-1.06Z" style="fill:#e6a000"/><path d="M19.19-1.18a12.36,12.36,0,0,0-11,6.65h3a9.78,9.78,0,0,1,15.9,0h3A12.36,12.36,0,0,0,19.19-1.18Z" style="fill:#e6a000"/><path d="M7.84,14.88A9.78,9.78,0,0,1,0,10.9h-3a12.35,12.35,0,0,0,21.8,0h-3A9.78,9.78,0,0,1,7.84,14.88Z" style="fill:#e6a000"/><path d="M30.05,10.78a12.36,12.36,0,0,0-11,6.65h3a9.78,9.78,0,0,1,15.9,0h3A12.36,12.36,0,0,0,30.05,10.78Z" style="fill:#e6a000"/><path d="M7.88,21.56h-3a9.78,9.78,0,0,1-7.88,4,9.78,9.78,0,0,1-7.88-4h-3A12.36,12.36,0,0,0-3,28.11,12.36,12.36,0,0,0,7.88,21.56Z" style="fill:#e6a000"/><path d="M19.19,21.44a12.36,12.36,0,0,0-11,6.65h3a9.78,9.78,0,0,1,15.9,0h3A12.36,12.36,0,0,0,19.19,21.44Z" style="fill:#e6a000"/></g></svg>