<svg id="DISEÑO" xmlns="http://www.w3.org/2000/svg" xmlns:xlink="http://www.w3.org/1999/xlink" viewBox="0 0 250 250"><defs><clipPath id="clip-path"><rect x="10.8" y="-154.76" width="111.27" height="117.26" style="fill:none"/></clipPath></defs><title>assets</title><path d="M118.85,80.75s1.77-16.28,8.34-23.24c4-4.25,14-4.88,20.18-6.27,7.6-1.73,12.52-2.92,23.54-2.92h10.89" style="fill:none;stroke:#093169;stroke-linecap:round;stroke-miterlimit:10;stroke-width:3.3853184154364px"/><line x1="171.64" y1="67.73" x2="181.79" y2="67.73" style="fill:none;stroke:#093169;stroke-linecap:round;stroke-miterlimit:10;stroke-width:3.3853184154364px"/><path d="M198.71,40.36H184.36a2.56,2.56,0,0,0-2.56,2.56V72.59a2.56,2.56,0,0,0,2.56,2.56h14.35" style="fill:none;stroke:#093169;stroke-linecap:round;stroke-miterlimit:10;stroke-width:3.3853184154364px"/><path d="M122.27,104.13a5.43,5.43,0,0,0,10.87,0c0-3-2.23-4.39-5.43-5.43-2.85-.93-5.43-2.43-5.43-5.43a5.42,5.42,0,0,1,2-4.23" style="fill:none;stroke:#093169;stroke-linecap:round;stroke-miterlimit:10;stroke-width:3.3853184154364px"/><line x1="127.7" y1="109.56" x2="127.7" y2="112.63" style="fill:none;stroke:#093169;stroke-linecap:round;stroke-miterlimit:10;stroke-width:3.3853184154364px"/><path d="M132.19,79.2A20,20,0,1,0,146.9,93" style="fill:none;stroke:#093169;stroke-linecap:round;stroke-miterlimit:10;stroke-width:3.3853184154364px"/><path d="M171.65,67.73h0a6.51,6.51,0,0,0-6,4c-1.43,3.53-4.78,8.57-12.62,11.72a42.4,42.4,0,0,0-7.1,3.54c-2.21,1.4-5.08,3.65-7.69,5.36-2.92,1.92-4.72,2.14-6.59,0l-.11-.13a4.12,4.12,0,0,1,.71-5.91,51.55,51.55,0,0,0,11.45-11,2.8,2.8,0,0,0-2.3-4.46,9.76,9.76,0,0,0-7.71,3.6" style="fill:none;stroke:#093169;stroke-linecap:round;stroke-miterlimit:10;stroke-width:3.3853184154364px"/><circle id="_Path_" data-name="&lt;Path&gt;" cx="133.09" cy="181.88" r="10.19" style="fill:none;stroke:#093169;stroke-miterlimit:10;stroke-width:3.3853184154364px"/><path id="_Path_2" data-name="&lt;Path&gt;" d="M147.39,174.56a10.19,10.19,0,1,1,0,14.64" style="fill:none;stroke:#093169;stroke-linecap:round;stroke-miterlimit:10;stroke-width:3.3853184154364px"/><path id="_Path_3" data-name="&lt;Path&gt;" d="M82.18,117.45H69.91a15.34,15.34,0,0,0-14.36,9.73c-4.47,13-6.75,28.79-6.75,42.49V177H60.92" style="fill:none;stroke:#093169;stroke-linecap:round;stroke-miterlimit:10;stroke-width:3.3853184154364px"/><path id="_Path_4" data-name="&lt;Path&gt;" d="M173.13,177h3.29a7.21,7.21,0,0,0,7.21-7.21v-11.9H89.86c-4.24,0-7.68-2.57-7.68-8.89" style="fill:none;stroke:#093169;stroke-linecap:round;stroke-miterlimit:10;stroke-width:3.3853184154364px"/><circle id="_Path_5" data-name="&lt;Path&gt;" cx="69.86" cy="181.88" r="10.19" style="fill:none;stroke:#093169;stroke-miterlimit:10;stroke-width:3.3853184154364px"/><line id="_Path_6" data-name="&lt;Path&gt;" x1="115.5" y1="176.98" x2="87.59" y2="176.98" style="fill:none;stroke:#093169;stroke-linecap:round;stroke-miterlimit:10;stroke-width:3.3853184154364px"/><path id="_Path_7" data-name="&lt;Path&gt;" d="M101.55,97.17H76.66a4.59,4.59,0,0,0-4.59,4.59h0a4.59,4.59,0,0,0,4.59,4.59h9.24a7.38,7.38,0,0,1,7.38,7.38V145A1.72,1.72,0,0,0,95,146.76h90.84L194.24,102a4.08,4.08,0,0,0-4-4.83H154.51" style="fill:none;stroke:#093169;stroke-linecap:round;stroke-miterlimit:10;stroke-width:3.3853184154364px"/><line id="_Path_8" data-name="&lt;Path&gt;" x1="82.18" y1="117.45" x2="82.18" y2="148.98" style="fill:none;stroke:#093169;stroke-linecap:round;stroke-miterlimit:10;stroke-width:3.3853184154364px"/><path d="M187,103.94H169.6c.32,1.65.59,3.31.76,5a31.34,31.34,0,0,1-2,15.79c-2.49,5.66-7.18,10.16-12.51,13.29-1.23.73-2.5,1.38-3.8,2h28.21Z" style="fill:#ffc524"/><g style="clip-path:url(#clip-path)"><path d="M-1.57,5.49A12.36,12.36,0,0,0,9.33-1.06h-3a9.78,9.78,0,0,1-7.88,4,9.78,9.78,0,0,1-7.88-4h-3A12.36,12.36,0,0,0-1.57,5.49Z" style="fill:#e6a000"/><path d="M20.64,1.38a9.78,9.78,0,0,1,8,4.09h3a12.35,12.35,0,0,0-21.91,0h3A9.78,9.78,0,0,1,20.64,1.38Z" style="fill:#e6a000"/><path d="M53.59-1.06h-3a9.78,9.78,0,0,1-7.88,4,9.78,9.78,0,0,1-7.88-4h-3a12.36,12.36,0,0,0,10.9,6.55A12.36,12.36,0,0,0,53.59-1.06Z" style="fill:#e6a000"/><path d="M64.9,1.38a9.78,9.78,0,0,1,8,4.09h3a12.35,12.35,0,0,0-21.91,0h3A9.78,9.78,0,0,1,64.9,1.38Z" style="fill:#e6a000"/><path d="M97.85-1.06h-3a9.78,9.78,0,0,1-7.88,4,9.78,9.78,0,0,1-7.88-4h-3A12.36,12.36,0,0,0,87,5.49,12.36,12.36,0,0,0,97.85-1.06Z" style="fill:#e6a000"/><path d="M109.16,1.38a9.78,9.78,0,0,1,8,4.09h3a12.35,12.35,0,0,0-21.91,0h3A9.78,9.78,0,0,1,109.16,1.38Z" style="fill:#e6a000"/><path d="M142.12-1.06h-3a9.78,9.78,0,0,1-7.88,4,9.78,9.78,0,0,1-7.88-4h-3a12.36,12.36,0,0,0,10.9,6.55A12.36,12.36,0,0,0,142.12-1.06Z" style="fill:#e6a000"/><path d="M153.43,1.38a9.78,9.78,0,0,1,8,4.09h3a12.35,12.35,0,0,0-21.91,0h3A9.78,9.78,0,0,1,153.43,1.38Z" style="fill:#e6a000"/><path d="M186.38-1.06h-3a9.78,9.78,0,0,1-7.88,4,9.78,9.78,0,0,1-7.88-4h-3a12.36,12.36,0,0,0,10.9,6.55A12.36,12.36,0,0,0,186.38-1.06Z" style="fill:#e6a000"/><path d="M197.69,1.38a9.78,9.78,0,0,1,8,4.09h3a12.35,12.35,0,0,0-21.91,0h3A9.78,9.78,0,0,1,197.69,1.38Z" style="fill:#e6a000"/><path d="M230.64-1.06h-3a9.78,9.78,0,0,1-7.88,4,9.78,9.78,0,0,1-7.88-4h-3a12.36,12.36,0,0,0,10.9,6.55A12.36,12.36,0,0,0,230.64-1.06Z" style="fill:#e6a000"/><path d="M242,1.38a9.78,9.78,0,0,1,8,4.09h3a12.35,12.35,0,0,0-21.91,0h3A9.78,9.78,0,0,1,242,1.38Z" style="fill:#e6a000"/><path d="M9.29,17.45a12.36,12.36,0,0,0,10.9-6.55h-3a9.78,9.78,0,0,1-15.75,0h-3A12.36,12.36,0,0,0,9.29,17.45Z" style="fill:#e6a000"/><path d="M20.54,17.43h3a9.78,9.78,0,0,1,15.9,0h3a12.35,12.35,0,0,0-21.91,0Z" style="fill:#e6a000"/><path d="M53.55,14.88a9.78,9.78,0,0,1-7.88-4h-3a12.35,12.35,0,0,0,21.8,0h-3A9.78,9.78,0,0,1,53.55,14.88Z" style="fill:#e6a000"/><path d="M64.81,17.43h3a9.78,9.78,0,0,1,15.9,0h3a12.35,12.35,0,0,0-21.91,0Z" style="fill:#e6a000"/><path d="M97.81,14.88a9.78,9.78,0,0,1-7.88-4h-3a12.35,12.35,0,0,0,21.8,0h-3A9.78,9.78,0,0,1,97.81,14.88Z" style="fill:#e6a000"/><path d="M109.07,17.43h3a9.78,9.78,0,0,1,15.9,0h3a12.35,12.35,0,0,0-21.91,0Z" style="fill:#e6a000"/><path d="M142.08,14.88a9.78,9.78,0,0,1-7.88-4h-3a12.35,12.35,0,0,0,21.8,0h-3A9.78,9.78,0,0,1,142.08,14.88Z" style="fill:#e6a000"/><path d="M153.33,17.43h3a9.78,9.78,0,0,1,15.9,0h3a12.35,12.35,0,0,0-21.91,0Z" style="fill:#e6a000"/><path d="M186.34,14.88a9.78,9.78,0,0,1-7.88-4h-3a12.35,12.35,0,0,0,21.8,0h-3A9.78,9.78,0,0,1,186.34,14.88Z" style="fill:#e6a000"/><path d="M197.6,17.43h3a9.78,9.78,0,0,1,15.9,0h3a12.35,12.35,0,0,0-21.91,0Z" style="fill:#e6a000"/><path d="M230.6,14.88a9.78,9.78,0,0,1-7.88-4h-3a12.35,12.35,0,0,0,21.8,0h-3A9.78,9.78,0,0,1,230.6,14.88Z" style="fill:#e6a000"/><path d="M241.86,17.43h3a9.78,9.78,0,0,1,15.9,0h3a12.35,12.35,0,0,0-21.91,0Z" style="fill:#e6a000"/><path d="M-1.57,28.11a12.36,12.36,0,0,0,10.9-6.55h-3a9.78,9.78,0,0,1-7.88,4,9.78,9.78,0,0,1-7.88-4h-3A12.36,12.36,0,0,0-1.57,28.11Z" style="fill:#e6a000"/><path d="M20.64,24a9.78,9.78,0,0,1,8,4.09h3a12.35,12.35,0,0,0-21.91,0h3A9.78,9.78,0,0,1,20.64,24Z" style="fill:#e6a000"/><path d="M53.59,21.56h-3a9.78,9.78,0,0,1-15.75,0h-3a12.35,12.35,0,0,0,21.8,0Z" style="fill:#e6a000"/><path d="M64.9,24a9.78,9.78,0,0,1,8,4.09h3a12.35,12.35,0,0,0-21.91,0h3A9.78,9.78,0,0,1,64.9,24Z" style="fill:#e6a000"/><path d="M97.85,21.56h-3a9.78,9.78,0,0,1-15.75,0h-3a12.35,12.35,0,0,0,21.8,0Z" style="fill:#e6a000"/><path d="M109.16,24a9.78,9.78,0,0,1,8,4.09h3a12.35,12.35,0,0,0-21.91,0h3A9.78,9.78,0,0,1,109.16,24Z" style="fill:#e6a000"/><path d="M142.12,21.56h-3a9.78,9.78,0,0,1-15.75,0h-3a12.35,12.35,0,0,0,21.8,0Z" style="fill:#e6a000"/><path d="M153.43,24a9.78,9.78,0,0,1,8,4.09h3a12.35,12.35,0,0,0-21.91,0h3A9.78,9.78,0,0,1,153.43,24Z" style="fill:#e6a000"/><path d="M186.38,21.56h-3a9.78,9.78,0,0,1-15.75,0h-3a12.35,12.35,0,0,0,21.8,0Z" style="fill:#e6a000"/><path d="M197.69,24a9.78,9.78,0,0,1,8,4.09h3a12.35,12.35,0,0,0-21.91,0h3A9.78,9.78,0,0,1,197.69,24Z" style="fill:#e6a000"/><path d="M230.64,21.56h-3a9.78,9.78,0,0,1-15.75,0h-3a12.35,12.35,0,0,0,21.8,0Z" style="fill:#e6a000"/><path d="M242,24a9.78,9.78,0,0,1,8,4.09h3a12.35,12.35,0,0,0-21.91,0h3A9.78,9.78,0,0,1,242,24Z" style="fill:#e6a000"/></g></svg>