<svg id="DISEÑO" xmlns="http://www.w3.org/2000/svg" viewBox="0 0 250 250"><title>assets</title><path d="M161.67,135.43A67.51,67.51,0,0,0,148,95.17L118.65,47.71H69.46l-30,47.46a67.51,67.51,0,0,0-13.68,40.26q0,.21,0,.42C26,157.59,44,175,65.72,175h55.72a40.55,40.55,0,0,0,15.86-3.23" style="fill:none;stroke:#093169;stroke-linecap:round;stroke-linejoin:round;stroke-width:5.22331057704605px"/><path d="M118.65,47.71l18.19-17.63-6.53-6.53a12.53,12.53,0,0,0-17.72,0l-5.27,5.27L105,26.5a15.48,15.48,0,0,0-21.89,0l-2.32,2.32-5.27-5.27a12.53,12.53,0,0,0-17.72,0l-6.53,6.53L69.46,47.71" style="fill:none;stroke:#093169;stroke-linecap:round;stroke-linejoin:round;stroke-width:5.22331057704605px"/><path d="M81.88,123.48a12.18,12.18,0,0,0,24.35,0c0-6.72-5-9.83-12.18-12.18-6.39-2.09-12.18-5.45-12.18-12.18a12.18,12.18,0,1,1,24.35,0" style="fill:none;stroke:#093169;stroke-linecap:round;stroke-linejoin:round;stroke-width:5.22331057704605px"/><line x1="94.06" y1="80.17" x2="94.06" y2="87.04" style="fill:none;stroke:#093169;stroke-linecap:round;stroke-linejoin:round;stroke-width:5.22331057704605px"/><line x1="94.06" y1="135.66" x2="94.06" y2="142.53" style="fill:none;stroke:#093169;stroke-linecap:round;stroke-linejoin:round;stroke-width:5.22331057704605px"/><polyline points="175.35 184.94 191.74 199.55 215.36 170.66" style="fill:none;stroke:#093169;stroke-linecap:round;stroke-miterlimit:10;stroke-width:5.22331057704605px"/><path d="M241.18,144.83c-29.15,3.43-47.25-13.32-47.25-13.32s-18.1,16.76-47.25,13.32c0,0-9.1,77.22,47.25,93.87C250.28,222.05,241.18,144.83,241.18,144.83Z" style="fill:none;stroke:#093169;stroke-linecap:round;stroke-miterlimit:10;stroke-width:5.22331057704605px"/><path d="M36.27,135.73a29.34,29.34,0,0,0,29.44,28.82h8.82a67.63,67.63,0,0,1-12.42-12C54.76,143.2,50.3,131.77,48.24,120a104,104,0,0,1-1.49-17,57.09,57.09,0,0,0-10.47,32.34Z" style="fill:#ffc524"/></svg>