<svg id="DISEÑO" xmlns="http://www.w3.org/2000/svg" viewBox="0 0 250 250"><title>assets</title><polyline points="187.49 228.35 187.49 75.75 233.07 75.75 233.07 228.35" style="fill:none;stroke:#093169;stroke-linecap:round;stroke-linejoin:round;stroke-width:4.63664788681796px"/><polyline points="141.91 227.78 141.91 126.29 187.49 126.29" style="fill:none;stroke:#093169;stroke-linecap:round;stroke-linejoin:round;stroke-width:4.63664788681796px"/><polyline points="141.91 166.07 96.33 166.07 96.33 227.77" style="fill:none;stroke:#093169;stroke-linecap:round;stroke-linejoin:round;stroke-width:4.63664788681796px"/><polyline points="96.33 196.92 50.76 196.92 50.76 227.77" style="fill:none;stroke:#093169;stroke-linecap:round;stroke-linejoin:round;stroke-width:4.63664788681796px"/><g id="_Group_" data-name="&lt;Group&gt;"><g id="_Group_2" data-name="&lt;Group&gt;"><g id="_Group_3" data-name="&lt;Group&gt;"><path id="_Path_" data-name="&lt;Path&gt;" d="M82.74,115.65a10.83,10.83,0,0,0,21.65,0c0-6-4.44-8.74-10.83-10.83C87.88,103,82.74,100,82.74,94a10.83,10.83,0,0,1,21.65,0" style="fill:none;stroke:#093169;stroke-linecap:round;stroke-linejoin:round;stroke-width:4.63664788681796px"/><line id="_Path_2" data-name="&lt;Path&gt;" x1="93.57" y1="77.14" x2="93.57" y2="83.25" style="fill:none;stroke:#093169;stroke-linecap:round;stroke-linejoin:round;stroke-width:4.63664788681796px"/><line id="_Path_3" data-name="&lt;Path&gt;" x1="93.57" y1="126.48" x2="93.57" y2="132.59" style="fill:none;stroke:#093169;stroke-linecap:round;stroke-linejoin:round;stroke-width:4.63664788681796px"/><circle id="_Path_4" data-name="&lt;Path&gt;" cx="93.57" cy="104.86" r="39.88" style="fill:none;stroke:#093169;stroke-linecap:round;stroke-linejoin:round;stroke-width:4.63664788681796px"/></g></g><g id="_Group_4" data-name="&lt;Group&gt;"><path id="_Path_5" data-name="&lt;Path&gt;" d="M149.71,55.47l12.54-3.61c3.55-1,7.28-2.15,9.81-4.84,3.21-3.4,3.75-8.51,3.49-13.18s-1.15-9.4-.15-14a117.15,117.15,0,0,1-31,15.44c-4.53,1.47-9.17,2.67-13.5,4.67s-8.39,4.9-10.82,9a25.6,25.6,0,0,0-2.93,8.71c-.32,1.82-.55,3.66-.7,5.51" style="fill:none;stroke:#093169;stroke-linecap:round;stroke-linejoin:round;stroke-width:4.63664788681796px"/><path id="_Path_6" data-name="&lt;Path&gt;" d="M169.75,49.07a8.93,8.93,0,0,1-1.67,11.12c-2,1.69-4.55,2.41-7,3.09l-15.54,4.2" style="fill:none;stroke:#093169;stroke-linecap:round;stroke-linejoin:round;stroke-width:4.63664788681796px"/><path id="_Path_7" data-name="&lt;Path&gt;" d="M163.61,62.48c.82,2.78.85,6-.71,8.4a10.49,10.49,0,0,1-5.87,4,67.22,67.22,0,0,1-7.12,1.43,38.85,38.85,0,0,0-14.76,6.28" style="fill:none;stroke:#093169;stroke-linecap:round;stroke-linejoin:round;stroke-width:4.63664788681796px"/><path id="_Path_8" data-name="&lt;Path&gt;" d="M37.42,55.47,24.88,51.86c-3.55-1-7.28-2.15-9.81-4.84-3.21-3.4-3.75-8.51-3.49-13.18s1.15-9.4.15-14a117.15,117.15,0,0,0,31,15.44C47.26,36.79,51.9,38,56.22,40s8.39,4.9,10.82,9A25.6,25.6,0,0,1,70,57.69c.28,1.58.49,3.18.64,4.78" style="fill:none;stroke:#093169;stroke-linecap:round;stroke-linejoin:round;stroke-width:4.63664788681796px"/><path id="_Path_9" data-name="&lt;Path&gt;" d="M17.39,49.07a8.93,8.93,0,0,0,1.67,11.12c2,1.69,4.55,2.41,7,3.09l15.54,4.2" style="fill:none;stroke:#093169;stroke-linecap:round;stroke-linejoin:round;stroke-width:4.63664788681796px"/><path id="_Path_10" data-name="&lt;Path&gt;" d="M23.52,62.48c-.81,2.78-.85,6,.71,8.4a10.49,10.49,0,0,0,5.87,4,67.23,67.23,0,0,0,7.12,1.43A38.85,38.85,0,0,1,52,82.62" style="fill:none;stroke:#093169;stroke-linecap:round;stroke-linejoin:round;stroke-width:4.63664788681796px"/></g></g><path d="M196.77,85.8V127a32.32,32.32,0,0,1,27,0V85.8Z" style="fill:#e6a000"/><path d="M150.65,135.83V177a32.32,32.32,0,0,1,27,0v-41.2Z" style="fill:#ffc524"/></svg>