<svg id="DISEÑO" xmlns="http://www.w3.org/2000/svg" viewBox="0 0 296.12 91.18"><title>assets</title><path d="M38.34,48H28.51l5.16-18.43ZM23.84,66.64,27,55.32H39.81l2.95,11.31H53.58L42.27,24c-.74-2.89-2-3.68-4.67-3.68H21.87v3.95H23.1c2.21,0,3,.53,3,2.11a11.2,11.2,0,0,1-.74,4L14,66.64Z" style="fill:#093169"/><path d="M66.6,66.64V23.74c0-2.11-1-3.42-3.19-3.42H53.82v3.95h.49c2,0,2.71.79,2.71,2.64V66.64Z" style="fill:#093169"/><path d="M84,66.64V23.74c0-2.11-1.22-3.42-3.19-3.42H71.27v3.95h.5c1.72,0,2.7.79,2.7,2.64V66.64Z" style="fill:#093169"/><path d="M101.75,24.52c0-3.16-2-5-5.66-5-3.44,0-5.65,1.85-5.65,5s2.21,4.73,5.65,4.73c3.69,0,5.66-1.58,5.66-4.73m-.24,42.11V35.32c0-2.11-1.23-3.43-3-3.43H88.73v3.69h.49c2,0,2.71,1.05,2.71,2.9V66.64Z" style="fill:#093169"/><path d="M124.61,49.79v6.85c-2,2.11-3.93,3.15-5.9,3.15-2.22,0-3-1-3-3.68s.74-3.94,2.71-4.74a23.8,23.8,0,0,1,6.14-1.58m-13.76-8.42,1-.27a22.24,22.24,0,0,1,5.66-1.84,12.34,12.34,0,0,1,2.94-.26c3,0,4.18,1,4.18,4.2V44c-4.67.78-5.9,1.05-8.11,1.58a17.6,17.6,0,0,0-3.93,1.31c-3.93,1.85-5.65,5-5.65,10.26,0,6.58,2.46,9.73,7.87,9.73a12,12,0,0,0,6.14-1.57,23.38,23.38,0,0,0,3.94-3.16v1c0,2.37,1,3.42,2.7,3.42h9.09V62.95h-.24c-1.73,0-2.71-.78-2.71-2.63V43.21c0-8.69-2.7-11.84-10.81-11.84a35.1,35.1,0,0,0-7.62,1.06,21.19,21.19,0,0,0-6.64,2.63Z" style="fill:#093169"/><path d="M151.4,66.64V42.95c2.22-2.1,3.69-2.9,5.9-2.9s2.95,1.05,2.95,4.47V66.64h9.34V42.95c0-5-.49-6.84-1.72-8.68a7.25,7.25,0,0,0-6.15-2.63c-3.69,0-6.63,1.32-10.81,5.26V35.05c0-2.11-.74-3.16-2.7-3.16h-9.59v3.69h.5c2,0,2.71,1.05,2.71,2.9V66.64Z" style="fill:#093169"/><path d="M199.57,59.79h-14.5l14-20.79V31.89H178.43c-2.45,0-3.43,1.06-3.43,3.69v6.32h3.43V41.1c0-1.84.74-2.63,2.71-2.63h7.62l-14,20.79v7.37h24.82Z" style="fill:#093169"/><path d="M252.73,64.37V26.81c0-3-.95-4.06-3.79-4.06h-8.06v4.06h.71c1.9,0,2.38.51,2.38,2.54v35Zm4.74,0h8.77V35.95c0-2.8-1-4.06-3.79-4.06h-5Zm-18.25,0V31.88h-5c-2.61,0-3.79,1.27-3.79,4.06V64.37Zm37.21-18.78C276.43,63.1,264.58,76,248.23,76,232.11,76,220.5,63.1,220.5,45.59c0-17.77,11.61-30.46,27.73-30.46,16.35,0,28.21,12.69,28.21,30.46m5.69,0c0-20.81-14.45-36-33.89-36-19.19,0-33.41,15.23-33.41,36,0,20.55,14.22,36,33.65,36,19.2,0,33.65-15.49,33.65-36" style="fill:#093169"/></svg>