<svg id="DISEÑO" xmlns="http://www.w3.org/2000/svg" viewBox="0 0 250 250"><title>assets</title><path d="M61.11,127.43c0,6.83,5.54,9.17,12.37,5.23S85.86,120,85.86,113.15s-5.07-7.06-12.37-5.23c-6.5,1.63-12.37,1.6-12.37-5.23s5.54-15.57,12.37-19.52,12.37-1.6,12.37,5.23" style="fill:none;stroke:#093169;stroke-linecap:round;stroke-linejoin:round;stroke-width:3.86424579858715px"/><line x1="73.49" y1="76.27" x2="73.49" y2="83.26" style="fill:none;stroke:#093169;stroke-linecap:round;stroke-linejoin:round;stroke-width:3.86424579858715px"/><line x1="73.49" y1="132.66" x2="73.49" y2="139.65" style="fill:none;stroke:#093169;stroke-linecap:round;stroke-linejoin:round;stroke-width:3.86424579858715px"/><polyline points="89.76 203.22 40.29 174.66 77.32 153.28" style="fill:none;stroke:#093169;stroke-linecap:round;stroke-miterlimit:10;stroke-width:3.86424579858715px"/><line x1="51.36" y1="181.05" x2="62.9" y2="174.39" style="fill:none;stroke:#093169;stroke-linecap:round;stroke-miterlimit:10;stroke-width:3.86424579858715px"/><line x1="62.42" y1="187.44" x2="73.96" y2="180.78" style="fill:none;stroke:#093169;stroke-linecap:round;stroke-miterlimit:10;stroke-width:3.86424579858715px"/><line x1="73.49" y1="193.83" x2="85.03" y2="187.17" style="fill:none;stroke:#093169;stroke-linecap:round;stroke-miterlimit:10;stroke-width:3.86424579858715px"/><line x1="137.81" y1="105.21" x2="137.81" y2="142.68" style="fill:none;stroke:#093169;stroke-linecap:round;stroke-miterlimit:10;stroke-width:3.86424579858715px"/><polyline points="137.81 105.21 157.93 116.82 157.93 202.97" style="fill:none;stroke:#093169;stroke-linecap:round;stroke-miterlimit:10;stroke-width:3.86424579858715px"/><polyline points="157.93 202.97 178.04 191.36 178.04 105.21 157.93 93.59" style="fill:none;stroke:#093169;stroke-linecap:round;stroke-miterlimit:10;stroke-width:3.86424579858715px"/><line x1="171.98" y1="64.23" x2="171.98" y2="101.71" style="fill:none;stroke:#093169;stroke-linecap:round;stroke-miterlimit:10;stroke-width:3.86424579858715px"/><polyline points="171.98 64.23 192.1 75.85 192.1 183.46" style="fill:none;stroke:#093169;stroke-linecap:round;stroke-miterlimit:10;stroke-width:3.86424579858715px"/><polyline points="103.63 146.18 123.75 134.56 143.87 146.18 143.87 211.23 123.75 222.85 103.63 211.23 103.63 146.18" style="fill:none;stroke:#093169;stroke-linecap:round;stroke-miterlimit:10;stroke-width:3.86424579858715px"/><line x1="157.92" y1="93.59" x2="137.81" y2="105.21" style="fill:none;stroke:#093169;stroke-linecap:round;stroke-miterlimit:10;stroke-width:3.86424579858715px"/><polyline points="192.1 183.46 212.22 171.84 212.22 64.23 192.1 52.62 171.98 64.23" style="fill:none;stroke:#093169;stroke-linecap:round;stroke-miterlimit:10;stroke-width:3.86424579858715px"/><polyline points="175.05 36.87 155.73 48.76 155.73 72.08 123.67 93.11 123.67 110.93 94 129.88" style="fill:none;stroke:#093169;stroke-linecap:round;stroke-linejoin:round;stroke-width:3.86424579858715px"/><polygon points="123.75 143.49 136.14 150.64 136.14 206.77 123.75 213.92 123.75 158.09 111.36 151.11 111.36 150.64 123.75 143.49" style="fill:#ffc524"/><polyline points="168.84 28.38 182.96 31.98 179.55 45.36" style="fill:none;stroke:#093169;stroke-linecap:round;stroke-linejoin:round;stroke-width:3.86424579858715px"/></svg>