<svg id="DISEÑO" xmlns="http://www.w3.org/2000/svg" viewBox="0 0 250 250"><title>assets</title><path d="M158.43,130.21A47.23,47.23,0,0,0,148.86,102l-20.52-33.2H93.92L73,102a47.24,47.24,0,0,0-9.57,28.17q0,.15,0,.29A27.81,27.81,0,0,0,91.3,157.88h39a28.37,28.37,0,0,0,11.1-2.26" style="fill:none;stroke:#093169;stroke-linecap:round;stroke-linejoin:round;stroke-width:3.65452655984936px"/><path d="M128.34,68.83,141.06,56.5l-4.57-4.57a8.77,8.77,0,0,0-12.4,0l-3.69,3.69L118.79,54a10.83,10.83,0,0,0-15.32,0l-1.62,1.62-3.69-3.69a8.77,8.77,0,0,0-12.4,0L81.19,56.5,93.92,68.83" style="fill:none;stroke:#093169;stroke-linecap:round;stroke-linejoin:round;stroke-width:3.65452655984936px"/><path d="M102.61,121.85a8.52,8.52,0,0,0,17,0c0-4.7-3.49-6.88-8.52-8.52-4.47-1.46-8.52-3.81-8.52-8.52a8.52,8.52,0,1,1,17,0" style="fill:none;stroke:#093169;stroke-linecap:round;stroke-linejoin:round;stroke-width:3.65452655984936px"/><line x1="111.13" y1="91.54" x2="111.13" y2="96.35" style="fill:none;stroke:#093169;stroke-linecap:round;stroke-linejoin:round;stroke-width:3.65452655984936px"/><line x1="111.13" y1="130.37" x2="111.13" y2="135.17" style="fill:none;stroke:#093169;stroke-linecap:round;stroke-linejoin:round;stroke-width:3.65452655984936px"/><polyline points="168.01 164.85 179.47 175.07 196 154.86" style="fill:none;stroke:#093169;stroke-linecap:round;stroke-miterlimit:10;stroke-width:3.65452655984936px"/><path d="M214.06,136.79c-20.4,2.4-33.06-9.32-33.06-9.32s-12.66,11.72-33.06,9.32c0,0-6.37,54,33.06,65.68C220.43,190.81,214.06,136.79,214.06,136.79Z" style="fill:none;stroke:#093169;stroke-linecap:round;stroke-miterlimit:10;stroke-width:3.65452655984936px"/><path d="M70.7,130.41a20.53,20.53,0,0,0,20.6,20.16h6.17a47.31,47.31,0,0,1-8.69-8.39,50.93,50.93,0,0,1-9.72-22.74,72.8,72.8,0,0,1-1-11.88,40,40,0,0,0-7.33,22.63Z" style="fill:#ffc524"/></svg>