<svg id="DISEÑO" xmlns="http://www.w3.org/2000/svg" viewBox="0 0 250 250"><title>assets</title><path d="M207.72,197.92V204a5.12,5.12,0,0,1-3.8,4.94h0a112.64,112.64,0,0,1-58,0h0a5.12,5.12,0,0,1-3.8-4.94v-6.11" style="fill:none;stroke:#093169;stroke-linecap:round;stroke-linejoin:round;stroke-width:3.75086393090021px"/><path d="M207.72,179.15v6.11a5.12,5.12,0,0,1-3.8,4.94h0a112.64,112.64,0,0,1-58,0h0a5.12,5.12,0,0,1-3.8-4.94v-6.11" style="fill:none;stroke:#093169;stroke-linecap:round;stroke-linejoin:round;stroke-width:3.75086393090021px"/><path d="M207.72,160.37v6.11a5.12,5.12,0,0,1-3.8,4.94h0a112.64,112.64,0,0,1-58,0h0a5.12,5.12,0,0,1-3.8-4.94v-6.11" style="fill:none;stroke:#093169;stroke-linecap:round;stroke-linejoin:round;stroke-width:3.75086393090021px"/><ellipse cx="174.9" cy="149.26" rx="32.82" ry="9.29" style="fill:none;stroke:#093169;stroke-linecap:round;stroke-linejoin:round;stroke-width:3.75086393090021px"/><path d="M93.25,129.1a24.07,24.07,0,1,0,19.2-38.58" style="fill:none;stroke:#093169;stroke-linecap:round;stroke-miterlimit:10;stroke-width:3.75086393090021px"/><path d="M75.23,130.94a3.13,3.13,0,0,1-2.95-2.08A42.66,42.66,0,0,1,101.1,73.5a3.13,3.13,0,0,1,1.66,6,36.4,36.4,0,0,0-24.59,47.24,3.13,3.13,0,0,1-2.95,4.18Z" style="fill:#e6a000"/><circle cx="112.44" cy="114.58" r="1.85" style="fill:none;stroke:#093169;stroke-linecap:round;stroke-miterlimit:10;stroke-width:3.75086393090021px"/><polyline points="112.44 69.23 112.44 114.58 76.62 141.68" style="fill:none;stroke:#093169;stroke-linecap:round;stroke-miterlimit:10;stroke-width:3.75086393090021px"/><path d="M132.65,181.8a70.09,70.09,0,1,1,48-50.76" style="fill:none;stroke:#093169;stroke-linecap:round;stroke-miterlimit:10;stroke-width:3.75086393090021px"/><line x1="42.27" y1="114.58" x2="51.77" y2="114.58" style="fill:none;stroke:#093169;stroke-linecap:round;stroke-miterlimit:10;stroke-width:3.75086393090021px"/><line x1="173.12" y1="114.58" x2="182.61" y2="114.58" style="fill:none;stroke:#093169;stroke-linecap:round;stroke-miterlimit:10;stroke-width:3.75086393090021px"/><line x1="112.44" y1="44.41" x2="112.44" y2="53.91" style="fill:none;stroke:#093169;stroke-linecap:round;stroke-miterlimit:10;stroke-width:3.75086393090021px"/><line x1="112.44" y1="175.26" x2="112.44" y2="184.75" style="fill:none;stroke:#093169;stroke-linecap:round;stroke-miterlimit:10;stroke-width:3.75086393090021px"/></svg>